<svg width="18" height="18" viewBox="0 0 18 18" fill="none" xmlns="http://www.w3.org/2000/svg">
<path d="M16 7V16H1.98V2H10.98V0H2C0.9 0 0 0.9 0 2V16C0 17.1 0.9 18 2 18H16C17.1 18 18 17.1 18 16V7H16ZM13.06 4.94L14 7L14.94 4.94L17 4L14.94 3.06L14 1L13.06 3.06L11 4L13.06 4.94ZM9 5L7.75 7.75L5 9L7.75 10.25L9 13L10.25 10.25L13 9L10.25 7.75L9 5Z" fill="url(#paint0_linear_531_3885)"/>
<defs>
<linearGradient id="paint0_linear_531_3885" x1="1.66019" y1="18" x2="22.7006" y2="18" gradientUnits="userSpaceOnUse">
<stop stop-color="#6446E8"/>
<stop offset="0.407986" stop-color="#8A72ED"/>
<stop offset="0.880208" stop-color="#6DBFF8"/>
</linearGradient>
</defs>
</svg>
