<svg width="19" height="19" viewBox="0 0 19 19" fill="none" xmlns="http://www.w3.org/2000/svg">
<path d="M0 9.5C0 4.25329 4.25329 0 9.5 0C14.7467 0 19 4.25329 19 9.5C19 14.7467 14.7467 19 9.5 19C4.25329 19 0 14.7467 0 9.5ZM6.78571 8.82143C7.14565 8.82143 7.49085 8.67844 7.74536 8.42393C7.99987 8.16942 8.14286 7.82422 8.14286 7.46429C8.14286 7.10435 7.99987 6.75915 7.74536 6.50464C7.49085 6.25013 7.14565 6.10714 6.78571 6.10714C6.42578 6.10714 6.08058 6.25013 5.82607 6.50464C5.57156 6.75915 5.42857 7.10435 5.42857 7.46429C5.42857 7.82422 5.57156 8.16942 5.82607 8.42393C6.08058 8.67844 6.42578 8.82143 6.78571 8.82143ZM13.5714 7.46429C13.5714 7.10435 13.4284 6.75915 13.1739 6.50464C12.9194 6.25013 12.5742 6.10714 12.2143 6.10714C11.8543 6.10714 11.5092 6.25013 11.2546 6.50464C11.0001 6.75915 10.8571 7.10435 10.8571 7.46429C10.8571 7.82422 11.0001 8.16942 11.2546 8.42393C11.5092 8.67844 11.8543 8.82143 12.2143 8.82143C12.5742 8.82143 12.9194 8.67844 13.1739 8.42393C13.4284 8.16942 13.5714 7.82422 13.5714 7.46429ZM5.12525 11.6076C4.96442 11.6882 4.84213 11.8292 4.78526 11.9998C4.72838 12.1705 4.74157 12.3567 4.82193 12.5176V12.5196L4.82329 12.521L4.82532 12.5251L4.83075 12.5352C4.85173 12.5757 4.87437 12.6154 4.89861 12.654C4.94271 12.7266 5.00718 12.825 5.09268 12.939C5.32468 13.2459 5.59438 13.5225 5.89543 13.7621C6.64321 14.3606 7.809 14.9286 9.5 14.9286C11.1917 14.9286 12.3568 14.3606 13.1046 13.7614C13.4055 13.5222 13.6752 13.2462 13.9073 12.9397C14.0036 12.8109 14.0911 12.6758 14.1692 12.5352L14.1747 12.5251L14.1767 12.521L14.1781 12.519V12.5176C14.2528 12.3578 14.2624 12.1753 14.2048 12.0086C14.1472 11.8418 14.027 11.7041 13.8696 11.6245C13.7122 11.5449 13.53 11.5298 13.3616 11.5822C13.1932 11.6347 13.0519 11.7506 12.9675 11.9055L12.9648 11.9103L12.9417 11.9496C12.9045 12.0101 12.8645 12.0688 12.8216 12.1254C12.7076 12.2781 12.523 12.4891 12.257 12.7022C11.7325 13.1215 10.8619 13.5714 9.5 13.5714C8.13811 13.5714 7.2675 13.1215 6.74296 12.7029C6.53136 12.5347 6.34168 12.3407 6.17839 12.1254C6.12672 12.0565 6.07914 11.9847 6.03589 11.9103L6.03318 11.9055C5.95183 11.7461 5.81076 11.6252 5.6407 11.5693C5.47064 11.5134 5.28537 11.5269 5.12525 11.607V11.6076Z" fill="#8594A1"/>
</svg>
