<svg width="39" height="39" viewBox="0 0 39 39" fill="none" xmlns="http://www.w3.org/2000/svg">
<circle cx="19.5" cy="19.5" r="19.5" fill="#4CBC79"/>
<path d="M12.5523 11.1973C12.0015 11.3743 11.5688 11.735 11.2999 12.2529C11.1426 12.548 11.1426 12.548 11.1426 15.0067C11.1426 17.4655 11.1426 17.4655 11.2999 17.7606C11.5098 18.1605 11.7982 18.4621 12.1916 18.6654L12.5195 18.8424H14.9782H17.437L17.7648 18.6654C18.1582 18.4621 18.4467 18.1605 18.6565 17.7606C18.8139 17.4655 18.8139 17.4655 18.8139 15.0067V12.548L18.6369 12.2201C18.4336 11.8267 18.132 11.5383 17.7321 11.3284C17.437 11.1711 17.4173 11.1711 15.0766 11.158C13.7784 11.1514 12.6441 11.1711 12.5523 11.1973ZM17.201 12.5414C17.5222 12.7119 17.5354 12.8234 17.5354 15.0067C17.5354 17.1901 17.5222 17.3016 17.201 17.4721C16.9584 17.5966 13.0506 17.6097 12.7818 17.4852C12.4342 17.3278 12.4211 17.2229 12.4211 14.9936C12.4277 12.8037 12.4342 12.7185 12.7555 12.5414C12.9916 12.4103 16.9452 12.4103 17.201 12.5414Z" fill="white"/>
<path d="M21.4299 11.276C20.9709 11.453 20.5906 11.794 20.3743 12.2398L20.1907 12.6136V15.0067C20.1907 17.3016 20.1972 17.413 20.3284 17.7015C20.5316 18.1343 20.8398 18.449 21.2594 18.6588L21.6331 18.8424H24.0263C26.3212 18.8424 26.4326 18.8359 26.7211 18.7047C27.1408 18.508 27.4686 18.1999 27.6587 17.813L27.8292 17.4721V15.0067V12.5414L27.6587 12.2005C27.4489 11.7809 27.0686 11.4465 26.6031 11.2694C26.2753 11.1449 26.0983 11.1383 24.0067 11.1449C21.9413 11.1449 21.7381 11.158 21.4299 11.276ZM26.2491 12.5414C26.5703 12.7119 26.5834 12.8234 26.5834 15.0067C26.5834 17.1901 26.5703 17.3016 26.2491 17.4721C26.0065 17.5966 22.0987 17.6097 21.8298 17.4852C21.4823 17.3278 21.4692 17.2229 21.4692 14.9936C21.4758 12.8037 21.4823 12.7185 21.8036 12.5414C22.0397 12.4103 25.9933 12.4103 26.2491 12.5414Z" fill="white"/>
<path d="M12.5525 20.2449C12.0017 20.4219 11.569 20.7825 11.3002 21.3005C11.1428 21.5955 11.1428 21.5955 11.1428 24.0543C11.1428 26.5131 11.1428 26.5131 11.3002 26.8081C11.51 27.2081 11.805 27.5097 12.1722 27.6998L12.4804 27.8572H14.9785H17.4766L17.7848 27.6998C18.1519 27.5097 18.447 27.2081 18.6568 26.8081C18.8142 26.5131 18.8142 26.5131 18.8142 24.0543V21.5955L18.6371 21.2677C18.4339 20.8743 18.1323 20.5858 17.7323 20.376C17.4372 20.2186 17.4176 20.2186 15.0768 20.2055C13.7786 20.199 12.6443 20.2186 12.5525 20.2449ZM17.2012 21.589C17.5225 21.7595 17.5356 21.8709 17.5356 24.0543C17.5356 26.2377 17.5225 26.3491 17.2012 26.5196C16.9586 26.6442 13.0508 26.6573 12.782 26.5327C12.4345 26.3754 12.4214 26.2705 12.4214 24.0412C12.4279 21.8512 12.4345 21.766 12.7558 21.589C12.9918 21.4578 16.9455 21.4578 17.2012 21.589Z" fill="white"/>
<path d="M21.4889 20.3041C20.8332 20.5336 20.3677 21.0516 20.2234 21.7204C20.171 21.9433 20.1579 22.7957 20.171 24.2512C20.1907 26.3232 20.1972 26.4674 20.3284 26.7493C20.5251 27.169 20.8332 27.4968 21.2201 27.6869L21.561 27.8574H24.0263H26.4916L26.8326 27.6869C27.2129 27.4968 27.5276 27.169 27.7046 26.7821C27.8161 26.533 27.8292 26.3035 27.8292 24.048V21.5892L27.6587 21.2483C27.4686 20.8614 27.1408 20.5533 26.7211 20.3566C26.4326 20.2254 26.3015 20.2189 24.1247 20.2058C22.0528 20.1861 21.797 20.1992 21.4889 20.3041ZM26.249 21.5892C26.5703 21.7597 26.5834 21.8712 26.5834 24.0545C26.5834 26.2379 26.5703 26.3494 26.249 26.5199C26.0064 26.6444 22.0987 26.6575 21.8298 26.533C21.4823 26.3756 21.4692 26.2707 21.4692 24.0414C21.4758 21.8515 21.4823 21.7663 21.8036 21.5892C22.0396 21.4581 25.9933 21.4581 26.249 21.5892Z" fill="white"/>
</svg>
