<svg width="39" height="39" viewBox="0 0 39 39" fill="none" xmlns="http://www.w3.org/2000/svg">
<circle cx="19.5" cy="19.5" r="19.5" fill="#6E52EA"/>
<path d="M12.5523 11.1972C12.0015 11.3742 11.5688 11.7348 11.2999 12.2528C11.1426 12.5479 11.1426 12.5479 11.1426 15.0066C11.1426 17.4654 11.1426 17.4654 11.2999 17.7604C11.5098 18.1604 11.7982 18.462 12.1916 18.6653L12.5195 18.8423H14.9782H17.437L17.7648 18.6653C18.1582 18.462 18.4467 18.1604 18.6565 17.7604C18.8139 17.4654 18.8139 17.4654 18.8139 15.0066V12.5479L18.6369 12.22C18.4336 11.8266 18.132 11.5381 17.7321 11.3283C17.437 11.171 17.4173 11.171 15.0766 11.1578C13.7784 11.1513 12.6441 11.171 12.5523 11.1972ZM17.201 12.5413C17.5222 12.7118 17.5354 12.8232 17.5354 15.0066C17.5354 17.19 17.5222 17.3015 17.201 17.4719C16.9584 17.5965 13.0506 17.6096 12.7818 17.485C12.4342 17.3277 12.4211 17.2228 12.4211 14.9935C12.4277 12.8036 12.4342 12.7183 12.7555 12.5413C12.9916 12.4102 16.9452 12.4102 17.201 12.5413Z" fill="white"/>
<path d="M21.43 11.2759C20.971 11.4529 20.5908 11.7938 20.3744 12.2397L20.1908 12.6134V15.0066C20.1908 17.3015 20.1974 17.4129 20.3285 17.7014C20.5317 18.1342 20.8399 18.4489 21.2595 18.6587L21.6333 18.8423H24.0265C26.3213 18.8423 26.4328 18.8357 26.7213 18.7046C27.1409 18.5079 27.4687 18.1997 27.6589 17.8129L27.8293 17.4719V15.0066V12.5413L27.6589 12.2004C27.4491 11.7807 27.0688 11.4463 26.6032 11.2693C26.2754 11.1447 26.0984 11.1382 24.0068 11.1447C21.9414 11.1447 21.7382 11.1578 21.43 11.2759ZM26.2492 12.5413C26.5705 12.7118 26.5836 12.8232 26.5836 15.0066C26.5836 17.19 26.5705 17.3015 26.2492 17.4719C26.0066 17.5965 22.0988 17.6096 21.83 17.485C21.4825 17.3277 21.4694 17.2228 21.4694 14.9935C21.4759 12.8036 21.4825 12.7183 21.8037 12.5413C22.0398 12.4102 25.9935 12.4102 26.2492 12.5413Z" fill="white"/>
<path d="M12.5525 20.2449C12.0017 20.4219 11.569 20.7825 11.3002 21.3005C11.1428 21.5955 11.1428 21.5955 11.1428 24.0543C11.1428 26.5131 11.1428 26.5131 11.3002 26.8081C11.51 27.2081 11.805 27.5097 12.1722 27.6998L12.4804 27.8572H14.9785H17.4766L17.7848 27.6998C18.1519 27.5097 18.447 27.2081 18.6568 26.8081C18.8142 26.5131 18.8142 26.5131 18.8142 24.0543V21.5955L18.6371 21.2677C18.4339 20.8743 18.1323 20.5858 17.7323 20.376C17.4372 20.2186 17.4176 20.2186 15.0768 20.2055C13.7786 20.199 12.6443 20.2186 12.5525 20.2449ZM17.2012 21.589C17.5225 21.7595 17.5356 21.8709 17.5356 24.0543C17.5356 26.2377 17.5225 26.3491 17.2012 26.5196C16.9586 26.6442 13.0508 26.6573 12.782 26.5327C12.4345 26.3754 12.4214 26.2705 12.4214 24.0412C12.4279 21.8512 12.4345 21.766 12.7558 21.589C12.9918 21.4578 16.9455 21.4578 17.2012 21.589Z" fill="white"/>
<path d="M21.4889 20.3041C20.8332 20.5336 20.3677 21.0516 20.2234 21.7204C20.171 21.9433 20.1579 22.7957 20.171 24.2512C20.1907 26.3232 20.1972 26.4674 20.3284 26.7493C20.5251 27.169 20.8332 27.4968 21.2201 27.6869L21.561 27.8574H24.0263H26.4916L26.8326 27.6869C27.2129 27.4968 27.5276 27.169 27.7046 26.7821C27.8161 26.533 27.8292 26.3035 27.8292 24.048V21.5892L27.6587 21.2483C27.4686 20.8614 27.1408 20.5533 26.7211 20.3566C26.4326 20.2254 26.3015 20.2189 24.1247 20.2058C22.0528 20.1861 21.797 20.1992 21.4889 20.3041ZM26.249 21.5892C26.5703 21.7597 26.5834 21.8712 26.5834 24.0545C26.5834 26.2379 26.5703 26.3494 26.249 26.5199C26.0064 26.6444 22.0987 26.6575 21.8298 26.533C21.4823 26.3756 21.4692 26.2707 21.4692 24.0414C21.4758 21.8515 21.4823 21.7663 21.8036 21.5892C22.0396 21.4581 25.9933 21.4581 26.249 21.5892Z" fill="white"/>
</svg>
