<svg width="19" height="19" viewBox="0 0 19 19" fill="none" xmlns="http://www.w3.org/2000/svg">
<path d="M11.7101 19C12.5363 18.9961 13.3534 18.8278 14.114 18.505C14.8745 18.1823 15.5633 17.7115 16.1401 17.12C16.7127 16.5774 17.1726 15.9272 17.4935 15.2066C17.8145 14.486 17.9902 13.7092 18.0107 12.9207C18.0311 12.1321 17.8959 11.3472 17.6126 10.611C17.3294 9.87476 16.9038 9.2016 16.3601 8.63003L9.00013 1.20003C8.60708 0.807711 8.13861 0.499109 7.62299 0.292862C7.10738 0.0866152 6.55531 -0.0129992 6.00013 3.33735e-05C5.40542 0.00205852 4.81706 0.122472 4.26937 0.354253C3.72168 0.586033 3.22563 0.92454 2.81013 1.35003C1.98313 2.14627 1.50355 3.23655 1.47546 4.38421C1.44738 5.53187 1.87307 6.6443 2.66013 7.48003L10.0601 14.91C10.2971 15.1487 10.5792 15.3378 10.8899 15.4666C11.2006 15.5953 11.5338 15.6611 11.8701 15.66C12.2335 15.6605 12.5932 15.5882 12.9281 15.4474C13.263 15.3065 13.5663 15.1 13.8201 14.84C14.3274 14.3489 14.6204 13.6774 14.6353 12.9715C14.6503 12.2656 14.3861 11.5823 13.9001 11.07L7.07013 4.21003C6.87574 4.08094 6.64234 4.02388 6.41032 4.04875C6.1783 4.07362 5.96229 4.17884 5.79968 4.34619C5.63707 4.51355 5.53811 4.7325 5.51993 4.96514C5.50174 5.19778 5.56549 5.42945 5.70013 5.62003L12.5301 12.48C12.644 12.6172 12.6995 12.7937 12.6845 12.9714C12.6695 13.1491 12.5854 13.3138 12.4501 13.43C12.3094 13.5717 12.1197 13.654 11.9201 13.66C11.8462 13.6611 11.7728 13.6475 11.7041 13.62C11.6355 13.5926 11.5729 13.5518 11.5201 13.5L4.13013 6.07003C3.71531 5.60921 3.49851 5.00367 3.52658 4.38428C3.55465 3.7649 3.82534 3.18144 4.28013 2.76003C4.70254 2.32147 5.27698 2.06149 5.88524 2.03359C6.49351 2.00569 7.08934 2.21199 7.55013 2.61003L14.9401 10C15.2995 10.386 15.579 10.8392 15.7625 11.3336C15.946 11.828 16.03 12.3538 16.0095 12.8808C15.9891 13.4078 15.8646 13.9255 15.6434 14.4042C15.4221 14.8829 15.1083 15.3131 14.7201 15.67C14.3308 16.0736 13.8651 16.3955 13.35 16.617C12.8349 16.8385 12.2808 16.9551 11.7201 16.96C11.2367 16.964 10.7573 16.8723 10.3094 16.6904C9.86147 16.5085 9.45391 16.2399 9.11013 15.9L1.72013 8.47003C1.62754 8.37679 1.5175 8.3027 1.39629 8.25199C1.27507 8.20128 1.14506 8.17494 1.01366 8.17448C0.882267 8.17401 0.752068 8.19943 0.630497 8.24929C0.508926 8.29914 0.398365 8.37245 0.305126 8.46503C0.211887 8.55762 0.137796 8.66765 0.0870857 8.78887C0.036375 8.91009 0.0100327 9.0401 0.00956917 9.1715C0.00910568 9.30289 0.0345249 9.43309 0.0843792 9.55466C0.134233 9.67623 0.207542 9.78679 0.300125 9.88003L7.69013 17.31C8.21482 17.844 8.8404 18.2684 9.53051 18.5585C10.2206 18.8486 10.9615 18.9987 11.7101 19Z" fill="#8594A1"/>
</svg>
