<svg width="19" height="19" viewBox="0 0 19 19" fill="none" xmlns="http://www.w3.org/2000/svg">
<path d="M11.7099 19C12.5361 18.9961 13.3532 18.8278 14.1137 18.505C14.8743 18.1823 15.563 17.7115 16.1399 17.12C16.7124 16.5774 17.1723 15.9272 17.4933 15.2066C17.8143 14.486 17.99 13.7092 18.0104 12.9207C18.0309 12.1321 17.8956 11.3472 17.6124 10.611C17.3292 9.87476 16.9035 9.2016 16.3599 8.63003L8.99988 1.20003C8.60684 0.807711 8.13837 0.499109 7.62275 0.292862C7.10713 0.0866152 6.55507 -0.0129992 5.99988 3.33735e-05C5.40517 0.00205852 4.81682 0.122472 4.26913 0.354253C3.72144 0.586033 3.22538 0.92454 2.80988 1.35003C1.98289 2.14627 1.5033 3.23655 1.47522 4.38421C1.44713 5.53187 1.87282 6.6443 2.65988 7.48003L10.0599 14.91C10.2969 15.1487 10.5789 15.3378 10.8897 15.4666C11.2004 15.5953 11.5336 15.6611 11.8699 15.66C12.2332 15.6605 12.5929 15.5882 12.9279 15.4474C13.2628 15.3065 13.5661 15.1 13.8199 14.84C14.3272 14.3489 14.6201 13.6774 14.6351 12.9715C14.6501 12.2656 14.3859 11.5823 13.8999 11.07L7.06988 4.21003C6.8755 4.08094 6.64209 4.02388 6.41008 4.04875C6.17806 4.07362 5.96204 4.17884 5.79943 4.34619C5.63683 4.51355 5.53786 4.7325 5.51968 4.96514C5.5015 5.19778 5.56525 5.42945 5.69988 5.62003L12.5299 12.48C12.6438 12.6172 12.6992 12.7937 12.6842 12.9714C12.6693 13.1491 12.5851 13.3138 12.4499 13.43C12.3092 13.5717 12.1195 13.654 11.9199 13.66C11.8459 13.6611 11.7725 13.6475 11.7039 13.62C11.6352 13.5926 11.5727 13.5518 11.5199 13.5L4.12988 6.07003C3.71507 5.60921 3.49827 5.00367 3.52634 4.38428C3.55441 3.7649 3.82509 3.18144 4.27988 2.76003C4.70229 2.32147 5.27673 2.06149 5.885 2.03359C6.49327 2.00569 7.08909 2.21199 7.54988 2.61003L14.9399 10C15.2992 10.386 15.5787 10.8392 15.7623 11.3336C15.9458 11.828 16.0297 12.3538 16.0093 12.8808C15.9889 13.4078 15.8644 13.9255 15.6431 14.4042C15.4218 14.8829 15.1081 15.3131 14.7199 15.67C14.3306 16.0736 13.8648 16.3955 13.3497 16.617C12.8346 16.8385 12.2806 16.9551 11.7199 16.96C11.2365 16.964 10.757 16.8723 10.3091 16.6904C9.86122 16.5085 9.45367 16.2399 9.10988 15.9L1.71988 8.47003C1.6273 8.37679 1.51726 8.3027 1.39604 8.25199C1.27483 8.20128 1.14481 8.17494 1.01342 8.17448C0.882023 8.17401 0.751823 8.19943 0.630253 8.24929C0.508682 8.29914 0.398121 8.37245 0.304882 8.46503C0.211643 8.55762 0.137552 8.66765 0.0868416 8.78887C0.0361309 8.91009 0.00978851 9.0401 0.00932503 9.1715C0.00886154 9.30289 0.0342808 9.43309 0.0841351 9.55466C0.133989 9.67623 0.207298 9.78679 0.299881 9.88003L7.68988 17.31C8.21457 17.844 8.84015 18.2684 9.53026 18.5585C10.2204 18.8486 10.9613 18.9987 11.7099 19Z" fill="#4CBC79"/>
</svg>
