<svg width="24" height="24" viewBox="0 0 24 24" fill="none" xmlns="http://www.w3.org/2000/svg">
<path d="M14.71 20.9999C15.5362 20.9959 16.3533 20.8277 17.1139 20.5049C17.8744 20.1822 18.5631 19.7114 19.14 19.1199C19.7125 18.5773 20.1725 17.9271 20.4934 17.2065C20.8144 16.4859 20.9901 15.7091 21.0106 14.9205C21.031 14.132 20.8957 13.3471 20.6125 12.6109C20.3293 11.8746 19.9037 11.2015 19.36 10.6299L12 3.19991C11.607 2.80759 11.1385 2.49899 10.6229 2.29274C10.1073 2.08649 9.55519 1.98688 9 1.99991C8.40529 2.00194 7.81694 2.12235 7.26925 2.35413C6.72156 2.58591 6.2255 2.92442 5.81 3.34991C4.98301 4.14615 4.50342 5.23643 4.47534 6.38409C4.44726 7.53175 4.87294 8.64418 5.66 9.47991L13.06 16.9099C13.297 17.1485 13.5791 17.3377 13.8898 17.4665C14.2005 17.5952 14.5337 17.661 14.87 17.6599C15.2333 17.6604 15.5931 17.5881 15.928 17.4472C16.2629 17.3064 16.5662 17.0999 16.82 16.8399C17.3273 16.3488 17.6202 15.6773 17.6352 14.9714C17.6502 14.2654 17.386 13.5821 16.9 13.0699L10.07 6.20991C9.87562 6.08082 9.64221 6.02376 9.4102 6.04863C9.17818 6.07349 8.96217 6.17872 8.79956 6.34607C8.63695 6.51343 8.53798 6.73238 8.5198 6.96502C8.50162 7.19765 8.56537 7.42932 8.7 7.61991L15.53 14.4799C15.6439 14.6171 15.6993 14.7936 15.6844 14.9713C15.6694 15.149 15.5852 15.3137 15.45 15.4299C15.3093 15.5716 15.1196 15.6539 14.92 15.6599C14.8461 15.661 14.7727 15.6474 14.704 15.6199C14.6353 15.5925 14.5728 15.5517 14.52 15.4999L7.13 8.06991C6.71519 7.60909 6.49839 7.00354 6.52646 6.38416C6.55453 5.76478 6.82521 5.18132 7.28 4.75991C7.70242 4.32135 8.27685 4.06137 8.88512 4.03347C9.49339 4.00557 10.0892 4.21186 10.55 4.60991L17.94 11.9999C18.2994 12.3859 18.5788 12.8391 18.7624 13.3335C18.9459 13.8279 19.0299 14.3537 19.0094 14.8807C18.989 15.4076 18.8645 15.9254 18.6432 16.404C18.4219 16.8827 18.1082 17.3129 17.72 17.6699C17.3307 18.0735 16.8649 18.3954 16.3498 18.6169C15.8347 18.8383 15.2807 18.955 14.72 18.9599C14.2366 18.9638 13.7572 18.8722 13.3092 18.6903C12.8613 18.5084 12.4538 18.2398 12.11 17.8999L4.72 10.4699C4.62742 10.3767 4.51738 10.3026 4.39617 10.2519C4.27495 10.2012 4.14494 10.1748 4.01354 10.1744C3.88214 10.1739 3.75195 10.1993 3.63037 10.2492C3.5088 10.299 3.39824 10.3723 3.305 10.4649C3.21177 10.5575 3.13767 10.6675 3.08696 10.7887C3.03625 10.91 3.00991 11.04 3.00945 11.1714C3.00898 11.3028 3.0344 11.433 3.08426 11.5545C3.13411 11.6761 3.20742 11.7867 3.3 11.8799L10.69 19.3099C11.2147 19.8439 11.8403 20.2683 12.5304 20.5584C13.2205 20.8485 13.9614 20.9986 14.71 20.9999Z" fill="#6E52EA"/>
</svg>
