<svg width="47" height="70" viewBox="0 0 47 70" fill="none" xmlns="http://www.w3.org/2000/svg">
<path d="M21.4077 0.177772C14.4628 0.98436 8.10579 4.93528 4.18221 10.8958C-0.889722 18.5926 -1.01276 28.6271 3.86778 36.5016C4.90678 38.1831 5.87742 39.3725 7.92806 41.5325C10.3205 44.0343 11.6192 46.0166 12.6446 48.6961L13.041 49.7214L13.1094 57.1995L13.1777 64.6775L13.4922 64.9919C13.7382 65.2517 13.9843 65.3064 14.955 65.3747L16.1307 65.4431L17.32 67.0152C18.5368 68.6147 19.439 69.435 20.3277 69.7494C20.6284 69.8588 21.7904 69.9545 23.2396 69.9818C27.1905 70.0912 27.9014 69.7768 29.9247 67.0699L31.1551 65.4021L32.3171 65.361C33.3014 65.32 33.5202 65.2654 33.7799 64.9919L34.0943 64.6775L34.1627 57.1995C34.2447 48.8602 34.19 49.366 35.27 47.0966C36.104 45.3467 37.2797 43.7199 39.0842 41.7923C41.2989 39.4409 41.9688 38.6206 42.9942 37.0758C48.2301 29.0782 48.3122 19.0574 43.1992 10.9642C42.0235 9.10493 39.8772 6.69883 38.1273 5.30439C33.2741 1.42183 27.0674 -0.492107 21.4077 0.177772ZM26.8487 2.7069C32.8503 3.75957 38.4964 7.66947 41.6271 12.9738C43.6504 16.3916 44.58 19.782 44.5937 23.7466C44.5937 27.4514 43.8828 30.5 42.2833 33.699C41.2716 35.695 40.1506 37.1988 37.8402 39.6186C35.0376 42.5578 33.1647 45.4561 32.3034 48.1903L32.0574 48.9695H30.1708H28.2842V40.2201V31.4707H29.9247C32.0027 31.4707 32.8093 31.2109 33.8209 30.1856C34.7916 29.215 35.1743 28.3674 35.229 27.0959C35.4751 22.0514 28.708 20.3425 26.4796 24.8812C26.0695 25.7015 26.0421 25.8929 25.9874 27.4514L25.9328 29.1466H23.636H21.3393L21.2846 27.4514C21.2299 25.8929 21.2026 25.7015 20.7925 24.8812C19.7945 22.8579 17.6618 21.8326 15.5428 22.3658C13.3281 22.9263 11.9337 24.8129 12.043 27.0959C12.0977 28.3674 12.4805 29.215 13.4511 30.1856C14.4628 31.2109 15.2694 31.4707 17.3474 31.4707H18.9879V40.2201V48.9695H17.1013H15.2147L14.9686 48.1903C14.1074 45.4561 12.2344 42.5578 9.43187 39.6186C7.68199 37.7867 7.06679 37.0484 6.17818 35.7087C2.62372 30.4043 1.68042 23.3774 3.69006 17.3212C6.42426 9.10493 13.4238 3.49982 22.2689 2.43349C23.0892 2.33779 25.5636 2.4745 26.8487 2.7069ZM17.4431 24.7035C18.6188 25.1957 18.9742 25.9339 18.9879 27.8068V29.1466H17.5524C15.8709 29.1466 15.3651 28.9825 14.8319 28.2853C14.1347 27.3694 14.1894 26.18 14.9823 25.3051C15.6795 24.5395 16.5271 24.3207 17.4431 24.7035ZM31.3191 24.6352C31.6062 24.7172 32.0163 25.0043 32.2898 25.3187C33.0827 26.18 33.1374 27.3694 32.4401 28.2853C31.907 28.9825 31.4012 29.1466 29.7196 29.1466H28.2842V27.8479C28.2842 25.9886 28.6259 25.264 29.7196 24.7582C30.3485 24.4711 30.6219 24.4438 31.3191 24.6352ZM25.9601 40.2201V48.9695H23.636H21.312V40.2201V31.4707H23.636H25.9601V40.2201ZM31.7703 52.524V53.686L29.788 53.727C27.9834 53.7544 27.792 53.7817 27.5049 54.0551C27.2999 54.2465 27.1905 54.5063 27.1905 54.807C27.1905 55.8734 27.669 56.0784 30.1708 56.0784H31.8523L31.8113 57.1995L31.7703 58.3342L27.9697 58.4025C24.1692 58.4709 24.1555 58.4709 23.8958 58.799C23.5403 59.2364 23.5677 59.8106 23.9641 60.2754L24.2922 60.6582L28.0654 60.6992L31.8386 60.7403V61.8886V63.0507H23.636H15.4334V61.8886V60.7266H17.197C19.6304 60.7266 20.0816 60.5352 20.0816 59.4552C20.0816 59.1544 19.9722 58.8947 19.7671 58.7033C19.4801 58.4299 19.2887 58.4025 17.4841 58.3752L15.5018 58.3342L15.4608 57.2131L15.4198 56.0921L19.193 56.0511L22.9798 56.0101L23.3079 55.6273C23.7044 55.1625 23.7317 54.5883 23.3489 54.1235L23.0755 53.7544L19.2887 53.727L15.5018 53.686L15.4608 52.6744C15.4334 52.1139 15.4471 51.5807 15.4881 51.4713C15.5565 51.3209 16.9646 51.2936 23.6634 51.3209L31.7703 51.362V52.524ZM27.6416 66.2223C26.6026 67.5621 26.2335 67.6988 23.636 67.6988C21.0385 67.6988 20.6694 67.5621 19.6304 66.2223L18.9606 65.3747H23.636H28.3115L27.6416 66.2223Z" fill="#6E52EA"/>
</svg>
