<svg width="70" height="62" viewBox="0 0 70 62" fill="none" xmlns="http://www.w3.org/2000/svg">
<path d="M17.9846 0.841701C13.6826 1.38113 10.0819 3.14778 7.03413 6.22255C4.2965 8.97366 2.65123 11.8866 1.70722 15.6761C0.0349739 22.2437 1.2487 28.7169 5.26748 34.7991C7.84328 38.6965 11.1743 42.2702 17.2834 47.7185C21.1673 51.1844 33.0213 61.2987 33.6012 61.6359C34.1407 61.9595 34.343 62 35.4893 62C36.6356 62 36.8378 61.9595 37.3773 61.6359C37.9572 61.2987 49.8382 51.1709 53.6951 47.7185C59.8312 42.2432 63.1352 38.683 65.711 34.7991C69.7298 28.7169 70.9435 22.2437 69.2713 15.6761C68.3273 11.8866 66.682 8.97366 63.9444 6.22255C61.2202 3.48493 58.3073 1.90708 54.4908 1.09793C52.5758 0.693356 49.0425 0.652899 47.3703 1.0305C42.7042 2.04194 39.1304 4.37499 35.8669 8.52863L35.4893 9.00064L35.1251 8.52863C31.902 4.45591 28.3822 2.12286 23.8914 1.09793C22.5563 0.787757 19.4816 0.652899 17.9846 0.841701ZM22.4889 4.95488C26.3189 5.62917 29.6229 7.84085 32.2392 11.4955C32.6842 12.1294 33.2371 12.8846 33.4529 13.1947C34.4508 14.5973 36.5277 14.5973 37.5256 13.1947C37.7414 12.8846 38.2943 12.1294 38.7393 11.4955C42.3131 6.50575 47.2894 4.15922 52.7107 4.90094C58.7254 5.72358 63.4184 9.93116 65.2121 16.1212C66.6281 21.0165 66.0077 26.1546 63.4319 30.7803C61.2742 34.6507 57.6735 38.7099 51.4026 44.3335C48.3682 47.0442 35.6106 58.0217 35.4893 58.0217C35.3544 58.0217 22.6507 47.0847 19.576 44.3335C9.93358 35.6891 6.13058 30.2948 5.21354 23.9699C4.62016 19.8837 5.46977 15.4873 7.5331 12.0215C10.6348 6.80244 16.6765 3.94344 22.4889 4.95488Z" fill="#6E52EA"/>
</svg>
