<svg width="72" height="72" viewBox="0 0 72 72" fill="none" xmlns="http://www.w3.org/2000/svg">
<path d="M30.8461 0.320113C30.4008 0.570624 29.6353 1.67008 26.3648 6.68029L22.4262 12.7343L12.2249 12.8039C0.757098 12.8874 1.38337 12.8178 0.826684 13.9172C0.562257 14.4322 0.54834 14.7244 0.54834 19.0666C0.54834 23.4088 0.562257 23.7011 0.826684 24.216C1.17462 24.8979 1.95398 25.3294 2.84468 25.3294C3.19261 25.3294 3.47096 25.3711 3.47096 25.4268C3.47096 25.4964 4.0694 35.4333 4.79309 47.5274C6.26832 72.1052 6.10131 70.3934 7.21469 70.9779C7.77138 71.2562 7.88272 71.2562 35.0631 71.2562C59.4739 71.2562 62.4661 71.2284 63.4264 71.0335C68.033 70.0872 71.401 66.246 71.7628 61.542C71.8324 60.6095 71.8046 60.3869 71.5401 59.8719C71.1644 59.1343 70.4267 58.7307 69.4386 58.7307H68.7149L68.8402 58.1323C69.035 57.1442 68.9654 55.5158 68.701 54.7086C68.5618 54.2911 68.2278 53.6231 67.9634 53.2056L67.4902 52.468L67.9634 51.7304C68.2278 51.3128 68.5618 50.6448 68.701 50.2273C68.9654 49.4201 69.035 47.7918 68.8402 46.8037L68.7149 46.2052H69.4386C70.4267 46.2052 71.1644 45.8016 71.5401 45.064C71.8046 44.5351 71.8324 44.3264 71.7628 43.213C71.387 37.6183 67.4206 32.8308 61.8537 31.2859C60.7682 30.9798 60.5316 30.9798 51.9864 30.9241L43.2325 30.8823L43.3299 29.254C43.3856 28.3633 43.4552 27.1108 43.5108 26.4706L43.5943 25.3294H44.2067C45.0696 25.3294 45.8489 24.884 46.1969 24.216C46.4613 23.7011 46.4752 23.4088 46.4752 19.0666C46.4752 14.7244 46.4613 14.4322 46.1969 13.9172C45.6402 12.8317 46.0994 12.8874 36.2182 12.8039L27.4086 12.7343L30.1781 8.48953L32.9476 4.24477L36.8862 4.17519C40.3238 4.11952 40.8944 4.07777 41.2841 3.85509C41.8129 3.57674 42.3 2.71388 42.3 2.0876C42.3 1.39174 41.8129 0.598458 41.1866 0.278362C40.6717 0.0139344 40.3794 1.71661e-05 36.0094 1.71661e-05C31.4724 1.71661e-05 31.3611 0.0139344 30.8461 0.320113ZM42.3 19.0666V21.1542H23.5118H4.72351V19.0666V16.979H23.5118H42.3V19.0666ZM39.3217 26.401C39.28 26.9994 39.1965 28.252 39.1547 29.1705L39.0573 30.8684L36.6079 30.938C34.6873 30.9937 33.9219 31.0633 33.0451 31.3138C27.4782 32.8308 23.5118 37.5905 23.136 43.213C23.0664 44.3264 23.0943 44.5351 23.3587 45.064C23.7344 45.8016 24.4721 46.2052 25.4602 46.2052H26.1839L26.0586 46.7897C25.8638 47.7918 25.9334 49.4201 26.1978 50.2273C26.337 50.6448 26.671 51.3128 26.9354 51.7304L27.4086 52.468L26.9354 53.2056C26.671 53.6231 26.337 54.2911 26.1978 54.7086C25.9334 55.5158 25.8638 57.1442 26.0586 58.1323L26.1839 58.7307H25.4602C24.4721 58.7307 23.7344 59.1343 23.3587 59.8719C23.0943 60.3869 23.0664 60.6095 23.1499 61.5838C23.2891 63.3512 23.804 64.9378 24.6947 66.3295L25.1818 67.0811H17.6665C11.7517 67.0811 10.1512 67.0393 10.1512 66.9001C10.1512 66.8166 9.98422 64.1167 9.78938 60.9157C9.59454 57.7008 9.45537 55.0705 9.4832 55.0427C9.51104 55.0148 9.9703 54.9174 10.4992 54.8339C12.712 54.486 14.3264 53.6648 16.0243 52.0644C18.098 50.102 19.1 47.9727 19.2948 45.0918C19.4758 42.1553 18.4598 39.4693 16.3026 37.2564C14.3542 35.2663 11.6682 34.0972 9.05177 34.0972H8.21673L8.14715 33.4988C8.1054 33.1787 8.00797 31.6895 7.92447 30.2004C7.84097 28.7113 7.74355 26.9994 7.68788 26.401L7.60438 25.3294H23.5118H39.4192L39.3217 26.401ZM60.462 35.2802C63.0228 35.809 65.4861 37.7435 66.6273 40.0816C66.9474 40.7357 67.2397 41.4316 67.2954 41.6404L67.3789 42.03H47.4494H27.5199L27.6034 41.6404C27.6591 41.4316 27.9514 40.7357 28.2715 40.0816C29.3848 37.7853 31.876 35.823 34.3672 35.2941C35.745 34.9879 59.0564 34.9879 60.462 35.2802ZM10.1791 38.4255C11.3899 38.676 12.378 39.2327 13.2826 40.1373C16.8037 43.6723 15.0223 49.5871 10.1095 50.6587C9.67804 50.7561 9.28836 50.8118 9.24661 50.7701C9.17702 50.7144 8.48116 39.7894 8.48116 38.8152C8.48116 38.2863 8.49508 38.2724 8.96826 38.2724C9.21877 38.2724 9.77546 38.342 10.1791 38.4255ZM63.7326 46.4836C64.3588 46.8037 64.8459 47.5969 64.8459 48.2928C64.8459 48.9887 64.3588 49.7819 63.7326 50.102C63.1898 50.3804 62.9532 50.3804 47.4494 50.3804C31.9456 50.3804 31.709 50.3804 31.1662 50.102C30.54 49.7819 30.0529 48.9887 30.0529 48.2928C30.0529 47.6248 30.54 46.8037 31.1384 46.4975C31.6394 46.2191 32.0013 46.2191 47.4216 46.2052C62.9532 46.2052 63.1898 46.2052 63.7326 46.4836ZM63.7326 54.8339C64.3588 55.154 64.8459 55.9473 64.8459 56.6571C64.8459 57.2972 64.3032 58.1601 63.7047 58.4663C63.2037 58.7168 62.6331 58.7307 47.4494 58.7307C31.9456 58.7307 31.709 58.7307 31.1662 58.4524C29.7467 57.7287 29.7189 55.7246 31.1106 54.8896L31.6533 54.5556H47.4216C62.9532 54.5556 63.1898 54.5556 63.7326 54.8339ZM67.1423 63.2121C66.8222 64.2559 65.4305 65.7728 64.2336 66.3713C62.7584 67.095 63.2176 67.0811 47.4494 67.0811C31.6812 67.0811 32.1404 67.095 30.6652 66.3713C29.4683 65.7728 28.0766 64.2559 27.7565 63.2121L27.673 62.9059H47.4494H67.2258L67.1423 63.2121Z" fill="#6E52EA"/>
</svg>
