<svg width="68" height="68" viewBox="0 0 68 68" fill="none" xmlns="http://www.w3.org/2000/svg">
<path d="M31.3197 0.399758C26.3083 0.875774 22.5795 1.93359 18.3615 4.07566C13.3633 6.62763 8.88085 10.6473 5.60163 15.5133C5.04628 16.3463 4.09425 18.0388 3.48601 19.2817C1.2646 23.7774 0.206786 28.0219 0.0216684 33.0333C-0.176671 38.6661 0.986923 44.0345 3.49923 49.0856C5.25784 52.6425 7.08257 55.1548 9.95189 58.0373C12.8741 60.9463 15.3996 62.7578 18.9565 64.5032C21.4424 65.7197 23.0423 66.3147 25.5678 66.9494C32.1792 68.6155 38.8169 68.2981 45.2696 66.0106C47.253 65.3098 50.6645 63.5908 52.4098 62.4273C56.4031 59.7563 59.9864 56.0804 62.5781 52.0078C63.5301 50.5136 65.0639 47.3402 65.6854 45.5816C68.7927 36.8282 68.2506 27.4401 64.1648 19.2288C62.5252 15.9232 60.6872 13.3183 58.1088 10.6605C55.2792 7.72511 52.4231 5.64915 48.7075 3.8112C44.7936 1.8807 41.1441 0.836106 36.8071 0.439426C35.4584 0.320422 32.404 0.293977 31.3197 0.399758ZM38.5261 4.92191C46.8299 6.32351 53.8379 10.8457 58.5055 17.8404C60.8723 21.3709 62.4194 25.417 63.1466 29.8598C63.464 31.8829 63.464 36.4315 63.1466 38.4546C61.7186 47.2873 56.8791 54.6127 49.3686 59.3464C46.1555 61.3694 42.2681 62.7975 38.1294 63.4718C36.0931 63.7892 31.5577 63.7892 29.5346 63.4586C20.8474 62.0438 13.6939 57.4291 8.94696 50.1566C6.72556 46.7584 5.2314 42.7916 4.51737 38.4546C4.20003 36.4315 4.20003 31.8829 4.51737 29.8598C5.58841 23.2882 8.36517 17.8008 12.927 13.2654C17.978 8.22757 24.3249 5.2657 31.4519 4.61779C32.88 4.48556 36.979 4.67068 38.5261 4.92191Z" fill="#6E52EA"/>
<path d="M18.5202 21.8337C17.2772 22.2833 16.1665 23.4601 15.836 24.6766C15.5847 25.589 15.7434 26.9906 16.193 27.7972C16.9731 29.2384 18.216 29.9789 19.8821 29.9789C21.2176 29.9921 22.0638 29.6351 22.9233 28.7227C23.7828 27.7972 24.0869 27.0435 24.1001 25.827C24.1001 24.6237 23.8092 23.8832 22.9762 22.9841C21.8258 21.7412 20.0672 21.2916 18.5202 21.8337Z" fill="#6E52EA"/>
<path d="M46.6578 21.7145C45.4678 22.1112 44.3571 23.0764 43.8546 24.1739C43.458 25.0731 43.458 26.554 43.8546 27.4399C44.2381 28.3126 45.2034 29.3043 46.0364 29.6745C47.0677 30.1373 48.5751 30.1241 49.5933 29.6217C50.5321 29.1589 51.3122 28.2862 51.6957 27.2945C52.0527 26.3292 51.9998 24.8483 51.5635 24.002C50.8098 22.5475 49.5404 21.7145 47.9404 21.6484C47.4115 21.6219 46.843 21.6484 46.6578 21.7145Z" fill="#6E52EA"/>
<path d="M16.9732 41.4826C16.1005 41.866 15.5848 42.8842 15.7699 43.8626C15.955 44.8411 18.3087 47.9352 20.0144 49.4426C22.0375 51.2277 24.8142 52.8541 27.2208 53.6474C29.5083 54.4011 30.7644 54.573 33.8321 54.573C36.2783 54.573 36.8601 54.5333 38.0104 54.2821C40.0335 53.8458 41.2632 53.4094 43.1541 52.4706C46.5258 50.7913 49.2497 48.3319 51.2596 45.132C51.8149 44.2461 51.881 44.061 51.881 43.3866C51.881 42.1305 51.1141 41.3636 49.8315 41.3636C48.8398 41.3636 48.5225 41.5883 47.6365 42.9371C44.4234 47.7898 39.5839 50.4211 33.8321 50.4211C31.1082 50.4211 28.8075 49.8922 26.52 48.755C23.8358 47.4063 21.892 45.7006 20.1731 43.1354C19.7235 42.461 19.1946 41.7999 18.9963 41.6545C18.5599 41.3239 17.5021 41.2313 16.9732 41.4826Z" fill="#6E52EA"/>
</svg>
