<svg width="69" height="68" viewBox="0 0 69 68" fill="none" xmlns="http://www.w3.org/2000/svg">
<path d="M31.5336 0.554613C31.2581 0.583616 30.3445 0.714129 29.5034 0.844642C19.1494 2.39629 10.0425 8.76242 4.95251 17.9853C0.7616 25.5696 -0.311505 34.5459 1.96522 43.1018C4.03892 50.9325 9.24493 58.0672 16.1621 62.5772C24.2394 67.8412 34.4339 69.3783 43.7003 66.7246C56.6935 63.0122 66.076 52.2957 68.0192 38.9689C68.3817 36.5326 68.3817 31.8922 68.0192 29.5429C66.54 19.7835 61.305 11.4742 53.2422 6.12316C49.2108 3.44039 44.9764 1.75823 40.0169 0.888146C38.6973 0.656123 37.5227 0.569115 35.1589 0.540112C33.4478 0.511109 31.8091 0.525611 31.5336 0.554613ZM37.7402 2.93285C41.4526 3.33888 45.2954 4.42649 48.2102 5.90563L48.8918 6.25367L48.9933 7.96484C49.5879 18.4639 50.777 27.8898 51.9951 31.8632L52.4446 33.2988L51.8066 33.8499C50.777 34.7489 48.0507 36.8662 47.9202 36.8662C47.8477 36.8662 47.2821 35.8656 46.6441 34.6474C42.8157 27.2517 37.7692 20.32 31.8526 14.331C28.9958 11.4307 27.1687 9.77751 24.1669 7.37028L21.7886 5.48509L22.4267 5.20957C23.5868 4.70202 26.3711 3.81743 27.7632 3.5129C30.7505 2.84584 34.7674 2.61381 37.7402 2.93285ZM21.0491 7.87783C29.4164 14.1714 36.6381 22.1907 42.1486 31.3556C43.3087 33.2698 45.6435 37.6057 45.803 38.0988C45.8755 38.3308 45.7595 38.4758 45.2664 38.7658C44.9329 38.9834 44.0048 39.5489 43.2217 40.042L41.7861 40.9266L41.3075 40.2305C39.5964 37.6782 34.4484 34.7054 29.1409 33.1828C28.0823 32.8783 13.8129 29.8185 6.08362 28.2233C3.63288 27.7303 3.79239 27.8173 3.92291 27.1067C4.08242 26.1351 4.96701 23.4669 5.67758 21.7992C8.14282 16.0131 12.5803 10.8651 18.0183 7.50079C18.7143 7.06575 19.3234 6.70321 19.3814 6.70321C19.4249 6.70321 20.179 7.23976 21.0491 7.87783ZM53.7788 9.35697C56.2585 11.2422 59.1733 14.389 60.899 17.0717C61.8851 18.6089 62.8566 20.378 62.8566 20.6536C62.8566 20.9871 60.1594 24.975 58.7382 26.7442C57.1721 28.6874 54.4313 31.5586 54.3008 31.3991C54.1413 31.2396 53.6337 29.0934 53.3002 27.1502C52.6041 23.2348 51.9081 16.7817 51.473 10.4736C51.4295 9.79202 51.357 8.86392 51.3135 8.38538L51.2265 7.52979L51.9226 8.02284C52.3141 8.28387 53.1407 8.87843 53.7788 9.35697ZM65.3944 28.0493C65.9454 30.7611 66.134 33.7919 65.9309 36.4166C65.8439 37.6057 65.7134 38.6788 65.6699 38.8238C65.5829 39.0559 65.4234 39.0704 64.3503 38.9834C62.2041 38.8093 59.9854 38.0553 58.4482 36.9677C57.7086 36.4601 56.331 35.097 55.867 34.4299L55.4319 33.8064L57.0126 32.1822C59.4778 29.63 61.4935 27.1357 63.4367 24.2499L64.0748 23.3073L64.5533 24.7865C64.8143 25.5986 65.1914 27.0632 65.3944 28.0493ZM15.8721 32.6607C28.7783 35.387 30.475 35.8366 33.6363 37.3737C34.5789 37.8378 35.8985 38.5918 36.5946 39.0414C37.8127 39.8679 39.6544 41.6081 39.6544 41.9417C39.6544 42.1302 36.6961 43.5658 33.7958 44.7984C31.4901 45.77 26.2261 47.5392 23.5578 48.2353C21.0346 48.8878 17.2062 49.6709 14.6395 50.0479C11.7247 50.4685 7.88179 50.831 7.73678 50.686C7.50476 50.4395 5.72108 46.9156 5.30054 45.8135C3.70539 41.7966 2.99482 37.5622 3.15433 33.0233C3.24134 30.2535 3.29935 29.9925 3.74889 30.1085C3.90841 30.1375 9.37544 31.2976 15.8721 32.6607ZM54.9679 36.9532C56.186 38.4033 58.6367 39.955 60.6814 40.6075C61.7835 40.9556 62.8421 41.1731 64.2053 41.3036C64.7418 41.3471 65.1769 41.4486 65.1769 41.5211C65.1769 41.8836 64.0748 45.1755 63.5092 46.4951C61.7255 50.657 58.5352 55.1524 55.5914 57.6177L54.9099 58.1977L54.7359 57.3567C53.8803 52.9482 51.8066 46.1616 50.0229 41.8691C49.4863 40.593 49.0223 39.4474 48.9933 39.3314C48.9498 39.1864 49.3848 38.7658 50.2549 38.1133C50.9945 37.5477 52.0531 36.7211 52.6187 36.2426L53.6337 35.387L53.9818 35.7931C54.1703 36.0251 54.6198 36.5471 54.9679 36.9532ZM48.1812 43.5078C50.0374 48.2208 51.473 53.0062 52.4011 57.6612C52.6477 58.8648 52.8217 59.8509 52.8072 59.8654C52.3431 60.2569 49.7909 61.7651 48.5148 62.4031C45.4985 63.8968 42.4387 64.8539 39.0598 65.3904C37.2762 65.666 32.0266 65.724 30.8375 65.4919L30.214 65.3614L32.0701 63.8823C35.3765 61.2575 38.6973 57.6032 40.3505 54.7754C42.3081 51.4401 43.2072 47.4232 42.7142 44.2619C42.5692 43.3773 42.5692 43.1598 42.7287 43.0583C42.8302 43.0003 43.8018 42.4057 44.8749 41.7386C46.4991 40.738 46.8616 40.5785 47.0066 40.738C47.0936 40.854 47.6302 42.1012 48.1812 43.5078ZM40.4375 44.7259C40.597 45.3205 40.5245 47.1042 40.307 48.3658C39.6109 52.3247 37.1601 56.211 32.9112 60.1119C30.852 61.9971 27.2992 64.7089 26.8931 64.7089C26.3711 64.7089 22.7747 63.4472 21.2376 62.7222C17.1482 60.7935 13.3343 57.8497 10.3905 54.3404L9.28843 53.0352L10.0135 52.9482C10.405 52.8902 11.4781 52.7742 12.3917 52.6727C20.9476 51.7736 30.591 49.0183 38.4943 45.2335C39.4079 44.7839 40.2054 44.4214 40.2489 44.4214C40.307 44.4069 40.3795 44.5519 40.4375 44.7259Z" fill="#6E52EA"/>
</svg>
