<svg width="69" height="62" viewBox="0 0 69 62" fill="none" xmlns="http://www.w3.org/2000/svg">
<path d="M14.4993 0.88096C13.1748 1.41862 12.2491 2.27256 11.6652 3.53765C11.5085 3.86974 10.9958 5.94132 10.5258 8.13942C10.0559 10.3375 9.64284 12.251 9.60011 12.3933C9.54314 12.6305 9.15861 12.6621 5.85449 12.7096L2.18008 12.757L1.58192 13.1998C1.14042 13.516 0.86982 13.8956 0.613466 14.5123C0.285902 15.3188 0.257418 15.5244 0.314386 17.2323C0.385595 19.541 0.684675 20.3792 1.79554 21.5177C2.76399 22.4982 3.53306 22.7986 5.15663 22.7986C5.84025 22.7986 6.40992 22.8461 6.40992 22.9093C6.40992 22.9884 5.61238 24.2061 4.62968 25.6451L2.84945 28.2544V40.3043C2.84945 52.1646 2.84945 52.3701 3.13428 52.6864C3.29094 52.8604 3.47609 53.0027 3.56154 53.0027C3.64699 53.0027 3.70396 53.6827 3.70396 54.7422C3.70396 57.984 4.24515 59.4705 5.99691 60.9253C7.20747 61.9532 7.83411 62.0481 12.9612 61.9848L17.4474 61.9374L18.2592 61.4946C19.3558 60.8937 20.3243 59.8025 20.8512 58.5533C21.25 57.6044 21.2785 57.3672 21.3354 55.3431L21.4067 53.1608H34.3953H47.3981L47.4551 55.4222C47.4978 57.5886 47.5121 57.7151 47.9536 58.7114C48.509 59.9607 49.4062 60.9253 50.5314 61.5104L51.3431 61.9374H56.1854H61.0276L61.8394 61.5104C62.9645 60.9253 63.8618 59.9607 64.4172 58.7114C64.8587 57.7151 64.873 57.5886 64.9157 55.4696L64.9726 53.2715L65.4569 52.7655L65.9411 52.2594V40.3043V28.365L64.0754 25.6293L62.2097 22.8777L63.6909 22.7986C64.5739 22.7354 65.3714 22.6089 65.6847 22.4507C66.4965 22.0554 67.5789 20.8378 67.9492 19.9048C68.2483 19.1773 68.291 18.8452 68.291 17.0267C68.291 14.623 68.1059 14.0221 67.0947 13.2314L66.4823 12.757L62.8221 12.7096L59.162 12.6621L58.2647 8.43987C57.7662 6.11527 57.2393 3.9488 57.0826 3.61672C56.6554 2.65209 55.7296 1.65583 54.8466 1.18142L54.0491 0.738637L34.5377 0.70701C18.7292 0.675383 14.9266 0.70701 14.4993 0.88096ZM53.9352 3.52184C54.3482 3.74323 54.6615 4.07531 54.8894 4.50228C55.1172 4.94506 55.7439 7.58594 56.812 12.5514C57.6808 16.6155 58.3929 20.0155 58.3929 20.0945C58.3929 20.221 51.2292 20.2685 34.3098 20.2685C11.4516 20.2685 10.241 20.2527 10.3122 19.9838C10.3549 19.8415 11.0243 16.6946 11.8218 12.9942C13.5594 4.85018 13.5878 4.7553 14.0436 4.13857C14.7984 3.15812 13.5594 3.22138 34.3098 3.20556L53.3228 3.18975L53.9352 3.52184ZM8.9165 15.556C8.87377 15.7616 8.63166 16.9002 8.37531 18.0862L7.91956 20.2685H5.89721H3.86062L3.3764 19.7466C3.12004 19.462 2.8352 18.9243 2.73551 18.5764C2.50764 17.7383 2.50764 15.6509 2.73551 15.3979C2.86369 15.2555 3.77517 15.2081 5.95418 15.2081H9.00195L8.9165 15.556ZM65.9126 15.3979C66.1262 15.6351 66.1405 17.7541 65.9269 18.5764C65.8556 18.8927 65.5566 19.4145 65.286 19.715L64.7875 20.2685H62.8079H60.8283L60.6858 19.6676C60.6004 19.3513 60.3583 18.2127 60.1304 17.1374L59.7174 15.2081H62.7224C64.8872 15.2081 65.7844 15.2555 65.9126 15.3979ZM60.9279 25.1865C61.8252 26.499 62.5088 27.606 62.4661 27.6692C62.4091 27.7167 60.8567 27.9539 58.991 28.1911C56.8832 28.4441 55.4306 28.7129 55.16 28.8553C54.3909 29.2981 53.9352 30.0729 52.0125 34.2319C50.4174 37.6635 50.1326 38.3909 50.2038 38.7704C50.3889 39.735 50.2892 39.7192 57.282 39.7192H63.6624V41.6959V43.6726L54.8039 43.641L45.9597 43.5936L44.8488 39.8774C43.9801 37.0151 43.6383 36.0821 43.3677 35.7974L42.9974 35.4495H34.4238C27.8298 35.4495 25.7647 35.497 25.4941 35.6551C25.195 35.8291 24.9671 36.43 23.9417 39.7667L22.7311 43.6726H13.9296H5.12815V41.6959V39.7192H11.4943C17.8319 39.7192 17.8604 39.7192 18.188 39.3713C18.3874 39.1658 18.5155 38.8495 18.5155 38.5648C18.5155 37.869 14.7984 29.9622 14.1718 29.3455C13.5024 28.6813 13.0609 28.5706 9.68556 28.1753C8.07623 27.9855 6.62355 27.7799 6.45265 27.7325C6.16781 27.6218 6.25326 27.4479 7.77715 25.2023L9.40072 22.7986H34.3668H59.3186L60.9279 25.1865ZM9.11588 30.6422C11.6937 30.9585 12.5197 31.1166 12.6906 31.3064C12.8188 31.4645 13.5024 32.8403 14.2287 34.3742L15.5247 37.189H10.3264H5.12815V33.7101V30.2311H5.45571C5.62662 30.2311 7.27868 30.4208 9.11588 30.6422ZM63.6624 33.7101V37.189H58.4641C55.6015 37.189 53.2658 37.1574 53.2658 37.1258C53.2658 37.0942 53.8782 35.75 54.633 34.1212C55.6584 31.9073 56.0715 31.1641 56.2993 31.1008C56.7693 30.9743 62.3664 30.2627 63.0642 30.2469L63.6624 30.2311V33.7101ZM42.6413 40.6364C43.0828 42.0913 43.4389 43.3247 43.4389 43.4038C43.4389 43.4671 39.3372 43.5145 34.3241 43.5145C29.3109 43.5145 25.2092 43.4987 25.2092 43.4671C25.2092 43.3564 26.7616 38.296 26.8471 38.1379C26.904 38.0272 29.3536 37.9797 34.3953 37.9797H41.8438L42.6413 40.6364ZM12.5339 48.3377V50.4725H8.83105H5.12815V48.3377V46.2028H8.83105H12.5339V48.3377ZM53.9779 48.306V50.4251L49.6768 50.5199C44.1367 50.6623 24.6538 50.6623 19.1137 50.5199L14.8126 50.4251V48.306V46.2028H34.3953H53.9779V48.306ZM63.6624 48.3377V50.4725H59.9595H56.2566V48.3377V46.2028H59.9595H63.6624V48.3377ZM19.0567 55.0901C19.014 56.8138 18.9713 57.1142 18.658 57.7468C18.4586 58.1263 18.0171 58.664 17.6895 58.9328L17.0629 59.4072H12.5339H8.00502L7.37837 58.9328C7.05081 58.664 6.60931 58.1263 6.40992 57.7468C6.0966 57.1142 6.05387 56.8138 6.01115 55.0901L5.95418 53.1608H12.5339H19.1137L19.0567 55.0901ZM62.6655 55.011C62.6655 57.0826 62.4661 57.7942 61.7255 58.5691C60.8852 59.4388 60.6146 59.4863 56.1854 59.4863C51.7562 59.4863 51.4856 59.4388 50.6453 58.5691C49.9047 57.7942 49.7053 57.0826 49.7053 55.011V53.1608H56.1854H62.6655V55.011Z" fill="#6E52EA"/>
</svg>
