<svg width="73" height="72" viewBox="0 0 73 72" fill="none" xmlns="http://www.w3.org/2000/svg">
<path d="M6.6758 0.417675L6.2608 0.746215V9.37471V17.9859L6.72768 19.3692C7.33288 21.133 8.24934 22.6719 9.47704 23.9861L10.4627 25.0409L5.63831 32.2861C2.9927 36.2631 0.762081 39.7214 0.710207 39.9635C0.519999 40.7071 1.1252 41.2431 3.5979 42.5573C4.87748 43.2489 6.84872 44.2864 7.98996 44.8916C13.8864 48.0214 18.6243 51.6008 21.2007 54.8689C23.3622 57.6182 24.1922 59.3301 25.4372 63.7049C25.8867 65.2611 26.4747 66.9903 26.7686 67.5609C27.7024 69.4111 29.3624 70.8809 31.3336 71.5898C32.0425 71.8492 32.8898 71.9184 36.0196 71.9875C38.5615 72.0221 40.1869 71.9875 40.8267 71.8492C42.8844 71.4342 44.8902 70.0682 46.1352 68.2698C46.775 67.3361 46.9133 67.0076 47.605 64.3619C49.1785 58.3791 51.7722 54.2464 56.3026 50.6151C59.2422 48.2462 61.663 46.7591 67.8188 43.5429C69.9111 42.4362 71.7959 41.4333 72.0207 41.2777C72.453 40.9837 72.6605 40.3958 72.4876 39.8771C72.4357 39.6696 70.2224 36.2631 67.5767 32.2861L62.7697 25.0582L63.7553 23.9688C65.0176 22.5855 65.8995 21.1157 66.4874 19.3692L66.9542 17.9859L67.0061 9.68596C67.0407 4.2564 66.9888 1.21309 66.8851 0.901839C66.6603 0.313925 66.0205 0.00267668 65.3807 0.158301C65.0522 0.244759 62.6486 2.50995 58.1874 6.95389L51.4956 13.6284L49.6281 12.7639C45.1669 10.6543 41.5875 9.85887 36.6075 9.85887C33.1665 9.85887 31.9734 10.0145 28.8782 10.8272C26.6649 11.3978 25.8176 11.7091 23.4141 12.8503L21.7195 13.6457L15.2006 7.1441C11.6212 3.58203 8.49142 0.521424 8.24934 0.3658C7.696 0.00267668 7.17726 0.0199683 6.6758 0.417675ZM19.1776 15.3057C15.9268 17.9686 14.4743 19.4038 12.9526 21.4788C12.5031 22.084 12.0881 22.5682 12.0189 22.5682C11.7595 22.5682 10.4454 20.8563 9.97849 19.888C9.01016 17.9168 8.941 17.3461 8.941 10.8099V4.84432L14.1285 10.0318C16.9816 12.8849 19.2468 15.2538 19.1776 15.3057ZM64.2395 12.2797C64.1703 17.2251 64.1357 17.7093 63.8072 18.6257C63.323 19.888 62.7351 20.8909 61.8705 21.8765L61.1789 22.6546L60.8849 22.2569C59.3632 20.1301 56.562 17.2251 54.7118 15.8245L53.9164 15.2193L59.052 10.0664L64.1876 4.93077L64.2395 5.91639C64.2741 6.46972 64.2741 9.32283 64.2395 12.2797ZM41.8296 13.0405C45.5127 13.7841 49.4552 15.4786 52.4639 17.6055C54.3487 18.9542 56.4756 21.0811 58.1701 23.329C59.1903 24.6778 65.8822 34.6377 66.6084 35.8481C66.764 36.1421 67.1445 36.3496 61.1616 32.9777C55.5764 29.8307 54.7464 29.4329 52.9827 29.0698C51.34 28.724 50.3197 28.724 48.6079 29.0525C45.236 29.6923 42.21 31.9575 40.671 35.0181C39.4088 37.5081 39.4779 36.7992 39.3742 49.4566L39.2877 60.869L36.5729 60.9209L33.8409 60.9728V50.0272C33.8409 37.6292 33.8409 37.6983 32.544 35.0527C30.6938 31.3004 26.613 28.7932 22.4111 28.7932C21.2353 28.7932 19.1257 29.2427 18.0191 29.7442C17.3447 30.0381 10.1341 34.0152 6.62393 36.021C6.41643 36.1421 6.31268 36.2977 10.3762 30.1765C12.382 27.185 14.5953 23.9688 15.3043 23.0351C19.8693 17.0695 25.6965 13.8186 33.9273 12.6428C35.1896 12.4526 40.2042 12.712 41.8296 13.0405ZM23.8118 31.75C26.3536 32.1477 28.8955 33.9806 30.0194 36.194C31.0915 38.3208 31.0742 37.975 31.0742 52.206C31.0742 64.9153 31.0742 65.1746 31.4373 65.9009C31.8523 66.7828 32.5094 67.3015 34.5844 68.4082L36.1752 69.2555L34.619 69.2382C32.8553 69.2382 31.8696 68.9615 30.6419 68.0969C29.5007 67.2669 28.9301 66.264 28.394 64.0161C27.0626 58.6211 25.0222 54.817 21.512 51.1512C18.313 47.8312 14.3706 45.151 6.90059 41.2258C5.93226 40.7243 5.13685 40.2575 5.13685 40.1883C5.13685 39.9808 19.0739 32.2861 19.9212 32.0267C21.4082 31.5598 22.2728 31.4906 23.8118 31.75ZM53.7089 32.1304C54.8501 32.5973 68.0782 40.0154 68.0782 40.1883C68.0782 40.2575 67.2828 40.7243 66.3145 41.2258C61.2134 43.906 57.0116 46.4997 54.5908 48.4537C52.6714 49.9926 49.9566 52.8976 48.85 54.5749C46.9652 57.428 45.8066 60.1255 44.8902 63.7913C44.3023 66.2121 43.7835 67.1632 42.5904 68.0623C41.4492 68.9269 40.3425 69.2555 38.5269 69.2555H37.0398L38.6652 68.3736C40.8094 67.2151 41.3627 66.7828 41.7777 65.9009C42.1408 65.1746 42.1408 64.9153 42.1408 52.2578C42.1408 43.5083 42.21 39.0644 42.331 38.4419C43.04 35.0527 45.8585 32.3552 49.4033 31.6636C50.4062 31.4734 52.6887 31.7154 53.7089 32.1304ZM39.2013 63.9815C39.5817 64.4484 39.2877 64.8461 37.9563 65.5896L36.6248 66.3505L35.2761 65.5896C33.9273 64.8288 33.6334 64.4484 34.0138 63.9815C34.325 63.6011 38.89 63.6011 39.2013 63.9815Z" fill="#6E52EA"/>
<path d="M24.0713 38.978C23.2931 39.3238 22.8608 40.0155 22.8608 40.9146C22.8608 41.6409 22.9473 41.8311 23.4315 42.3152C23.9156 42.7994 24.1058 42.8859 24.8494 42.8859C25.5929 42.8859 25.7831 42.7994 26.2673 42.3152C26.7514 41.8311 26.8379 41.6409 26.8379 40.8973C26.8379 40.1711 26.7514 39.9636 26.3019 39.4967C25.7312 38.9261 24.711 38.7013 24.0713 38.978Z" fill="#6E52EA"/>
<path d="M47.5879 38.978C46.8097 39.3238 46.3774 40.0155 46.3774 40.9146C46.3774 41.6409 46.4639 41.8311 46.9481 42.3152C47.4322 42.7994 47.6224 42.8859 48.366 42.8859C49.1095 42.8859 49.2997 42.7994 49.7839 42.3152C50.268 41.8311 50.3545 41.6409 50.3545 40.8973C50.3545 40.1711 50.268 39.9636 49.8185 39.4967C49.2478 38.9261 48.2276 38.7013 47.5879 38.978Z" fill="#6E52EA"/>
</svg>
