<svg width="20" height="20" viewBox="0 0 20 20" fill="none" xmlns="http://www.w3.org/2000/svg">
<path d="M0 10C0 7.34784 1.02112 4.8043 2.83872 2.92893C4.65632 1.05357 7.12152 0 9.692 0C12.2625 0 14.7277 1.05357 16.5453 2.92893C18.3629 4.8043 19.384 7.34784 19.384 10C19.384 12.6522 18.3629 15.1957 16.5453 17.0711C14.7277 18.9464 12.2625 20 9.692 20C7.12152 20 4.65632 18.9464 2.83872 17.0711C1.02112 15.1957 0 12.6522 0 10ZM9.08625 1.34625C8.27454 1.60125 7.4689 2.37125 6.80015 3.665C6.57982 4.09512 6.39032 4.54131 6.23317 5H9.08625V1.34625ZM4.95503 5C5.15696 4.33602 5.41646 3.69217 5.73039 3.07625C5.93987 2.66757 6.18179 2.27749 6.45366 1.91C4.95262 2.55228 3.66116 3.62453 2.73193 5H4.95503ZM4.24994 9.375C4.28629 8.27875 4.41713 7.2275 4.62793 6.25H2.02805C1.5763 7.23131 1.30674 8.29126 1.23331 9.375H4.24994ZM5.87214 6.25C5.63386 7.27475 5.49666 8.32175 5.46265 9.375H9.08625V6.25H5.87214ZM10.2977 6.25V9.375H13.9201C13.8866 8.32179 13.7498 7.27479 13.5119 6.25H10.2977ZM5.46386 10.625C5.49748 11.6782 5.63426 12.7252 5.87214 13.75H9.08625V10.625H5.46386ZM10.2977 10.625V13.75H13.5119C13.7384 12.7937 13.8826 11.74 13.9213 10.625H10.2977ZM6.23317 15C6.40035 15.4825 6.59056 15.93 6.80015 16.335C7.4689 17.6287 8.27576 18.3975 9.08625 18.6538V15H6.23317ZM6.45366 18.09C6.18177 17.7225 5.93985 17.3324 5.73039 16.9237C5.41647 16.3078 5.15696 15.664 4.95503 15H2.73193C3.66111 16.3755 4.95258 17.4478 6.45366 18.09ZM4.62793 13.75C4.40885 12.7226 4.28231 11.6765 4.24994 10.625H1.23331C1.30842 11.7375 1.58585 12.7913 2.02805 13.75H4.62793ZM12.9303 18.09C14.4314 17.4478 15.7229 16.3755 16.6521 15H14.429C14.227 15.664 13.9675 16.3078 13.6536 16.9237C13.4442 17.3325 13.2023 17.7226 12.9303 18.09ZM10.2977 15V18.6538C11.1095 18.3988 11.9151 17.6287 12.5838 16.335C12.7934 15.93 12.9836 15.4825 13.1508 15H10.2977ZM14.7561 13.75H17.3559C17.7981 12.7913 18.0756 11.7375 18.1507 10.625H15.1341C15.1017 11.6765 14.9752 12.7226 14.7561 13.75ZM18.1507 9.375C18.0772 8.29127 17.8077 7.23132 17.3559 6.25H14.7561C14.9669 7.2275 15.0977 8.27875 15.1341 9.375H18.1507ZM13.6536 3.07625C13.9528 3.65625 14.2133 4.30125 14.429 5H16.6521C15.7229 3.62448 14.4314 2.55222 12.9303 1.91C13.1944 2.265 13.4367 2.6575 13.6536 3.07625ZM13.1508 5C12.9937 4.54131 12.8042 4.09511 12.5838 3.665C11.9151 2.37125 11.1095 1.6025 10.2977 1.34625V5H13.1508Z" fill="url(#paint0_linear_531_3878)"/>
<defs>
<linearGradient id="paint0_linear_531_3878" x1="1.78784" y1="20" x2="24.4461" y2="20" gradientUnits="userSpaceOnUse">
<stop stop-color="#6446E8"/>
<stop offset="0.407986" stop-color="#8A72ED"/>
<stop offset="0.880208" stop-color="#6DBFF8"/>
</linearGradient>
</defs>
</svg>
