<svg width="12" height="11" viewBox="0 0 12 11" fill="none" xmlns="http://www.w3.org/2000/svg">
<path d="M3.88889 0.79541C3.15218 0.79541 2.44564 1.08807 1.9247 1.609C1.40377 2.12994 1.11111 2.83648 1.11111 3.57319C1.11111 4.3099 1.40377 5.01644 1.9247 5.53737C2.44564 6.05831 3.15218 6.35097 3.88889 6.35097C4.6256 6.35097 5.33214 6.05831 5.85307 5.53737C6.37401 5.01644 6.66667 4.3099 6.66667 3.57319C6.66667 2.83648 6.37401 2.12994 5.85307 1.609C5.33214 1.08807 4.6256 0.79541 3.88889 0.79541ZM2.22222 3.57319C2.22222 3.13116 2.39782 2.70724 2.71038 2.39468C3.02294 2.08212 3.44686 1.90652 3.88889 1.90652C4.33092 1.90652 4.75484 2.08212 5.0674 2.39468C5.37996 2.70724 5.55556 3.13116 5.55556 3.57319C5.55556 4.01522 5.37996 4.43914 5.0674 4.7517C4.75484 5.06426 4.33092 5.23985 3.88889 5.23985C3.44686 5.23985 3.02294 5.06426 2.71038 4.7517C2.39782 4.43914 2.22222 4.01522 2.22222 3.57319ZM8.28222 3.6943C8.12599 3.61469 7.95313 3.57319 7.77778 3.57319V2.46208C8.12862 2.4621 8.47448 2.5452 8.78704 2.70456C9.0996 2.86393 9.36999 3.09504 9.57607 3.37898C9.78216 3.66292 9.91809 3.99162 9.97273 4.33818C10.0274 4.68475 9.99919 5.03932 9.89047 5.3729C9.78175 5.70648 9.5956 6.00957 9.34724 6.25738C9.09888 6.50519 8.79537 6.69068 8.46156 6.79866C8.12774 6.90664 7.7731 6.93404 7.42666 6.87863C7.08022 6.82322 6.75182 6.68657 6.46833 6.47986L7.12278 5.58208C7.24668 5.67225 7.3879 5.73582 7.53755 5.76879C7.6872 5.80176 7.84206 5.80342 7.99238 5.77366C8.14271 5.7439 8.28525 5.68337 8.41105 5.59587C8.53686 5.50837 8.6432 5.39579 8.7234 5.26521C8.8036 5.13463 8.85592 4.98887 8.87708 4.8371C8.89824 4.68532 8.88777 4.53081 8.84633 4.38328C8.8049 4.23574 8.7334 4.09838 8.63632 3.97981C8.53924 3.86124 8.41868 3.76403 8.28222 3.6943ZM9.99889 10.7954C9.99874 10.2064 9.76468 9.64152 9.34818 9.22501C8.93167 8.8085 8.36681 8.57445 7.77778 8.5743V7.46208C8.66179 7.46222 9.50955 7.81346 10.1346 8.43855C10.7597 9.06364 11.111 9.9114 11.1111 10.7954H9.99889ZM7.77778 10.7954H6.66667C6.66667 10.0587 6.37401 9.35216 5.85307 8.83123C5.33214 8.31029 4.6256 8.01763 3.88889 8.01763C3.15218 8.01763 2.44564 8.31029 1.9247 8.83123C1.40377 9.35216 1.11111 10.0587 1.11111 10.7954H0C0 9.76401 0.409721 8.77486 1.13903 8.04555C1.86834 7.31624 2.85749 6.90652 3.88889 6.90652C4.92029 6.90652 5.90944 7.31624 6.63875 8.04555C7.36806 8.77486 7.77778 9.76401 7.77778 10.7954Z" fill="white"/>
</svg>
