<svg width="109" height="143" viewBox="0 0 109 143" fill="none" xmlns="http://www.w3.org/2000/svg">
<path d="M67.8073 1.72679C65.93 0.788151 63.7909 0.551895 61.7349 0.283711C61.5912 0.347564 61.3071 0.472078 61.1634 0.535932C59.6277 1.19362 57.9132 0.682794 56.2978 0.788152C54.7812 0.679602 53.1626 1.19043 51.7259 0.545509C51.5854 0.478463 51.3108 0.347564 51.1735 0.280518C48.9674 0.606169 46.5601 0.740262 44.6541 2.00775C42.946 3.19223 42.4608 5.29939 41.7041 7.10963C37.477 8.2526 33.3425 9.8202 29.5784 12.0838C25.5843 14.4559 22.0628 17.6422 19.3554 21.4223C18.6658 22.3514 18.139 23.3922 17.4271 24.3085C17.028 20.6401 16.9833 16.9398 16.7247 13.2619C16.5555 11.9721 15.0677 11.0206 13.8385 11.4612C13.2415 11.6145 12.8073 12.0806 12.389 12.5052C10.8789 14.0728 10.0073 16.1959 9.83174 18.3542C9.38158 22.6866 8.91224 27.0191 8.48123 31.3547C8.47166 31.7474 8.27692 32.0858 7.97681 32.3317C6.29746 33.9344 5.18322 36.1661 5.08105 38.4999C5.05871 39.3906 4.85117 40.291 4.9246 41.1785C4.99483 41.3669 5.13531 41.7436 5.20555 41.932C5.78981 43.2761 5.46417 44.7671 5.53441 46.1814C5.48971 47.3468 5.74832 48.6079 5.17683 49.687C5.10659 49.8275 4.96611 50.1148 4.89268 50.2553C5.02677 52.2922 5.05871 54.3706 5.86007 56.2862C2.35771 57.2632 -0.190033 60.7592 0.0111008 64.3988C0.266518 67.4765 1.80858 70.2924 3.46557 72.837C8.49721 80.0907 15.7254 85.4257 22.9376 90.3456C23.7613 91.0096 25.0608 91.3289 25.297 92.4974C27.7234 99.7639 31.5514 106.654 36.9438 112.142C39.1659 114.402 41.5349 116.57 44.3157 118.125C49.3505 120.97 55.4102 122.023 61.09 120.867C66.045 119.951 70.5913 117.375 74.1703 113.863C79.4829 109.003 83.4578 102.829 86.2226 96.2105C89.2844 99.8916 92.9879 103.238 97.4927 105.009C97.6332 104.99 97.9141 104.952 98.0578 104.936L98.2494 104.885C99.4275 104.451 100.701 104.495 101.87 104.93L102.298 105.025C105.152 104.374 107.495 101.731 107.923 98.8349C107.703 97.7941 107.677 96.7309 107.901 95.6901C107.572 92.7848 106.4 90.0359 105.078 87.453C101.062 80.0939 95.2291 73.9353 89.1758 68.2172C91.5671 66.3303 93.5913 64.0189 95.3121 61.5126C96.8893 61.5509 98.4761 61.7074 100.047 61.5126C102.863 61.0465 105.446 59.2331 106.742 56.6757C107.831 54.725 107.891 52.4295 107.936 50.2553C107.84 49.8945 107.744 49.5369 107.652 49.1762C107.186 46.8934 107.227 44.4861 107.61 42.1938C107.693 41.8075 107.783 41.4276 107.875 41.0476C107.99 38.6819 107.7 36.1693 106.381 34.1355C105.864 33.2512 105.078 32.5807 104.453 31.7825C103.951 27.134 103.479 22.4759 102.975 17.8274C102.697 15.5574 101.573 13.38 99.8393 11.8827C98.9262 11.0845 97.4257 11.225 96.6594 12.1636C95.8357 13.0895 96.1678 14.4112 96.0273 15.5351C95.7495 18.5138 95.8453 21.5213 95.4398 24.4905C91.6757 17.5496 85.201 12.3679 77.9568 9.39877C75.7539 8.4697 73.4711 7.75135 71.1692 7.11601C70.387 5.15252 69.79 2.84103 67.8073 1.72679ZM66.1791 3.23692C67.6253 3.7254 68.2671 5.21318 68.7396 6.53495C60.643 5.01205 52.2367 4.95777 44.1465 6.56049C44.5998 5.20999 45.2448 3.68709 46.7293 3.22096C49.9124 2.23762 53.2775 2.05564 56.5883 2.00136C59.8097 2.09714 63.0886 2.25039 66.1791 3.23692ZM62.3798 6.11351C58.44 6.12628 54.4971 6.15821 50.5542 6.10713C54.4971 6.08478 58.44 6.05285 62.3798 6.11351ZM52.5272 7.2086C52.6262 7.28522 52.8242 7.43847 52.9231 7.51509C60.5153 7.08728 68.2319 8.00038 75.3995 10.6024C82.1615 13.0639 88.4128 17.3645 92.394 23.4433C96.7392 29.9116 98.2558 37.8486 98.2558 45.5301C98.243 46.0474 98.2749 46.5837 98.1025 47.0818C97.962 50.6065 96.8701 54.0354 95.376 57.2121C92.477 63.2303 87.2666 67.9331 81.2676 70.7713C72.5452 74.8611 62.7022 75.7072 53.1881 75.439C44.52 75.0751 35.587 73.5298 28.1129 68.8813C22.8067 65.6439 18.5668 60.6602 16.4182 54.8144C15.5658 52.4327 14.8314 49.952 14.8123 47.4042C14.3781 45.313 14.7037 43.1356 14.8251 41.0189C15.3486 32.6573 18.5445 24.2447 24.6808 18.3893C31.3918 11.9433 40.6154 8.83366 49.7049 7.76093L49.3888 7.23414C50.3562 6.79675 51.5822 6.6435 52.5272 7.2086ZM99.5775 14.6315C100.408 15.8511 100.957 17.2623 101.014 18.7469C101.346 22.6611 101.988 26.5561 102.132 30.4831C102.049 30.4703 101.883 30.4448 101.8 30.432L101.819 30.3363C100.494 29.9946 99.1369 29.7839 97.7705 29.6722C97.5693 29.0177 97.2724 28.3568 97.3937 27.6576C97.614 25.5249 97.5885 23.3762 97.7641 21.2404C97.9812 18.5936 97.8599 15.9086 98.3643 13.2906C98.7698 13.7344 99.1752 14.1846 99.5775 14.6315ZM14.9272 17.7667C15.039 21.2914 15.4061 24.8034 15.4476 28.3313C15.4476 28.8293 15.1858 29.2763 15.0102 29.7296C13.5384 29.752 12.0921 30.0681 10.6906 30.4991C10.7065 30.2085 10.7416 29.6307 10.7608 29.3433C11.0609 25.8857 11.5239 22.444 11.808 18.9863C11.9389 17.4411 12.3763 15.9118 13.2862 14.6411C13.7012 14.1622 14.1291 13.6993 14.5728 13.2523C14.8027 14.7465 14.8027 16.263 14.9272 17.7667ZM104.063 34.4835C106.075 36.712 105.861 39.9238 105.985 42.7174L105.992 42.5227C106.237 46.092 106.059 49.6774 105.701 53.234C105.398 56.2415 102.943 58.8308 100.005 59.4406C98.8528 59.6385 97.6779 59.5427 96.5158 59.4853C97.7545 57.3238 98.6261 54.9804 99.3221 52.5955C99.5935 51.3919 99.8808 50.1914 100.021 48.9623L99.6861 49.3294C99.6158 49.1794 99.4754 48.8792 99.4051 48.7292C99.3029 47.0307 99.5679 45.329 99.437 43.6305C99.4498 42.3598 99.0922 40.9934 99.6988 39.8057L100.044 40.1952C99.7818 37.3793 99.3221 34.5697 98.4824 31.8687C100.618 31.8687 102.706 32.8297 104.063 34.4835ZM14.3813 31.8592C12.9574 36.5939 12.5327 41.5744 12.6093 46.5007C12.6668 48.8473 13.1553 51.1492 13.7332 53.416C14.4419 55.504 15.205 57.5856 16.3065 59.5076C15.1667 59.5459 14.0173 59.6226 12.8839 59.447C10.1989 58.8914 7.91933 56.6917 7.29357 54.0194C7.03497 52.5795 6.9743 51.1109 6.91684 49.6519C6.84341 46.4784 6.80827 43.2985 6.98067 40.1282C7.11477 38.8032 7.12115 37.4144 7.71818 36.1948C8.86435 33.6247 11.5558 31.8464 14.3813 31.8592ZM6.34214 39.4545C6.59117 41.6926 6.37727 43.9402 6.41559 46.1814C6.44113 47.5735 6.4986 48.9718 6.33577 50.3575C6.02289 48.7675 6.19528 47.1424 6.16655 45.5365C6.2336 43.5092 5.98137 41.4627 6.34214 39.4545ZM106.732 46.191C106.688 47.3883 106.908 48.6334 106.534 49.7924C106.359 46.5582 106.311 43.2889 106.582 40.0579C106.879 42.0916 106.675 44.1477 106.732 46.191ZM6.97111 58.0997C7.97041 59.1884 9.09423 60.194 10.4639 60.7911C12.4018 61.7808 14.6207 61.6499 16.7247 61.5573C17.3983 62.0266 18.1327 62.4417 18.6467 63.0962C20.6198 65.679 23.0206 67.9235 25.6865 69.7784C24.2977 72.1665 23.4037 74.8516 23.1834 77.6132L23.1388 77.642C23.5378 78.2581 23.4197 79.018 23.442 79.714C23.4133 80.825 23.5091 81.9712 23.1547 83.0471C23.3144 84.934 23.6879 86.7985 24.1317 88.6407C18.6882 85.0138 13.4043 81.0581 8.88351 76.3106C5.78343 72.8817 2.72487 68.9611 2.02567 64.2647C1.40949 64.2807 1.43502 62.8408 2.07674 62.9014C2.13102 62.7641 2.24277 62.4928 2.29704 62.3555C2.96431 60.2388 4.83202 58.6169 6.97111 58.0997ZM100.127 60.9826C98.7155 61.3594 97.2373 61.1582 95.8006 61.0497C97.2277 60.7847 98.69 60.7975 100.127 60.9826ZM17.012 60.8773L17.0184 61.1455C15.5945 61.1487 14.1642 61.2349 12.7434 61.0848C14.1067 60.6123 15.5977 60.9667 17.012 60.8773ZM89.278 71.1385C93.952 75.72 98.4537 80.5569 101.943 86.1217C103.974 89.4197 105.685 93.0561 106.027 96.9608C106.205 98.8189 105.328 100.594 104.044 101.887L103.932 101.871C102.802 102.909 101.263 103.471 99.7276 103.368C98.0227 103.282 96.5413 102.344 95.1078 101.507C91.9854 99.5117 89.377 96.8075 87.0687 93.9341C87.7168 92.2644 88.151 90.5275 88.732 88.8418L88.6554 88.7875C89.2939 86.7251 89.5909 84.5637 89.7728 82.4182C89.7026 82.3256 89.5589 82.1436 89.4887 82.051C88.9555 80.9655 88.8949 79.5097 89.5079 78.4529L89.7728 78.2454C89.6579 76.5948 89.3099 74.9761 88.8214 73.3957C88.4734 72.1538 87.5508 71.0459 87.6402 69.7114C88.2531 70.1041 88.7831 70.6085 89.278 71.1385ZM85.45 70.8575C85.6767 71.2949 85.9002 71.7355 86.13 72.1729C86.6951 73.5394 87.3113 74.941 87.3815 76.4383C87.6497 77.3961 87.8094 78.3827 87.8094 79.3788C87.9977 85.0936 86.229 90.6425 84.1218 95.8848C83.4226 95.623 82.7171 95.3836 82.0019 95.1729C79.4286 94.3492 76.8106 93.6627 74.1575 93.1487C74.3523 92.143 74.6109 91.1533 74.8025 90.1508C74.1958 89.7837 74.4034 88.5736 74.7865 88.0341C74.3651 85.8152 72.5325 83.9411 70.2976 83.5452C65.8726 82.8364 61.3837 82.7023 56.9108 82.7151C52.1154 82.6991 47.2976 82.7726 42.5565 83.5516C40.3408 83.9283 38.5338 85.7992 38.0804 87.9766C37.7388 89.6687 38.3358 91.3385 38.7158 92.9667C36.0946 93.5989 33.4894 94.2917 30.9129 95.0835L30.9736 95.1824C30.2105 95.3421 29.4762 95.5943 28.7547 95.888C27.8958 93.7777 27.1009 91.6418 26.4847 89.4484C25.3321 85.2437 24.4701 80.7325 25.4981 76.416C25.5652 74.9378 26.1622 73.5458 26.7433 72.2048L26.7145 72.1889C26.9604 71.7515 27.203 71.3173 27.4425 70.8831C36.6469 76.4 47.6872 77.6451 58.2198 77.5238C67.6062 77.2971 77.28 75.7455 85.45 70.8575ZM64.3273 83.3664C63.577 83.5005 62.814 83.5803 62.0509 83.5612C58.9636 83.5101 55.8763 83.4686 52.789 83.5228C51.3779 83.526 49.9571 83.6282 48.5619 83.3728C50.9213 83.0663 53.303 83.3824 55.672 83.2642C58.555 83.3473 61.4539 83.0503 64.3273 83.3664ZM68.5799 85.349C69.7868 85.4831 71.0958 85.7609 71.9259 86.7283C72.5005 87.4658 73.0146 88.43 72.6985 89.3846C72.7623 90.3296 72.4686 91.2395 72.2355 92.143C71.4086 95.3357 70.1252 98.4517 68.1394 101.102C66.0641 103.886 62.996 105.97 59.5639 106.625C55.6752 107.331 51.4162 106.765 48.1501 104.432C44.603 101.957 42.4448 97.976 41.1454 93.9405C40.7463 92.5421 40.2035 91.1437 40.2387 89.6655C39.6321 87.8585 41.1326 85.9333 42.8981 85.5885C46.5729 84.9053 50.3275 84.9117 54.0469 84.7456C58.8966 84.7169 63.759 84.7903 68.5799 85.349ZM39.2968 95.0196C39.9673 96.7692 40.6441 98.5284 41.6051 100.144C43.8017 104.055 47.4222 107.318 51.8472 108.4C56.5404 109.549 61.8275 109.007 65.8566 106.204C69.6367 103.563 72.0823 99.4127 73.4967 95.0963C76.038 95.6007 78.5474 96.268 81.0281 97.0087C81.7944 97.2417 82.551 97.4971 83.3013 97.7749C80.0384 104.582 75.3676 110.83 69.2153 115.277C62.8715 119.724 54.1778 120.494 47.1412 117.247C44.0507 115.887 41.42 113.694 39.035 111.337C35.0793 107.439 31.9665 102.755 29.5656 97.7621C30.3191 97.4876 31.0789 97.2289 31.8388 96.9767C34.2875 96.2041 36.7618 95.4634 39.2968 95.0196Z" fill="#040473"/>
<path d="M61.7367 0.284193C58.2343 -0.0861559 54.6745 -0.10212 51.1754 0.281C51.3127 0.348046 51.5872 0.478945 51.7277 0.545991C54.8725 0.434248 58.0204 0.478946 61.1652 0.536414C61.3089 0.472561 61.593 0.348046 61.7367 0.284193Z" fill="#01074D"/>
<path d="M61.1641 0.536625C58.0193 0.479157 54.8713 0.434459 51.7265 0.546202C53.1632 1.19112 54.7819 0.680295 56.2984 0.788846C57.9139 0.683488 59.6284 1.19431 61.1641 0.536625Z" fill="#161979"/>
<path d="M66.1816 3.23751C63.0911 2.25098 59.8122 2.09773 56.5908 2.00195C53.28 2.05623 49.9149 2.23821 46.7318 3.22155C45.2473 3.68768 44.6023 5.21058 44.149 6.56108C52.2392 4.95836 60.6455 5.01264 68.7421 6.53554C68.2696 5.21377 67.6278 3.72599 66.1816 3.23751Z" fill="#FFFFFE"/>
<path d="M62.3811 6.11436C58.4414 6.0537 54.4984 6.08563 50.5555 6.10798C54.4984 6.15906 58.4414 6.12713 62.3811 6.11436Z" fill="#8281BA"/>
<path d="M69.5098 23.0227C63.9163 21.7552 58.1471 21.5157 52.4354 21.7648C46.446 22.1926 40.4119 23.2685 34.9333 25.8067C30.4827 27.7989 26.4663 30.9724 23.9409 35.1867C21.9264 38.5869 20.9207 42.5362 20.8217 46.476C21.2016 44.9435 21.4634 43.3823 21.8976 41.8626C22.7341 38.8902 24.3209 36.1541 26.3546 33.8426C29.0524 30.8287 32.5643 28.6354 36.271 27.0805C44.7954 23.6133 54.2329 22.9812 63.316 23.8496C70.656 24.6733 78.1843 26.707 84.0013 31.4577C87.6601 34.3694 90.2845 38.5614 91.3157 43.1237C91.5488 44.1709 91.6892 45.2372 91.9319 46.2812C92.0149 40.6813 89.7385 35.0335 85.7285 31.1065C81.3769 26.7357 75.4386 24.3444 69.5098 23.0227Z" fill="#8281BA"/>
<path d="M52.5276 7.20913C51.5826 6.64403 50.3566 6.79728 49.3892 7.23468C50.4364 7.23787 51.4804 7.20594 52.5276 7.20913Z" fill="#1A1880"/>
<path d="M52.9249 7.51546C52.826 7.43883 52.628 7.28559 52.529 7.20897C51.4818 7.20577 50.4378 7.2377 49.3906 7.23451L49.7067 7.76129C50.7795 7.66551 51.8522 7.61124 52.9249 7.51546Z" fill="#050550"/>
<path d="M75.399 10.6026C68.2314 8.0006 60.5148 7.08749 52.9226 7.51531C51.8499 7.61109 50.7771 7.66536 49.7044 7.76114C40.6149 8.83388 31.3913 11.9435 24.6803 18.3895C18.544 24.2449 15.3482 32.6575 14.8246 41.0191C14.7032 43.1359 14.3776 45.3133 14.8118 47.4045C16.705 53.1576 20.2712 58.3745 25.1592 61.9854C29.5076 65.2642 34.6478 67.3554 39.9157 68.6261C46.6203 70.2256 53.5643 70.58 60.4318 70.315C67.0885 69.967 73.7994 68.9326 79.9772 66.3338C86.0689 63.8307 91.557 59.6068 94.9955 53.9335C96.3109 51.788 97.3006 49.4605 98.102 47.082C98.2744 46.5839 98.2425 46.0476 98.2552 45.5304C98.2552 37.8488 96.7387 29.9118 92.3935 23.4435C88.4123 17.3647 82.161 13.0642 75.399 10.6026ZM83.5658 26.6011C88.342 29.8129 91.9242 34.7839 93.2651 40.3997C94.2548 44.6396 94.6348 49.2722 92.8884 53.3747C91.292 57.506 87.812 60.753 83.7127 62.3525C78.266 64.5267 72.2191 64.4405 66.4914 63.6902C65.1888 63.4252 63.8 63.4284 62.5549 62.9591C59.0366 62.394 55.4576 62.3014 51.9137 62.6973C47.4057 63.703 42.738 64.3064 38.0927 64.1372C33.1632 63.9456 28.039 62.675 24.2333 59.3769C21.2099 56.7781 19.3326 52.982 18.8601 49.0455C18.4035 42.7144 20.1116 36.0897 24.2429 31.1793C28.3998 26.1924 34.4786 23.2264 40.6468 21.5439C47.0896 19.7975 53.8261 19.392 60.4701 19.7081C68.5315 20.1966 76.7878 22.0132 83.5658 26.6011Z" fill="white"/>
<path d="M104.064 34.4839C102.707 32.8301 100.619 31.8691 98.4833 31.8691C99.323 34.5701 99.7827 37.3797 100.045 40.1956C100.258 43.1073 100.45 46.0573 100.022 48.9627C99.8817 50.1918 99.5944 51.3923 99.323 52.5959C99.2911 52.7556 99.2272 53.0748 99.1953 53.2313C101.775 53.0525 104.383 51.8584 105.791 49.6235C106.117 47.344 105.753 45.0165 105.986 42.7178C105.862 39.9242 106.075 36.7124 104.064 34.4839Z" fill="white"/>
<path d="M14.3831 31.8597C11.5575 31.8469 8.86613 33.6252 7.71996 36.1953C7.12293 37.4149 7.11655 38.8037 6.98246 40.1287C6.81005 43.299 6.84518 46.4789 6.91861 49.6524C7.83171 50.6357 8.77674 51.6382 9.99314 52.2448C11.1585 52.877 12.509 52.96 13.7349 53.4166C13.1571 51.1498 12.6686 48.8479 12.6111 46.5012C12.5345 41.575 12.9591 36.5944 14.3831 31.8597Z" fill="white"/>
<path d="M6.97173 58.0999C4.83265 58.6171 2.96494 60.2389 2.29768 62.3557C2.01672 63.5146 2.27533 64.6895 3.0256 65.6154C6.19911 70.414 10.4805 74.3633 14.9853 77.8912C17.3543 79.7461 20.8598 79.545 23.1394 77.6421L23.1841 77.6134C23.4044 74.8518 24.2983 72.1667 25.6871 69.7786C23.0213 67.9237 20.6204 65.6792 18.6473 63.0964C18.1333 62.4419 17.399 62.0268 16.7253 61.5575C14.6214 61.6501 12.4025 61.781 10.4645 60.7913C9.09485 60.1942 7.97104 59.1886 6.97173 58.0999Z" fill="white"/>
<path d="M101.944 86.1221C98.4547 80.5573 93.953 75.7204 89.279 71.1389C89.0491 71.8732 88.8575 72.6235 88.8224 73.3961C89.3109 74.9765 89.6589 76.5952 89.7738 78.2458C89.9399 79.6314 89.9303 81.033 89.7738 82.4186C89.5919 84.5641 89.2949 86.7255 88.6564 88.788L88.733 88.8422C88.8097 88.871 88.9661 88.9316 89.0427 88.9604C89.3907 89.4393 89.627 89.9884 89.876 90.528C91.98 95.036 95.7058 98.7427 100.176 100.914C101.344 101.504 102.647 101.715 103.933 101.872L104.045 101.887C105.328 100.594 106.206 98.8193 106.028 96.9612C105.686 93.0566 103.975 89.4201 101.944 86.1221Z" fill="white"/>
<path d="M86.132 72.1733C80.8386 75.5512 74.7789 77.5594 68.5947 78.5267C61.3793 79.6378 54.0106 79.7176 46.7569 78.8747C39.7299 78.0542 32.7379 76.0492 26.7453 72.2053C26.1642 73.5462 25.5672 74.9382 25.5001 76.4164C25.7651 80.519 26.541 84.5896 27.9872 88.4463C28.8365 90.7068 29.6251 93.0246 30.9149 95.0839C33.4914 94.2921 36.0966 93.5993 38.7178 92.9671C38.3379 91.3389 37.7408 89.6691 38.0824 87.977C38.5358 85.7996 40.3428 83.9287 42.5586 83.552C47.2997 82.773 52.1174 82.6995 56.9128 82.7155C61.3857 82.7027 65.8746 82.8368 70.2996 83.5456C72.5345 83.9415 74.3671 85.8156 74.7885 88.0345C74.9577 88.7241 74.9417 89.452 74.8045 90.1512C74.6129 91.1537 74.3543 92.1434 74.1595 93.1491C76.8126 93.6632 79.4306 94.3496 82.0039 95.1733C83.977 91.3485 85.4743 87.2778 86.4641 83.089C87.0068 80.9117 87.1249 78.6608 87.3835 76.4387C87.3133 74.9414 86.6971 73.5398 86.132 72.1733Z" fill="white"/>
<path d="M39.2974 95.02C36.7624 95.4638 34.2881 96.2045 31.8393 96.9771C34.4126 101.587 37.8224 105.735 41.877 109.119C45.9254 112.615 51.2763 114.617 56.6335 114.492C61.5758 114.54 66.467 112.733 70.3237 109.671C74.6753 106.201 78.2798 101.836 81.0287 97.009C78.548 96.2683 76.0386 95.6011 73.4972 95.0966C72.0828 99.4131 69.6373 103.564 65.8571 106.204C61.828 109.007 56.541 109.55 51.8477 108.4C47.4227 107.318 43.8022 104.055 41.6057 100.144C40.6447 98.5288 39.9678 96.7696 39.2974 95.02Z" fill="white"/>
<path d="M99.5773 14.6322C99.175 14.1852 98.7695 13.735 98.3641 13.2913C97.8596 15.9092 97.981 18.5943 97.7639 21.241C97.5883 23.3769 97.6138 25.5255 97.3935 27.6582C97.2722 28.3574 97.5691 29.0183 97.7702 29.6728C99.1367 29.7846 100.494 29.9953 101.819 30.3369C101.892 29.9953 101.965 29.6537 102.036 29.312C101.046 28.7214 99.9221 28.1499 99.4017 27.058C98.6833 25.6628 98.9483 24.0505 99.0282 22.5532C99.2548 19.916 99.1559 17.2534 99.5773 14.6322Z" fill="#0288D2"/>
<path d="M14.9286 17.7674C14.8041 16.2636 14.804 14.7471 14.5742 13.2529C14.1304 13.6999 13.7026 14.1628 13.2875 14.6417C13.7026 17.4832 13.6132 20.363 13.8846 23.2172C13.9963 24.5582 14.14 26.0204 13.3865 27.2176C12.8438 28.2616 11.7423 28.7948 10.7621 29.344C10.743 29.6313 10.7079 30.2092 10.6919 30.4997C12.0935 30.0687 13.5398 29.7526 15.0116 29.7303C15.1872 29.2769 15.449 28.8299 15.449 28.3319C15.4075 24.804 15.0403 21.2921 14.9286 17.7674Z" fill="#0088D1"/>
<path d="M101.014 18.7472C100.956 17.2626 100.407 15.8514 99.577 14.6318C99.1555 17.253 99.2545 19.9157 99.0278 22.5528C98.948 24.0502 98.683 25.6625 99.4014 27.0577C99.9218 28.1496 101.046 28.7211 102.035 29.3117C101.965 29.6533 101.892 29.9949 101.818 30.3365L101.799 30.4323C101.882 30.4451 102.048 30.4706 102.131 30.4834C101.987 26.5564 101.346 22.6614 101.014 18.7472Z" fill="#02D0FF"/>
<path d="M13.8846 23.2169C13.6132 20.3626 13.7026 17.4828 13.2876 14.6414C12.3777 15.912 11.9403 17.4413 11.8094 18.9866C11.5252 22.4442 11.0623 25.8859 10.7622 29.3436C11.7423 28.7944 12.8438 28.2613 13.3865 27.2173C14.14 26.02 13.9964 24.5578 13.8846 23.2169Z" fill="#00D0FF"/>
<path d="M83.5688 26.6009C76.7908 22.0131 68.5346 20.1965 60.4731 19.708C53.8292 19.3919 47.0927 19.7974 40.6499 21.5438C34.4816 23.2263 28.4028 26.1923 24.246 31.1792C20.1147 36.0895 18.4066 42.7143 18.8631 49.0454C19.3356 52.9819 21.2129 56.778 24.2364 59.3768C28.042 62.6748 33.1663 63.9455 38.0957 64.1371C42.7411 64.3063 47.4087 63.7029 51.9168 62.6972C52.0764 62.5535 52.3957 62.2726 52.5521 62.1289C53.0885 61.3818 54.0463 61.6277 54.6657 62.1129C55.6809 62.2055 56.7026 62.2215 57.7147 62.1129C58.6597 61.7585 59.6654 61.7266 60.6168 62.0714C61.3192 62.2247 61.9481 62.5918 62.5579 62.959C63.8031 63.4283 65.1919 63.4251 66.4945 63.6901C72.2221 64.4404 78.269 64.5266 83.7157 62.3524C87.8151 60.7529 91.2951 57.5059 92.8914 53.3746C94.6378 49.272 94.2579 44.6395 93.2682 40.3996C91.9272 34.7837 88.3451 29.8128 83.5688 26.6009ZM69.5115 23.022C75.4403 24.3437 81.3787 26.735 85.7303 31.1058C89.7403 35.0328 92.0166 40.6806 91.9336 46.2805C91.691 45.2365 91.5505 44.1702 91.3174 43.123C89.8648 45.5143 89.4529 48.3909 88.112 50.846C87.1351 52.1997 85.9729 53.4065 84.7757 54.5623C83.6806 55.6701 82.1034 56.0533 80.9285 57.0589C79.8366 58.071 78.285 58.0646 76.9473 58.5276C73.5854 59.6674 69.9904 59.1246 66.5456 58.7862C65.7155 58.5914 64.9109 58.3105 64.0872 58.0934C62.2419 57.6847 61.2713 55.5744 59.2695 55.5807C59.1418 55.1785 59.0428 54.7634 58.8449 54.3867C58.1712 54.0515 57.5007 53.7098 56.9803 53.1447C56.5844 52.6595 55.665 52.6467 55.3617 53.2373C54.2315 54.9135 52.351 55.7723 50.8377 57.0366C50.081 57.7039 49.021 57.7454 48.1367 58.17C45.3495 59.6769 42.077 59.0576 39.0503 59.2012C37.7094 59.3002 36.4834 58.7127 35.2702 58.2339C34.0251 57.7198 32.6235 57.6528 31.4486 56.9632C30.2035 56.2193 28.8051 55.6414 27.9111 54.441C26.2605 52.9787 25.0665 51.1206 23.7096 49.4029C22.822 47.184 23.4318 44.7704 23.0487 42.4749C22.5475 42.494 21.9919 42.5132 21.8994 41.8619C21.4651 43.3816 21.2034 44.9428 20.8234 46.4753C20.9224 42.5355 21.9281 38.5862 23.9427 35.186C26.4681 30.9717 30.4844 27.7982 34.935 25.806C40.4136 23.2678 46.4478 22.1919 52.4372 21.7641C58.1489 21.515 63.918 21.7545 69.5115 23.022ZM93.5236 44.4926C93.7151 46.1464 93.7087 47.8226 93.5395 49.4764C93.1852 47.8577 93.2107 46.1145 93.5236 44.4926ZM75.9256 63.6486C73.9494 63.7763 71.9444 63.8465 69.9777 63.5752C71.475 63.2974 73.0043 63.4028 74.5145 63.3804C75.0029 63.3613 75.4818 63.4507 75.9256 63.6486ZM42.9358 63.6039C40.8829 63.8082 38.7949 63.8306 36.7421 63.5847C38.779 63.2591 40.8989 63.3134 42.9358 63.6039Z" fill="#010173"/>
<path d="M63.316 23.8491C54.2328 22.9807 44.7953 23.6128 36.2709 27.0801C32.5642 28.6349 29.0523 30.8283 26.3545 33.8421C26.9962 33.7687 27.6603 33.724 28.2541 33.459C29.1864 32.9801 29.7259 31.9521 30.7348 31.6041C31.6352 31.2689 32.4333 30.7357 33.1517 30.1067C34.0743 30.1738 35.0034 30.1833 35.9197 30.078C39.023 29.7683 42.155 29.9854 45.2327 30.4483C46.4523 30.7197 47.4963 31.4636 48.6904 31.8212C49.8908 32.1883 50.7464 33.1589 51.8 33.7847C53.2878 34.7137 54.319 36.1664 55.561 37.37C56.1069 37.9447 56.9657 37.5392 57.5372 37.22C58.5908 36.6517 58.8143 35.3331 59.6763 34.5796C60.5639 34.0433 61.6015 33.7847 62.4316 33.1525C63.8619 32.0734 65.5317 31.3582 67.2046 30.758C69.4076 30.4228 71.585 29.7044 73.839 29.9567C75.8376 29.9535 77.8426 30.3047 79.8348 30.1131C80.0742 30.4451 80.3105 30.774 80.5468 31.106C81.7121 31.0837 82.8455 31.3774 84.0012 31.4572C78.1842 26.7065 70.6559 24.6728 63.316 23.8491Z" fill="#010173"/>
<path d="M79.8338 30.1134C77.8415 30.3049 75.8365 29.9537 73.8379 29.9569C71.5839 29.7047 69.4065 30.423 67.2036 30.7583C65.5306 31.3585 63.8609 32.0737 62.4306 33.1528C61.6005 33.7849 60.5628 34.0435 59.6753 34.5799C58.8133 35.3334 58.5898 36.6519 57.5362 37.2202C56.9647 37.5395 56.1059 37.945 55.5599 37.3703C54.318 36.1667 53.2868 34.714 51.799 33.7849C50.7454 33.1592 49.8898 32.1886 48.6893 31.8214C47.4953 31.4639 46.4513 30.72 45.2317 30.4486C42.1539 29.9857 39.0219 29.7686 35.9187 30.0782C35.0024 30.1836 34.0733 30.174 33.1506 30.107C32.4323 30.7359 31.6341 31.2691 30.7338 31.6043C29.7249 31.9523 29.1853 32.9804 28.2531 33.4593C27.6592 33.7243 26.9952 33.769 26.3535 33.8424C24.3197 36.1539 22.733 38.89 21.8965 41.8624C21.9891 42.5137 22.5446 42.4945 23.0459 42.4754C23.429 44.7709 22.8192 47.1845 23.7067 49.4034C25.0636 51.1211 26.2577 52.9792 27.9083 54.4415C28.8022 55.6419 30.2006 56.2198 31.4457 56.9637C32.6206 57.6533 34.0222 57.7203 35.2674 58.2343C36.4806 58.7132 37.7066 59.3007 39.0475 59.2017C42.0741 59.0581 45.3466 59.6774 48.1338 58.1705C49.0182 57.7459 50.0781 57.7044 50.8348 57.0371C52.3481 55.7728 54.2286 54.914 55.3588 53.2378C55.6621 52.6472 56.5816 52.66 56.9775 53.1452C57.4979 53.7103 58.1683 54.052 58.842 54.3872C59.0399 54.7639 59.1389 55.179 59.2666 55.5812C61.2684 55.5749 62.239 57.6852 64.0844 58.0939C64.9081 58.311 65.7126 58.5919 66.5427 58.7867C69.9876 59.1251 73.5825 59.6678 76.9444 58.5281C78.2821 58.0651 79.8338 58.0715 80.9257 57.0594C82.1006 56.0538 83.6777 55.6706 84.7728 54.5628C85.9701 53.407 87.1322 52.2002 88.1091 50.8465C89.4501 48.3914 89.8619 45.5148 91.3146 43.1235C90.2833 38.5611 87.659 34.3692 84.0002 31.4575C82.8444 31.3777 81.711 31.0839 80.5457 31.1063C80.3095 30.7742 80.0732 30.4454 79.8338 30.1134ZM48.22 35.0971C49.3757 36.0996 50.6592 36.9297 51.8852 37.8396C52.1566 38.9251 52.6514 39.9053 53.4975 40.6587C54.302 41.3005 53.8902 42.4977 54.4425 43.2352C55.8345 42.8872 57.2297 42.4498 58.7047 42.5711C59.5731 39.1135 62.1368 36.1156 65.4955 34.8672C67.2323 34.034 68.9851 33.0027 70.9805 33.041C72.9983 33.0857 75.0671 32.8431 77.0306 33.4242C78.1959 33.7753 79.3868 34.0371 80.6032 34.117C80.6958 34.2862 80.7884 34.4554 80.881 34.6246C81.4684 34.9024 82.0814 35.1929 82.3623 35.8187C82.9275 36.9297 84.0832 37.4916 84.859 38.4207C85.2166 38.8868 85.9796 39.0847 85.986 39.7616C86.0818 41.0642 86.4138 42.3253 86.6373 43.6088C86.6916 46.9515 84.9612 50.0931 82.5571 52.3247C81.4524 53.0143 80.4084 53.787 79.3612 54.5596C75.5237 56.5582 71.0156 56.3315 66.8684 55.693C65.2114 54.7799 63.5001 53.9658 61.8335 53.075C61.4632 52.9154 61.3099 52.5259 61.1152 52.2066C60.5533 51.0956 59.554 50.2591 59.1421 49.0618C58.8771 48.0178 57.6352 47.9795 56.8051 47.6315C56.6327 47.3601 56.4571 47.0919 56.2783 46.8206C56.0835 46.8461 55.694 46.8972 55.4993 46.9227C55.3971 47.258 55.2886 47.59 55.18 47.9284C54.5574 48.3531 53.887 48.7873 53.5518 49.496C52.942 50.4762 52.8047 51.8362 51.7096 52.4429C50.4485 53.1835 49.1778 53.9115 48.0284 54.8214C46.9589 55.2556 45.8223 55.5365 44.7528 55.9963C41.5409 56.3922 38.2749 56.0538 35.1141 55.3769C35.079 55.2524 35.0056 55.0034 34.9673 54.8821C33.7764 54.534 32.4067 54.3489 31.6022 53.2857C30.804 52.2673 29.942 51.2967 28.7863 50.6677C28.4319 49.3045 26.9984 48.6148 26.8228 47.1718C26.2768 44.4101 26.3247 41.4058 27.5028 38.8038C29.0034 36.8467 31.1169 35.509 33.2017 34.2574C34.6863 33.3986 36.4231 33.2166 38.0897 32.9804C39.3604 32.808 40.6534 32.5781 41.9337 32.792C44.1238 33.2837 46.215 34.1138 48.22 35.0971Z" fill="#011081"/>
<path d="M48.2236 35.0968C46.2187 34.1134 44.1275 33.2834 41.9373 32.7917C40.657 32.5778 39.364 32.8076 38.0933 32.9801C36.4268 33.2163 34.6899 33.3983 33.2054 34.2571C31.1205 35.5086 29.007 36.8464 27.5064 38.8035C26.3284 41.4055 26.2805 44.4098 26.8264 47.1714C27.002 48.6145 28.4355 49.3041 28.7899 50.6674C29.9456 51.2964 30.8077 52.2669 31.6058 53.2854C32.4104 54.3486 33.78 54.5337 34.9709 54.8817C35.0092 55.003 35.0826 55.2521 35.1178 55.3766C38.2785 56.0534 41.5446 56.3919 44.7564 55.996C45.826 55.5362 46.9625 55.2553 48.0321 54.8211C49.1814 53.9112 50.4521 53.1832 51.7132 52.4425C52.8083 51.8359 52.9456 50.4759 53.5554 49.4957C53.8906 48.7869 54.5611 48.3527 55.1836 47.9281C55.2922 47.5897 55.4007 47.2576 55.5029 46.9224C55.6977 46.8969 56.0872 46.8458 56.2819 46.8203C56.4607 47.0916 56.6363 47.3598 56.8087 47.6312C57.6388 47.9792 58.8808 48.0175 59.1457 49.0615C59.5576 50.2587 60.5569 51.0952 61.1188 52.2063C61.3136 52.5255 61.4668 52.915 61.8372 53.0747C63.5037 53.9654 65.215 54.7796 66.872 55.6927C71.0193 56.3312 75.5273 56.5579 79.3649 54.5593C80.4121 53.7866 81.4561 53.014 82.5607 52.3244C84.9648 50.0927 86.6952 46.9511 86.641 43.6084C86.4175 42.325 86.0854 41.0639 85.9897 39.7613C85.9833 39.0844 85.2202 38.8865 84.8627 38.4203C84.0868 37.4913 82.9311 36.9294 82.366 35.8183C82.085 35.1926 81.472 34.902 80.8846 34.6243C80.792 34.4551 80.6994 34.2859 80.6068 34.1166C79.3904 34.0368 78.1996 33.775 77.0342 33.4238C75.0708 32.8428 73.0019 33.0854 70.9841 33.0407C68.9887 33.0024 67.236 34.0336 65.4991 34.8669C62.1405 36.1152 59.5768 39.1132 58.7084 42.5708C57.2333 42.4495 55.8381 42.8869 54.4461 43.2349C53.8938 42.4974 54.3057 41.3001 53.5011 40.6584C52.6551 39.9049 52.1602 38.9248 51.8888 37.8393C50.6628 36.9294 49.3794 36.0993 48.2236 35.0968ZM74.7036 35.4831C76.4468 35.8151 78.2826 36.0705 79.8342 36.99C80.543 37.3508 80.7026 38.2128 81.2805 38.7045C82.3628 39.4963 82.9151 40.8021 83.3429 42.0281C83.41 43.5031 83.5217 45.0004 83.3845 46.4723C82.6757 47.4875 82.1457 48.6049 81.5072 49.6585C80.6547 50.5333 79.5277 51.0856 78.7072 51.9956C78.0335 52.7586 76.9832 52.8959 76.0541 53.1481C74.3045 53.6557 72.4687 53.4227 70.6745 53.544C69.0877 53.6909 67.5967 53.03 66.1089 52.5862C65.3044 52.401 65.1607 51.4496 64.4871 51.0888C63.7272 50.6067 62.7758 50.2524 62.3991 49.3648C61.9425 48.308 61.5179 47.2289 61.205 46.1211C60.9847 45.3548 61.5402 44.6748 61.6552 43.9437C62.0128 39.806 65.6779 36.591 69.5858 35.7545C71.2172 35.1032 72.9987 35.349 74.7036 35.4831ZM41.1934 35.7672C42.429 36.0833 43.6869 36.31 44.9575 36.4154C45.197 36.7123 45.4365 37.0092 45.6727 37.3093C46.5794 37.4594 47.5436 37.6669 47.8948 38.6343C48.1853 38.762 48.4759 38.8897 48.7632 39.0206C49.2421 40.0007 49.9573 40.8308 50.5128 41.7599C51.3812 43.3211 50.8831 45.1473 50.8767 46.8298C50.8895 48.6049 49.4177 49.7862 48.2907 50.9484C47.1701 51.7976 46.0558 52.832 44.6032 53.0236C43.1282 53.2854 41.6244 53.7196 40.1175 53.4195C38.7287 53.1673 37.2952 53.1577 35.9319 52.7873C35.0731 51.6763 33.7385 51.1782 32.6849 50.3098C32.0496 49.4414 31.7144 48.2793 30.581 47.9089C30.2394 46.7372 29.7573 45.5496 29.9009 44.3044C30.0223 43.2381 29.9967 42.159 30.1691 41.099C30.9322 39.4899 32.4359 38.4491 33.879 37.5041C35.0795 36.7602 36.3437 36.0035 37.7836 35.8854C38.9138 35.7577 40.0696 35.4639 41.1934 35.7672Z" fill="#012593"/>
<path d="M74.703 35.4831C72.9981 35.349 71.2166 35.1032 69.5852 35.7545C65.6774 36.591 62.0122 39.806 61.6546 43.9437C61.5397 44.6748 60.9841 45.3548 61.2044 46.1211C61.5173 47.2289 61.9419 48.3081 62.3985 49.3648C62.7752 50.2524 63.7266 50.6068 64.4865 51.0889C65.1601 51.4496 65.3038 52.4011 66.1084 52.5862C67.5961 53.03 69.0871 53.6909 70.6739 53.544C72.4682 53.4227 74.3039 53.6558 76.0535 53.1481C76.9826 52.8959 78.033 52.7586 78.7066 51.9956C79.5271 51.0857 80.6541 50.5333 81.5066 49.6586C82.1451 48.605 82.6751 47.4875 83.3839 46.4723C83.5212 45.0005 83.4094 43.5031 83.3424 42.0281C82.9145 40.8021 82.3622 39.4963 81.2799 38.7045C80.702 38.2129 80.5424 37.3508 79.8336 36.9901C78.282 36.0706 76.4462 35.8152 74.703 35.4831ZM75.9066 39.9465C77.5349 40.5531 77.9915 42.3889 79.3356 43.3626C79.1344 43.3626 78.729 43.3594 78.5246 43.3594C79.3994 44.2087 80.188 45.2591 80.3987 46.485C80.3381 47.7334 78.9684 48.5954 77.7999 48.1389C78.084 48.4709 78.4704 48.6848 78.8375 48.9083C77.3082 49.3776 76.2419 50.8654 74.5913 51.0697C71.9637 50.7313 68.9371 51.3315 66.7852 49.4031C66.7309 49.218 66.6767 49.0296 66.6192 48.8444C66.268 48.7518 65.9104 48.6624 65.556 48.5699C65.9966 48.522 66.4372 48.4741 66.8746 48.4262C66.9097 48.2953 66.98 48.0367 67.0151 47.9058C65.7572 48.3879 64.1864 47.197 64.5631 45.8369C64.9494 44.761 65.7029 43.8447 66.5234 43.0625C66.5074 42.8773 66.4787 42.507 66.4659 42.3218C67.0981 41.4438 67.9218 40.7351 68.7008 39.9976C69.0488 40.087 69.3936 40.1795 69.7384 40.2689C71.2198 38.3342 74.0453 38.9536 75.9066 39.9465Z" fill="#013BA5"/>
<path d="M41.189 35.7673C40.0652 35.464 38.9094 35.7577 37.7792 35.8854C36.3394 36.0035 35.0751 36.7602 33.8746 37.5041C32.4315 38.4491 30.9278 39.4899 30.1648 41.099C29.9923 42.159 30.0179 43.2381 29.8966 44.3045C29.7529 45.5496 30.235 46.7373 30.5766 47.909C31.71 48.2793 32.0452 49.4415 32.6806 50.3099C33.7341 51.1783 35.0687 51.6763 35.9275 52.7874C37.2908 53.1577 38.7243 53.1673 40.1131 53.4195C41.62 53.7196 43.1238 53.2854 44.5988 53.0236C46.0514 52.8321 47.1657 51.7977 48.2863 50.9484C49.4133 49.7863 50.8851 48.605 50.8724 46.8299C50.8787 45.1473 51.3768 43.3211 50.5084 41.7599C49.9529 40.8309 49.2377 40.0008 48.7588 39.0206C48.4715 38.8897 48.1809 38.762 47.8904 38.6343C47.5392 37.6669 46.575 37.4594 45.6683 37.3093C45.4321 37.0092 45.1926 36.7123 44.9532 36.4154C43.6825 36.31 42.4246 36.0834 41.189 35.7673ZM41.0996 38.6503C42.1979 38.928 43.5931 38.5545 44.3976 39.5282C45.4608 40.6106 46.6325 41.629 47.3796 42.9636C47.6861 43.3371 47.5648 43.7458 47.2678 44.0842C47.817 44.6972 48.1522 45.4538 48.4811 46.1977C48.2352 47.4684 46.6389 48.6656 45.5278 47.5706C45.3618 48.0303 45.1958 48.4964 45.0298 48.9594C42.6193 49.7001 40.062 50.1024 37.559 49.6203C37.0705 49.4926 36.8725 48.9785 36.5724 48.6273C36.1159 48.4166 35.6497 48.2219 35.1868 48.0207C34.3854 48.4741 33.2169 48.2283 32.7827 47.3822C32.0835 46.2712 32.9583 45.0101 33.6416 44.1289C33.5458 43.9214 33.3542 43.5063 33.2616 43.2988C33.9768 41.7791 34.842 40.1029 36.4543 39.3814C37.9133 38.7716 39.5129 38.2544 41.0996 38.6503Z" fill="#013EA7"/>
<path d="M41.1035 38.6503C39.5168 38.2545 37.9173 38.7717 36.4582 39.3815C34.8459 40.103 33.9807 41.7792 33.2655 43.2989C33.3581 43.5064 33.5497 43.9214 33.6455 44.129C36.2188 41.1279 40.8577 40.0392 44.4367 41.7792C45.5509 42.3091 46.464 43.168 47.2718 44.0843C47.5687 43.7458 47.69 43.3372 47.3835 42.9636C46.6364 41.6291 45.4647 40.6106 44.4016 39.5283C43.597 38.5546 42.2018 38.9281 41.1035 38.6503Z" fill="#0252B8"/>
<path d="M75.9036 39.9465C74.0423 38.9536 71.2168 38.3342 69.7354 40.269C69.3906 40.1796 69.0458 40.087 68.6978 39.9976C67.9187 40.7351 67.095 41.4439 66.4629 42.3219C66.4757 42.507 66.5044 42.8774 66.5204 43.0626C69.8407 40.0168 75.2651 40.4382 78.5216 43.3595C78.7259 43.3595 79.1314 43.3627 79.3325 43.3627C77.9884 42.3889 77.5319 40.5531 75.9036 39.9465Z" fill="#0254BB"/>
<path d="M6.34298 39.4551C5.98221 41.4633 6.23444 43.5098 6.16739 45.5371C6.19613 47.143 6.02372 48.7681 6.3366 50.358C6.49943 48.9724 6.44196 47.574 6.41642 46.182C6.37811 43.9408 6.59201 41.6931 6.34298 39.4551Z" fill="#191B83"/>
<path d="M106.735 46.1915C106.677 44.1482 106.882 42.0921 106.585 40.0583C106.313 43.2893 106.361 46.5586 106.537 49.7928C106.91 48.6338 106.69 47.3887 106.735 46.1915Z" fill="#21227B"/>
<path d="M100.045 40.1957L99.7005 39.8062C99.7069 42.9797 99.8633 46.1564 99.6877 49.3299L100.023 48.9627C100.451 46.0574 100.259 43.1074 100.045 40.1957Z" fill="#060556"/>
<path d="M99.7007 39.8062C99.0941 40.9938 99.4517 42.3603 99.4389 43.631C99.5698 45.3295 99.3048 47.0311 99.407 48.7296C99.4772 48.8797 99.6177 49.1798 99.6879 49.3299C99.8635 46.1564 99.7071 42.9797 99.7007 39.8062Z" fill="#16157F"/>
<path d="M107.966 40.7034L107.876 41.0482C107.784 41.4281 107.695 41.808 107.612 42.1943C107.755 44.5186 107.695 46.8492 107.653 49.1767C107.746 49.5375 107.841 49.895 107.937 50.2558C108.189 47.0823 108.11 43.8801 107.966 40.7034Z" fill="#010B48"/>
<path d="M78.5218 43.3598C75.2653 40.4385 69.8409 40.0171 66.5206 43.0629C65.7 43.8451 64.9466 44.7614 64.5603 45.8373C64.1835 47.1974 65.7543 48.3882 67.0122 47.9061C67.5677 47.3091 68.0658 46.6674 68.5447 46.0129C70.5082 43.7748 74.2851 44.1388 76.3093 46.1055C76.8105 46.7791 77.2224 47.523 77.797 48.1392C78.9656 48.5957 80.3352 47.7337 80.3959 46.4854C80.1852 45.2594 79.3966 44.209 78.5218 43.3598Z" fill="#01E1FF"/>
<path d="M44.4339 41.7791C40.8549 40.0391 36.216 41.1278 33.6427 44.1289C32.9594 45.0101 32.0847 46.2712 32.7838 47.3822C33.218 48.2283 34.3866 48.4741 35.1879 48.0208C35.8616 47.146 36.4107 46.1563 37.2855 45.4571C39.2394 44.2726 41.8797 44.0268 43.7858 45.4411C44.4243 46.102 44.9415 46.865 45.529 47.5706C46.64 48.6657 48.2363 47.4684 48.4822 46.1978C48.1533 45.4539 47.8181 44.6972 47.269 44.0842C46.4612 43.1679 45.5481 42.3091 44.4339 41.7791Z" fill="#02E2FF"/>
<path d="M5.20648 41.9324C5.13624 41.7441 4.99576 41.3673 4.92553 41.179C4.70204 44.196 4.78186 47.2354 4.89361 50.2557C4.96704 50.1152 5.10751 49.8279 5.17775 49.6874C5.26395 47.1045 5.18094 44.5153 5.20648 41.9324Z" fill="#000651"/>
<path d="M5.53551 46.1821C5.46527 44.7677 5.79092 43.2767 5.20666 41.9326C5.18112 44.5155 5.26413 47.1047 5.17793 49.6876C5.74942 48.6085 5.49081 47.3474 5.53551 46.1821Z" fill="#191B80"/>
<path d="M107.609 42.1943C107.226 44.4867 107.185 46.8939 107.651 49.1767C107.692 46.8492 107.753 44.5186 107.609 42.1943Z" fill="#191C79"/>
<path d="M105.991 42.5229L105.985 42.7177C105.752 45.0164 106.116 47.3439 105.79 49.6234C104.382 51.8583 101.774 53.0524 99.1942 53.2311C99.2261 53.0747 99.29 52.7554 99.3219 52.5958C98.6259 54.9807 97.7543 57.3241 96.5155 59.4856C97.6777 59.543 98.8526 59.6388 100.005 59.4409C102.942 58.8311 105.398 56.2418 105.701 53.2343C106.058 49.6777 106.237 46.0923 105.991 42.5229Z" fill="#A8A7CD"/>
<path d="M98.103 47.0823C97.3017 49.4608 96.3119 51.7883 94.9966 53.9337C91.5581 59.6071 86.0699 63.831 79.9783 66.334C73.8005 68.9329 67.0895 69.9673 60.4328 70.3153C53.5654 70.5803 46.6213 70.2259 39.9167 68.6264C34.6488 67.3557 29.5086 65.2645 25.1602 61.9856C20.2723 58.3747 16.7061 53.1579 14.8128 47.4047C14.832 49.9525 15.5663 52.4332 16.4187 54.8149C18.5674 60.6607 22.8072 65.6444 28.1134 68.8818C35.5875 73.5303 44.5205 75.0756 53.1886 75.4395C62.7028 75.7077 72.5457 74.8616 81.2681 70.7718C87.2671 67.9336 92.4776 63.2308 95.3765 57.2126C96.8707 54.0359 97.9626 50.607 98.103 47.0823Z" fill="#A8A7CD"/>
<path d="M93.5222 44.4932C93.2094 46.115 93.1838 47.8582 93.5382 49.4769C93.7074 47.8231 93.7138 46.147 93.5222 44.4932Z" fill="#21227C"/>
<path d="M76.3115 46.1052C74.2874 44.1386 70.5105 43.7746 68.547 46.0126C69.0195 46.6065 69.3579 47.3568 70.0092 47.7846C71.3693 48.1805 72.9528 48.2411 74.2108 47.5036C74.9483 47.095 75.6251 46.5937 76.3115 46.1052Z" fill="#026BCF"/>
<path d="M43.7858 45.4415C41.8797 44.0271 39.2394 44.2729 37.2855 45.4574C38.2912 46.8079 39.9737 47.4943 41.6403 47.1751C42.7162 47.2261 43.1887 46.1279 43.7858 45.4415Z" fill="#026DD2"/>
<path d="M45.5293 47.5707C44.9418 46.8651 44.4246 46.102 43.7861 45.4412C43.1891 46.1276 42.7166 47.2259 41.6406 47.1748C39.9741 47.494 38.2915 46.8076 37.2858 45.4571C36.411 46.1563 35.8619 47.146 35.1883 48.0208C35.6512 48.222 36.1173 48.4167 36.5739 48.6274C36.874 48.9786 37.0719 49.4927 37.5604 49.6204C40.0634 50.1024 42.6208 49.7002 45.0312 48.9595C45.1973 48.4965 45.3633 48.0304 45.5293 47.5707Z" fill="#0159C1"/>
<path d="M77.7975 48.1393C77.2228 47.5231 76.8109 46.7792 76.3097 46.1055C75.6233 46.594 74.9464 47.0953 74.2089 47.5039C72.951 48.2414 71.3674 48.1808 70.0074 47.7849C69.3561 47.3571 69.0176 46.6068 68.5451 46.0129C68.0662 46.6674 67.5682 47.3092 67.0126 47.9062C66.9775 48.0371 66.9073 48.2957 66.8722 48.4266C66.4348 48.4745 65.9942 48.5224 65.5536 48.5703C65.908 48.6628 66.2656 48.7522 66.6168 48.8448C66.6742 49.03 66.7285 49.2184 66.7828 49.4036C68.9346 51.3319 71.9613 50.7317 74.5888 51.0701C76.2394 50.8658 77.3058 49.378 78.8351 48.9087C78.4679 48.6852 78.0816 48.4713 77.7975 48.1393Z" fill="#0151B7"/>
<path d="M9.99106 52.245C8.77466 51.6384 7.82963 50.6359 6.91653 49.6526C6.974 51.1116 7.03465 52.5803 7.29326 54.0201C7.91902 56.6924 10.1986 58.8922 12.8836 59.4477C14.017 59.6233 15.1664 59.5467 16.3062 59.5083C15.2047 57.5864 14.4416 55.5047 13.7329 53.4167C12.5069 52.9602 11.1564 52.8772 9.99106 52.245Z" fill="#A8A6CF"/>
<path d="M100.129 60.9831C98.6923 60.7979 97.2301 60.7851 95.803 61.0501C97.2397 61.1587 98.7179 61.3598 100.129 60.9831Z" fill="#1A1E7A"/>
<path d="M17.0139 60.8777C15.5995 60.9671 14.1086 60.6127 12.7453 61.0852C14.166 61.2352 15.5963 61.149 17.0203 61.1458L17.0139 60.8777Z" fill="#1E227B"/>
<path d="M60.6155 62.072C59.6641 61.7272 58.6584 61.7591 57.7133 62.1135C58.6807 62.1071 59.6481 62.0943 60.6155 62.072Z" fill="#191A84"/>
<path d="M54.6647 62.1134C54.0453 61.6281 53.0875 61.3823 52.5511 62.1293C53.2567 62.1804 53.9623 62.174 54.6647 62.1134Z" fill="#1A1B83"/>
<path d="M62.5546 62.9593C61.9448 62.5922 61.3158 62.225 60.6134 62.0718C59.6461 62.0941 58.6787 62.1069 57.7113 62.1133C56.6992 62.2218 55.6776 62.2059 54.6623 62.1133C53.9599 62.1739 53.2543 62.1803 52.5488 62.1292C52.3923 62.2729 52.0731 62.5539 51.9134 62.6975C55.4573 62.3016 59.0362 62.3942 62.5546 62.9593Z" fill="#0A0A59"/>
<path d="M2.29709 62.356C2.24282 62.4932 2.13107 62.7646 2.0768 62.9019C2.06083 63.3553 2.04487 63.8086 2.02571 64.2652C2.72491 68.9616 5.78348 72.8822 8.88356 76.3111C13.4044 81.0586 18.6882 85.0143 24.1317 88.6412C23.6879 86.799 23.3144 84.9345 23.1548 83.0476C22.9696 81.2501 22.96 79.4367 23.1388 77.6424C20.8592 79.5452 17.3537 79.7464 14.9847 77.8915C10.4799 74.3636 6.19853 70.4142 3.02502 65.6157C2.27474 64.6898 2.01614 63.5149 2.29709 62.356Z" fill="#A8A7CF"/>
<path d="M85.4506 70.8577C77.2806 75.7456 67.6068 77.2973 58.2203 77.5239C47.6878 77.6453 36.6475 76.4001 27.4431 70.8832C27.2036 71.3174 26.961 71.7516 26.7151 72.189L26.7439 72.205C32.7365 76.0489 39.7284 78.0539 46.7555 78.8744C54.0092 79.7173 61.3779 79.6375 68.5933 78.5265C74.7775 77.5591 80.8372 75.5509 86.1306 72.1731C85.9007 71.7357 85.6773 71.2951 85.4506 70.8577Z" fill="#A8A7CF"/>
<path d="M25.4981 76.4165C24.47 80.733 25.3321 85.2442 26.4846 89.449C27.1008 91.6423 27.8958 93.7782 28.7546 95.8886C29.4761 95.5948 30.2105 95.3426 30.9735 95.183L30.9128 95.084C29.623 93.0247 28.8344 90.7069 27.9852 88.4465C26.5389 84.5897 25.7631 80.5191 25.4981 76.4165Z" fill="#A8A7CF"/>
<path d="M89.0417 88.9604C88.965 88.9317 88.8086 88.871 88.732 88.8423C88.1509 90.528 87.7167 92.2648 87.0686 93.9346C89.3769 96.808 91.9853 99.5122 95.1077 101.508C96.5412 102.344 98.0226 103.283 99.7275 103.369C101.263 103.471 102.802 102.909 103.932 101.872C102.646 101.715 101.343 101.504 100.174 100.914C95.7048 98.7427 91.9789 95.0361 89.875 90.528C89.6259 89.9885 89.3897 89.4393 89.0417 88.9604Z" fill="#A8A7CF"/>
<path d="M83.3021 97.7752C82.5518 97.4975 81.7952 97.242 81.0289 97.009C78.2801 101.836 74.6755 106.201 70.3239 109.671C66.4672 112.733 61.576 114.54 56.6338 114.492C51.2765 114.617 45.9256 112.615 41.8773 109.119C37.8226 105.735 34.4129 101.587 31.8396 96.9771C31.0797 97.2293 30.3199 97.4879 29.5664 97.7625C31.9673 102.756 35.0801 107.439 39.0358 111.338C41.4208 113.694 44.0515 115.887 47.142 117.247C54.1786 120.494 62.8723 119.725 69.2161 115.277C75.3684 110.83 80.0392 104.582 83.3021 97.7752Z" fill="#A8A7CF"/>
<path d="M2.07727 62.9018C1.43555 62.8411 1.41 64.281 2.02619 64.265C2.04534 63.8085 2.06131 63.3551 2.07727 62.9018Z" fill="#050844"/>
<path d="M75.9243 63.6489C75.4805 63.4509 75.0016 63.3616 74.5132 63.3807C73.003 63.4031 71.4737 63.2977 69.9764 63.5755C71.9431 63.8468 73.9481 63.7766 75.9243 63.6489Z" fill="#20217B"/>
<path d="M42.9338 63.6045C40.8969 63.314 38.777 63.2597 36.7401 63.5853C38.793 63.8312 40.881 63.8088 42.9338 63.6045Z" fill="#20207C"/>
<path d="M89.2791 71.139C88.7842 70.6091 88.2542 70.1046 87.6412 69.7119C87.5518 71.0464 88.4745 72.1543 88.8225 73.3963C88.8576 72.6236 89.0492 71.8733 89.2791 71.139Z" fill="#A2A6CD"/>
<path d="M87.8119 79.3792C87.8119 78.3831 87.6523 77.3965 87.3841 76.4387C87.1255 78.6608 87.0073 80.9116 86.4646 83.089C85.4749 87.2778 83.9775 91.3485 82.0044 95.1733C82.7196 95.384 83.4252 95.6234 84.1244 95.8852C86.2315 90.6429 88.0003 85.094 87.8119 79.3792Z" fill="#A7A7CF"/>
<path d="M23.4464 79.7144C23.424 79.0184 23.5422 78.2585 23.1431 77.6423C22.9643 79.4366 22.9739 81.2501 23.159 83.0475C23.5134 81.9716 23.4176 80.8254 23.4464 79.7144Z" fill="#050454"/>
<path d="M89.7754 78.2461L89.5104 78.4536C89.4881 79.6509 89.4817 80.8513 89.4913 82.0517C89.5615 82.1443 89.7052 82.3263 89.7754 82.4189C89.9319 81.0333 89.9414 79.6317 89.7754 78.2461Z" fill="#070655"/>
<path d="M89.5076 78.4531C88.8946 79.5099 88.9552 80.9657 89.4884 82.0513C89.4788 80.8508 89.4852 79.6504 89.5076 78.4531Z" fill="#161784"/>
<path d="M64.3264 83.3669C61.453 83.0508 58.5541 83.3478 55.6711 83.2648C53.3021 83.3829 50.9204 83.0668 48.561 83.3733C49.9562 83.6287 51.377 83.5265 52.7881 83.5234C55.8754 83.4691 58.9627 83.5106 62.05 83.5617C62.8131 83.5808 63.5761 83.501 64.3264 83.3669Z" fill="#1B1A83"/>
<path d="M68.581 85.3494C63.7601 84.7907 58.8977 84.7173 54.048 84.746C50.3286 84.912 46.574 84.9056 42.8993 85.5889C41.1337 85.9337 39.6332 87.8588 40.2398 89.6659C41.2167 91.208 41.7722 92.9671 42.7715 94.4932C44.5818 97.5326 47.3051 100.115 50.651 101.364C53.7192 102.516 57.1258 102.631 60.312 101.945C64.255 101.105 67.6009 98.3978 69.7496 95.0519C70.966 93.2896 71.6332 91.2335 72.6996 89.3849C73.0157 88.4303 72.5016 87.4662 71.927 86.7287C71.0969 85.7613 69.7879 85.4835 68.581 85.3494Z" fill="#01CFFF"/>
<path d="M74.8036 90.1514C74.9409 89.4522 74.9568 88.7243 74.7876 88.0347C74.4045 88.5742 74.197 89.7842 74.8036 90.1514Z" fill="#070939"/>
<path d="M72.6982 89.3853C71.6318 91.2338 70.9645 93.2899 69.7481 95.0522C67.5995 98.3981 64.2536 101.106 60.3106 101.945C57.1243 102.632 53.7178 102.517 50.6496 101.364C47.3037 100.116 44.5804 97.5329 42.7701 94.4935C41.7708 92.9674 41.2153 91.2083 40.2383 89.6662C40.2032 91.1444 40.746 92.5428 41.1451 93.9412C42.4445 97.9767 44.6027 101.958 48.1498 104.432C51.4159 106.766 55.6749 107.331 59.5635 106.626C62.9956 105.971 66.0638 103.886 68.139 101.102C70.1249 98.4524 71.4083 95.3364 72.2352 92.1437C72.4683 91.2402 72.762 90.3303 72.6982 89.3853Z" fill="#0187D1"/>
<path d="M107.902 95.6909C107.678 96.7317 107.704 97.7949 107.924 98.8357C108.151 97.7981 108.148 96.7221 107.902 95.6909Z" fill="#000A45"/>
<path d="M101.87 104.93C100.702 104.496 99.428 104.451 98.2499 104.885C99.4567 104.901 100.664 104.92 101.87 104.93Z" fill="#1A1882"/>
<path d="M102.298 105.026L101.87 104.93C100.663 104.921 99.4566 104.901 98.2498 104.885L98.0582 104.937L97.7901 105.202C99.2746 105.384 100.877 105.642 102.298 105.026Z" fill="#010657"/>
<path d="M67.9454 134.507C60.6757 134.034 53.3709 133.958 46.098 134.437C41.7624 134.785 37.382 135.174 33.1901 136.41C32.2418 136.748 31.1468 137.045 30.5274 137.901C30.1698 138.791 31.1372 139.312 31.7949 139.634C33.4806 140.394 35.3164 140.742 37.1202 141.093C45.4499 142.501 53.9296 142.575 62.3519 142.377C67.5974 142.137 72.8717 141.786 78.0023 140.618C79.4166 140.25 80.9332 139.931 82.0793 138.977C82.6795 138.469 82.2932 137.604 81.709 137.278C80.7129 136.671 79.5635 136.378 78.4493 136.062C75.0076 135.196 71.4701 134.848 67.9454 134.507Z" fill="#A5BFE4"/>
</svg>
