<svg width="99" height="111" viewBox="0 0 99 111" fill="none" xmlns="http://www.w3.org/2000/svg">
<path d="M61.5347 1.56712C59.8311 0.715312 57.8899 0.500912 56.024 0.257537C55.8936 0.315483 55.6358 0.428479 55.5054 0.486425C54.1118 1.08327 52.5559 0.619702 51.0899 0.715314C49.7137 0.616805 48.2447 1.08038 46.9409 0.495117C46.8134 0.434273 46.5643 0.315482 46.4397 0.254639C44.4376 0.550165 42.2531 0.671854 40.5234 1.82209C38.9733 2.897 38.5329 4.80923 37.8462 6.45201C34.0102 7.48925 30.2581 8.91184 26.8422 10.966C23.2176 13.1187 20.0219 16.0103 17.565 19.4407C16.9392 20.2838 16.4611 21.2284 15.815 22.0599C15.4528 18.7309 15.4123 15.3729 15.1776 12.0351C15.024 10.8646 13.6739 10.0012 12.5584 10.4011C12.0166 10.5401 11.6226 10.9631 11.243 11.3485C9.87258 12.7711 9.08163 14.6978 8.92227 16.6564C8.51375 20.588 8.08783 24.5197 7.6967 28.4543C7.688 28.8106 7.51128 29.1178 7.23893 29.3409C5.71494 30.7953 4.70377 32.8205 4.61106 34.9385C4.59078 35.7468 4.40244 36.5639 4.46907 37.3693C4.53282 37.5403 4.6603 37.8822 4.72404 38.0531C5.25425 39.2729 4.95873 40.6259 5.02247 41.9094C4.98191 42.967 5.21659 44.1114 4.69797 45.0907C4.63423 45.2182 4.50675 45.4789 4.44011 45.6064C4.5618 47.4549 4.59078 49.3411 5.31801 51.0795C2.13964 51.966 -0.172422 55.1386 0.0101094 58.4416C0.241895 61.2346 1.6413 63.79 3.14501 66.0992C7.71119 72.6819 14.2707 77.5233 20.8158 81.9881C21.5633 82.5907 22.7425 82.8805 22.9569 83.9409C25.1589 90.5352 28.6327 96.7876 33.5263 101.768C35.5429 103.819 37.6927 105.787 40.2162 107.198C44.7853 109.779 50.2844 110.735 55.4388 109.686C59.9354 108.855 64.0612 106.517 67.3091 103.33C72.1302 98.92 75.7374 93.3166 78.2465 87.3105C81.025 90.6511 84.3859 93.6875 88.474 95.2955C88.6015 95.2781 88.8565 95.2433 88.9869 95.2288L89.1607 95.1825C90.2298 94.7885 91.3858 94.829 92.4463 95.223L92.8345 95.31C95.4247 94.7189 97.5513 92.3199 97.9396 89.6921C97.7397 88.7475 97.7165 87.7827 97.9193 86.8382C97.6209 84.2016 96.5576 81.707 95.3581 79.3631C91.7132 72.6848 86.4198 67.0958 80.9265 61.9067C83.0966 60.1944 84.9335 58.0968 86.4952 55.8224C87.9264 55.8571 89.3664 55.9991 90.7919 55.8224C93.3473 55.3994 95.6913 53.7537 96.8676 51.4329C97.8556 49.6627 97.9106 47.5795 97.9512 45.6064C97.8643 45.279 97.7773 44.9545 97.6933 44.6271C97.2703 42.5555 97.308 40.371 97.6556 38.2907C97.731 37.9401 97.8121 37.5953 97.8961 37.2505C98.0004 35.1036 97.7368 32.8234 96.5402 30.9778C96.0708 30.1753 95.3581 29.5668 94.7902 28.8425C94.3353 24.624 93.9065 20.3968 93.4487 16.1783C93.1967 14.1183 92.1768 12.1424 90.6036 10.7835C89.7749 10.0592 88.4132 10.1867 87.7178 11.0385C86.9703 11.8787 87.2716 13.0782 87.1442 14.098C86.8921 16.8012 86.979 19.5305 86.6111 22.225C83.1951 15.9263 77.3193 11.2239 70.7453 8.52939C68.7462 7.68627 66.6746 7.03437 64.5856 6.4578C63.8758 4.67595 63.334 2.57829 61.5347 1.56712ZM60.0571 2.93756C61.3696 3.38085 61.9519 4.731 62.3807 5.93049C55.0331 4.54847 47.4045 4.49922 40.0627 5.95367C40.4741 4.7281 41.0594 3.34608 42.4066 2.92307C45.2952 2.0307 48.349 1.86555 51.3535 1.81629C54.2769 1.90321 57.2525 2.04229 60.0571 2.93756ZM56.6093 5.54804C53.034 5.55963 49.4558 5.58861 45.8776 5.54225C49.4558 5.52197 53.034 5.493 56.6093 5.54804ZM47.6681 6.54183C47.758 6.61136 47.9376 6.75043 48.0274 6.81997C54.9173 6.43173 61.9201 7.26037 68.4246 9.62168C74.5611 11.8555 80.2341 15.7582 83.847 21.2747C87.7903 27.1447 89.1665 34.3474 89.1665 41.3184C89.1549 41.7877 89.1839 42.2745 89.0274 42.7265C88.8999 45.9251 87.9091 49.0368 86.5531 51.9197C83.9223 57.3811 79.1939 61.6489 73.7498 64.2246C65.8344 67.9361 56.9019 68.7039 48.2679 68.4605C40.4017 68.1302 32.295 66.7279 25.5123 62.5094C20.697 59.5715 16.8493 55.0488 14.8994 49.7438C14.1258 47.5824 13.4595 45.3312 13.4421 43.0191C13.0481 41.1214 13.3436 39.1454 13.4537 37.2245C13.9288 29.6364 16.8291 22.0019 22.3977 16.6882C28.4879 10.8386 36.8582 8.01656 45.1069 7.04306L44.8201 6.56501C45.698 6.16807 46.8105 6.029 47.6681 6.54183ZM90.366 13.2781C91.1193 14.3849 91.6176 15.6655 91.6698 17.0127C91.9711 20.5649 92.5535 24.0996 92.6838 27.6633C92.6085 27.6517 92.4578 27.6285 92.3825 27.6169L92.3999 27.53C91.1975 27.22 89.9662 27.0288 88.7261 26.9274C88.5436 26.3334 88.2741 25.7337 88.3842 25.0992C88.5841 23.1638 88.561 21.2139 88.7203 19.2756C88.9173 16.8737 88.8072 14.437 89.265 12.0612C89.633 12.464 90.0009 12.8725 90.366 13.2781ZM13.5464 16.1233C13.6478 19.3219 13.981 22.509 14.0187 25.7105C14.0187 26.1625 13.7811 26.5681 13.6217 26.9795C12.2861 26.9998 10.9736 27.2866 9.70165 27.6778C9.71614 27.4141 9.748 26.8897 9.76539 26.629C10.0377 23.4912 10.4579 20.3678 10.7157 17.23C10.8345 15.8277 11.2314 14.4399 12.0572 13.2868C12.4338 12.8522 12.8221 12.4321 13.2248 12.0265C13.4334 13.3824 13.4334 14.7586 13.5464 16.1233ZM94.4367 31.2936C96.262 33.316 96.0679 36.2307 96.1809 38.7658L96.1867 38.5891C96.4098 41.8283 96.2475 45.082 95.923 48.3096C95.6478 51.0389 93.4198 53.3886 90.7542 53.942C89.7083 54.1216 88.6421 54.0347 87.5875 53.9826C88.7116 52.0211 89.5026 49.8945 90.1342 47.7302C90.3805 46.6379 90.6412 45.5485 90.7687 44.433L90.4645 44.7662C90.4008 44.63 90.2733 44.3577 90.2095 44.2215C90.1168 42.6801 90.3573 41.1358 90.2385 39.5945C90.2501 38.4413 89.9256 37.2013 90.4761 36.1235L90.789 36.477C90.5514 33.9215 90.1342 31.3719 89.3722 28.9207C91.3105 28.9207 93.2054 29.7928 94.4367 31.2936ZM13.051 28.912C11.7588 33.2088 11.3734 37.7286 11.4429 42.1992C11.4951 44.3287 11.9384 46.4177 12.4628 48.4748C13.106 50.3696 13.7985 52.2587 14.798 54.0029C13.7637 54.0376 12.7207 54.1072 11.6921 53.9478C9.25547 53.4437 7.18678 51.4474 6.6189 49.0224C6.38422 47.7157 6.32917 46.3829 6.27702 45.0588C6.21038 42.1789 6.17849 39.2932 6.33495 36.4161C6.45664 35.2137 6.46243 33.9534 7.00423 32.8466C8.04437 30.5143 10.4868 28.9005 13.051 28.912ZM5.75549 35.8048C5.98148 37.8358 5.78737 39.8755 5.82214 41.9094C5.84531 43.1727 5.89747 44.4417 5.7497 45.6991C5.46577 44.2563 5.62221 42.7815 5.59614 41.3242C5.65698 39.4844 5.42809 37.6272 5.75549 35.8048ZM96.8589 41.9181C96.8183 43.0046 97.0182 44.1346 96.6792 45.1863C96.5199 42.2513 96.4764 39.2845 96.7227 36.3524C96.9922 38.198 96.8067 40.0638 96.8589 41.9181ZM6.32627 52.7251C7.23313 53.7131 8.25299 54.6258 9.49594 55.1676C11.2546 56.0657 13.2682 55.947 15.1776 55.8629C15.7889 56.2888 16.4553 56.6655 16.9218 57.2594C18.7123 59.6034 20.8911 61.6402 23.3104 63.3235C22.05 65.4907 21.2388 67.9274 21.0389 70.4336L20.9983 70.4596C21.3605 71.0188 21.2533 71.7084 21.2735 72.34C21.2475 73.3483 21.3344 74.3884 21.0128 75.3648C21.1577 77.0771 21.4966 78.7692 21.8994 80.4409C16.9594 77.1496 12.1644 73.5598 8.06176 69.2515C5.24846 66.1397 2.47283 62.5818 1.83832 58.3199C1.27914 58.3343 1.30231 57.0277 1.88467 57.0827C1.93392 56.9581 2.03533 56.7119 2.08458 56.5873C2.69012 54.6663 4.38506 53.1945 6.32627 52.7251ZM90.8643 55.3414C89.5837 55.6833 88.2422 55.5008 86.9385 55.4023C88.2336 55.1618 89.5605 55.1734 90.8643 55.3414ZM15.4383 55.2458L15.4441 55.4892C14.1519 55.4921 12.8539 55.5703 11.5646 55.4341C12.8018 55.0053 14.1548 55.3269 15.4383 55.2458ZM81.0192 64.5578C85.2609 68.7155 89.3461 73.1049 92.5129 78.1549C94.3556 81.1479 95.9086 84.4479 96.2186 87.9913C96.3808 89.6776 95.5841 91.2885 94.4193 92.4619L94.3179 92.4474C93.2923 93.389 91.8958 93.899 90.5022 93.8063C88.955 93.728 87.6106 92.8762 86.3097 92.1171C83.4762 90.3063 81.109 87.8523 79.0143 85.2447C79.6024 83.7294 79.9965 82.1532 80.5238 80.6234L80.4542 80.5742C81.0337 78.7025 81.3032 76.741 81.4683 74.794C81.4046 74.71 81.2742 74.5449 81.2104 74.4608C80.7266 73.4757 80.6715 72.1546 81.2278 71.1956L81.4683 71.0072C81.364 69.5093 81.0482 68.0404 80.6049 66.6062C80.2891 65.4791 79.4518 64.4738 79.5329 63.2627C80.0892 63.6191 80.5701 64.0768 81.0192 64.5578ZM77.5453 64.3028C77.751 64.6998 77.9539 65.0996 78.1625 65.4965C78.6753 66.7366 79.2345 68.0085 79.2982 69.3674C79.5416 70.2365 79.6865 71.1318 79.6865 72.0358C79.8574 77.222 78.2523 82.2575 76.34 87.0149C75.7055 86.7774 75.0652 86.5601 74.4162 86.3688C72.081 85.6213 69.7052 84.9984 67.2975 84.5319C67.4742 83.6193 67.7089 82.7211 67.8828 81.8113C67.3323 81.4782 67.5206 80.3801 67.8683 79.8904C67.4858 77.8768 65.8228 76.1761 63.7946 75.8168C59.779 75.1736 55.7053 75.0519 51.6462 75.0635C47.2944 75.049 42.9223 75.1156 38.6198 75.8226C36.6091 76.1645 34.9692 77.8623 34.5578 79.8383C34.2478 81.3739 34.7896 82.8891 35.1343 84.3668C32.7556 84.9405 30.3914 85.5692 28.0533 86.2877L28.1083 86.3775C27.4159 86.5224 26.7495 86.7513 26.0947 87.0178C25.3153 85.1027 24.5939 83.1644 24.0347 81.1739C22.9888 77.3582 22.2065 73.2642 23.1394 69.3471C23.2003 68.0056 23.7421 66.7424 24.2694 65.5255L24.2433 65.511C24.4664 65.1141 24.6866 64.72 24.9039 64.326C33.2569 69.3326 43.2758 70.4625 52.8341 70.3524C61.3522 70.1467 70.1311 68.7386 77.5453 64.3028ZM58.3767 75.6545C57.6958 75.7762 57.0033 75.8487 56.3109 75.8313C53.5092 75.7849 50.7074 75.7473 47.9057 75.7965C46.6251 75.7994 45.3358 75.8921 44.0697 75.6603C46.2108 75.3822 48.3722 75.669 50.522 75.5618C53.1383 75.6372 55.7691 75.3677 58.3767 75.6545ZM62.2359 77.4538C63.3311 77.5755 64.519 77.8275 65.2723 78.7054C65.7938 79.3747 66.2603 80.2497 65.9734 81.116C66.0314 81.9736 65.7648 82.7993 65.5533 83.6193C64.8029 86.5166 63.6382 89.3444 61.8361 91.7492C59.9528 94.2756 57.1685 96.1676 54.0538 96.7615C50.5249 97.4018 46.6599 96.889 43.6959 94.7711C40.477 92.5256 38.5184 88.9127 37.3392 85.2505C36.977 83.9814 36.4845 82.7124 36.5164 81.371C35.9659 79.7311 37.3276 77.984 38.9298 77.6711C42.2646 77.051 45.6719 77.0568 49.0473 76.9062C53.4483 76.8801 57.8609 76.9467 62.2359 77.4538ZM35.6616 86.2298C36.2701 87.8175 36.8843 89.4139 37.7564 90.88C39.7498 94.4292 43.0353 97.3902 47.051 98.3724C51.3101 99.4155 56.108 98.9229 59.7645 96.3791C63.1949 93.983 65.4143 90.2165 66.6978 86.2993C69.004 86.7571 71.2813 87.3626 73.5325 88.0348C74.2279 88.2463 74.9146 88.4781 75.5954 88.7301C72.6344 94.9072 68.3956 100.577 62.8125 104.613C57.0555 108.649 49.1661 109.347 42.7804 106.401C39.9758 105.167 37.5884 103.176 35.4241 101.038C31.8343 97.5003 29.0094 93.25 26.8306 88.7186C27.5144 88.4694 28.2039 88.2347 28.8935 88.0058C31.1158 87.3047 33.3612 86.6325 35.6616 86.2298Z" fill="#040473"/>
<path d="M56.0256 0.257903C52.8473 -0.0781859 49.6168 -0.0926732 46.4413 0.255005C46.5659 0.315849 46.8151 0.43464 46.9425 0.495484C49.7964 0.394077 52.6532 0.43464 55.507 0.486792C55.6374 0.428846 55.8953 0.31585 56.0256 0.257903Z" fill="#01074D"/>
<path d="M55.506 0.486947C52.6521 0.434795 49.7954 0.394232 46.9415 0.495639C48.2453 1.0809 49.7142 0.617327 51.0905 0.715836C52.5565 0.620224 54.1124 1.0838 55.506 0.486947Z" fill="#161979"/>
<path d="M60.0593 2.93791C57.2547 2.04264 54.2791 1.90357 51.3557 1.81665C48.3512 1.8659 45.2974 2.03105 42.4088 2.92343C41.0615 3.34644 40.4763 4.72846 40.0649 5.95403C47.4067 4.49957 55.0353 4.54883 62.3829 5.93085C61.9541 4.73136 61.3718 3.3812 60.0593 2.93791Z" fill="#FFFFFE"/>
<path d="M56.6105 5.54862C53.0352 5.49357 49.457 5.52255 45.8788 5.54283C49.457 5.58919 53.0352 5.56021 56.6105 5.54862Z" fill="#8281BA"/>
<path d="M63.0797 20.8928C58.0036 19.7426 52.7681 19.5253 47.5848 19.7513C42.1494 20.1395 36.6735 21.1159 31.7017 23.4193C27.6628 25.2272 24.018 28.1072 21.7262 31.9316C19.898 35.0173 18.9853 38.6012 18.8955 42.1765C19.2403 40.7858 19.4779 39.369 19.8719 37.9899C20.631 35.2925 22.071 32.8095 23.9166 30.7118C26.3648 27.9768 29.5519 25.9863 32.9157 24.5753C40.6515 21.4288 49.216 20.8552 57.4589 21.6432C64.1198 22.3907 70.9517 24.2363 76.2306 28.5475C79.551 31.1899 81.9326 34.9941 82.8684 39.1344C83.0799 40.0847 83.2074 41.0524 83.4276 41.9998C83.5029 36.9179 81.4371 31.7925 77.7981 28.2288C73.849 24.2624 68.46 22.0923 63.0797 20.8928Z" fill="#8281BA"/>
<path d="M47.6685 6.54221C46.8108 6.02938 45.6983 6.16846 44.8204 6.56539C45.7707 6.56829 46.7181 6.53931 47.6685 6.54221Z" fill="#1A1880"/>
<path d="M48.0291 6.82034C47.9392 6.7508 47.7596 6.61173 47.6698 6.5422C46.7195 6.5393 45.772 6.56827 44.8217 6.56538L45.1085 7.04343C46.082 6.95651 47.0556 6.90726 48.0291 6.82034Z" fill="#050550"/>
<path d="M68.4241 9.62189C61.9196 7.26057 54.9168 6.43193 48.0269 6.82017C47.0534 6.90709 46.0799 6.95635 45.1064 7.04327C36.8578 8.01677 28.4874 10.8388 22.3972 16.6885C16.8286 22.0021 13.9284 29.6366 13.4532 37.2247C13.3431 39.1456 13.0476 41.1216 13.4416 43.0193C15.1597 48.2403 18.396 52.9745 22.8318 56.2514C26.778 59.2269 31.4427 61.1247 36.2232 62.2778C42.3076 63.7294 48.6093 64.051 54.8414 63.8105C60.8824 63.4947 66.9725 62.556 72.5788 60.1975C78.1069 57.926 83.0874 54.0929 86.2078 48.9443C87.4015 46.9973 88.2997 44.8852 89.0269 42.7267C89.1834 42.2747 89.1544 41.788 89.166 41.3186C89.166 34.3476 87.7898 27.1449 83.8465 21.2749C80.2336 15.7584 74.5606 11.8557 68.4241 9.62189ZM75.8354 24.1404C80.1698 27.0551 83.4206 31.5662 84.6375 36.6626C85.5357 40.5102 85.8805 44.7142 84.2956 48.4373C82.847 52.1864 79.6889 55.133 75.9687 56.5846C71.0259 58.5577 65.5384 58.4794 60.3406 57.7986C59.1585 57.5581 57.8981 57.561 56.7682 57.1351C53.5753 56.6222 50.3274 56.5382 47.1114 56.8975C43.0204 57.8101 38.7845 58.3577 34.5689 58.2042C30.0954 58.0303 25.4452 56.8772 21.9916 53.8843C19.2478 51.5258 17.5442 48.0809 17.1154 44.5085C16.7011 38.7631 18.2512 32.7512 22.0003 28.2951C25.7726 23.7695 31.2891 21.0779 36.8867 19.551C42.7335 17.9662 48.8469 17.5982 54.8762 17.885C62.1919 18.3283 69.6844 19.9769 75.8354 24.1404Z" fill="white"/>
<path d="M94.4375 31.294C93.2061 29.7932 91.3112 28.9211 89.3729 28.9211C90.1349 31.3723 90.5521 33.9219 90.7897 36.4774C90.9838 39.1197 91.1577 41.7968 90.7694 44.4334C90.642 45.5489 90.3812 46.6383 90.1349 47.7306C90.106 47.8754 90.048 48.1652 90.019 48.3071C92.3601 48.1449 94.7272 47.0613 96.0049 45.0332C96.3004 42.9645 95.9701 40.8523 96.1816 38.7662C96.0686 36.2311 96.2628 33.3164 94.4375 31.294Z" fill="white"/>
<path d="M13.0525 28.9124C10.4884 28.9008 8.04591 30.5146 7.00577 32.847C6.46397 33.9538 6.45818 35.2141 6.33649 36.4165C6.18004 39.2935 6.21191 42.1793 6.27855 45.0592C7.10718 45.9516 7.96479 46.8613 9.06867 47.4118C10.1262 47.9855 11.3518 48.0608 12.4643 48.4751C11.9399 46.418 11.4966 44.3291 11.4445 42.1995C11.3749 37.729 11.7603 33.2091 13.0525 28.9124Z" fill="white"/>
<path d="M6.3268 52.7253C4.3856 53.1947 2.69067 54.6666 2.08513 56.5875C1.83017 57.6392 2.06485 58.7054 2.74572 59.5456C5.62566 63.9003 9.51096 67.4843 13.5991 70.6858C15.7489 72.3692 18.9302 72.1866 20.9988 70.4598L21.0394 70.4338C21.2393 67.9276 22.0506 65.4909 23.3109 63.3237C20.8916 61.6404 18.7129 59.6036 16.9223 57.2596C16.4558 56.6657 15.7895 56.2891 15.1781 55.8631C13.2688 55.9472 11.2552 56.066 9.49648 55.1678C8.25352 54.626 7.23367 53.7133 6.3268 52.7253Z" fill="white"/>
<path d="M92.5137 78.1552C89.347 73.1052 85.2617 68.7158 81.0201 64.5581C80.8114 65.2245 80.6376 65.9054 80.6057 66.6065C81.049 68.0407 81.3648 69.5096 81.4691 71.0075C81.6198 72.265 81.6111 73.5369 81.4691 74.7943C81.304 76.7413 81.0345 78.7028 80.4551 80.5745L80.5246 80.6238C80.5941 80.6498 80.7361 80.7049 80.8056 80.731C81.1215 81.1656 81.3359 81.6639 81.5618 82.1535C83.4712 86.2446 86.8524 89.6084 90.9086 91.5785C91.969 92.1145 93.1511 92.3058 94.3188 92.4477L94.4202 92.4622C95.5849 91.2888 96.3816 89.6779 96.2194 87.9916C95.9094 84.4482 94.3564 81.1482 92.5137 78.1552Z" fill="white"/>
<path d="M78.1643 65.4968C73.3605 68.5622 67.8614 70.3846 62.2493 71.2625C55.7014 72.2708 49.0143 72.3432 42.4316 71.5783C36.0546 70.8337 29.7095 69.0142 24.2712 65.5258C23.7439 66.7427 23.2021 68.0059 23.1413 69.3474C23.3817 73.0704 24.0858 76.7645 25.3983 80.2645C26.169 82.3158 26.8846 84.4192 28.0551 86.288C30.3933 85.5695 32.7575 84.9407 35.1362 84.3671C34.7914 82.8894 34.2496 81.3741 34.5596 79.8386C34.971 77.8626 36.6109 76.1648 38.6217 75.8229C42.9242 75.1159 47.2962 75.0493 51.648 75.0638C55.7072 75.0522 59.7808 75.1739 63.7965 75.8171C65.8246 76.1764 67.4877 77.8771 67.8701 79.8907C68.0237 80.5165 68.0092 81.1771 67.8846 81.8116C67.7108 82.7214 67.4761 83.6196 67.2993 84.5322C69.707 84.9987 72.0828 85.6216 74.4181 86.3691C76.2086 82.8981 77.5674 79.204 78.4656 75.4028C78.9582 73.4268 79.0654 71.3842 79.3 69.3676C79.2363 68.0088 78.6771 66.7369 78.1643 65.4968Z" fill="white"/>
<path d="M35.6621 86.23C33.3616 86.6327 31.1162 87.3049 28.8939 88.006C31.2292 92.1898 34.3235 95.9534 38.0031 99.0246C41.6769 102.197 46.5328 104.014 51.3945 103.901C55.8796 103.944 60.3183 102.304 63.8182 99.5258C67.7673 96.3764 71.0384 92.4158 73.533 88.035C71.2817 87.3628 69.0045 86.7573 66.6982 86.2995C65.4147 90.2167 63.1953 93.9832 59.7649 96.3793C56.1085 98.9231 51.3105 99.4157 47.0514 98.3727C43.0357 97.3905 39.7502 94.4294 37.7568 90.8802C36.8847 89.4141 36.2705 87.8177 35.6621 86.23Z" fill="white"/>
<path d="M90.3657 13.2786C90.0007 12.873 89.6327 12.4645 89.2648 12.0618C88.807 14.4376 88.9171 16.8742 88.7201 19.2761C88.5607 21.2144 88.5839 23.1643 88.384 25.0997C88.2739 25.7342 88.5433 26.334 88.7259 26.9279C89.9659 27.0293 91.1973 27.2206 92.3997 27.5306C92.4663 27.2206 92.5329 26.9105 92.5967 26.6005C91.6985 26.0645 90.6787 25.5459 90.2064 24.555C89.5545 23.2889 89.795 21.8257 89.8674 20.4669C90.0731 18.0737 89.9833 15.6573 90.3657 13.2786Z" fill="#0288D2"/>
<path d="M13.5476 16.1237C13.4346 14.759 13.4346 13.3828 13.226 12.0269C12.8233 12.4325 12.4351 12.8526 12.0584 13.2872C12.4351 15.8658 12.3539 18.4792 12.6002 21.0694C12.7016 22.2863 12.832 23.6132 12.1482 24.6997C11.6557 25.6472 10.6561 26.131 9.76663 26.6294C9.74925 26.8901 9.71738 27.4145 9.70289 27.6782C10.9748 27.2871 12.2873 27.0002 13.623 26.9799C13.7823 26.5685 14.0199 26.1629 14.0199 25.7109C13.9822 22.5094 13.649 19.3223 13.5476 16.1237Z" fill="#0088D1"/>
<path d="M91.6693 17.013C91.6171 15.6657 91.1188 14.3851 90.3655 13.2783C89.983 15.657 90.0729 18.0734 89.8672 20.4666C89.7947 21.8254 89.5542 23.2886 90.2061 24.5547C90.6784 25.5456 91.6983 26.0642 92.5964 26.6002C92.5327 26.9102 92.4661 27.2202 92.3994 27.5302L92.382 27.6172C92.4574 27.6288 92.608 27.6519 92.6833 27.6635C92.553 24.0998 91.9706 20.5651 91.6693 17.013Z" fill="#02D0FF"/>
<path d="M12.6002 21.0691C12.354 18.4789 12.4351 15.8655 12.0584 13.2869C11.2327 14.44 10.8358 15.8278 10.717 17.2301C10.4591 20.3679 10.039 23.4912 9.76665 26.629C10.6561 26.1307 11.6557 25.6468 12.1482 24.6994C12.832 23.6129 12.7016 22.2859 12.6002 21.0691Z" fill="#00D0FF"/>
<path d="M75.8381 24.1402C69.6871 19.9768 62.1947 18.3282 54.8789 17.8849C48.8496 17.5981 42.7362 17.9661 36.8894 19.5509C31.2918 21.0778 25.7753 23.7694 22.003 28.295C18.2539 32.7511 16.7038 38.763 17.1181 44.5084C17.5469 48.0808 19.2505 51.5257 21.9943 53.8842C25.4479 56.8771 30.0981 58.0302 34.5716 58.2041C38.7872 58.3576 43.0231 57.81 47.1141 56.8974C47.259 56.767 47.5487 56.512 47.6907 56.3816C48.1774 55.7037 49.0466 55.9268 49.6087 56.3672C50.53 56.4512 51.4572 56.4657 52.3756 56.3672C53.2332 56.0456 54.1459 56.0166 55.0093 56.3295C55.6467 56.4686 56.2175 56.8018 56.7709 57.1349C57.9008 57.5609 59.1612 57.558 60.3433 57.7984C65.5411 58.4793 71.0286 58.5575 75.9714 56.5845C79.6916 55.1329 82.8497 52.1863 84.2983 48.4372C85.8832 44.7141 85.5384 40.5101 84.6402 36.6625C83.4233 31.5661 80.1725 27.055 75.8381 24.1402ZM63.0812 20.8924C68.4616 22.0918 73.8506 24.2619 77.7996 28.2284C81.4387 31.7921 83.5045 36.9174 83.4291 41.9993C83.2089 41.0519 83.0814 40.0842 82.8699 39.1339C81.5517 41.304 81.1779 43.9145 79.961 46.1425C79.0745 47.371 78.0198 48.4662 76.9333 49.515C75.9395 50.5204 74.5083 50.868 73.4421 51.7807C72.4512 52.6991 71.0431 52.6934 69.8291 53.1135C66.7782 54.1478 63.5158 53.6553 60.3896 53.3481C59.6363 53.1714 58.9062 52.9165 58.1587 52.7194C56.484 52.3486 55.6032 50.4334 53.7866 50.4392C53.6707 50.0742 53.5809 49.6975 53.4013 49.3556C52.7899 49.0514 52.1815 48.7414 51.7092 48.2286C51.35 47.7882 50.5155 47.7766 50.2403 48.3126C49.2146 49.8337 47.5081 50.6131 46.1348 51.7604C45.4481 52.366 44.4862 52.4036 43.6837 52.789C41.1543 54.1565 38.1845 53.5944 35.4379 53.7248C34.221 53.8146 33.1084 53.2815 32.0075 52.8469C30.8775 52.3804 29.6056 52.3196 28.5394 51.6938C27.4094 51.0187 26.1404 50.4943 25.3291 49.4049C23.8312 48.0779 22.7476 46.3917 21.5163 44.8329C20.7108 42.8193 21.2642 40.6289 20.9165 38.5457C20.4616 38.5631 19.9575 38.5805 19.8735 37.9894C19.4794 39.3686 19.2419 40.7854 18.8971 42.1761C18.9869 38.6008 19.8996 35.0168 21.7278 31.9312C24.0195 28.1067 27.6644 25.2267 31.7032 23.4188C36.675 21.1154 42.151 20.1391 47.5864 19.7508C52.7697 19.5248 58.0051 19.7421 63.0812 20.8924ZM84.872 40.3768C85.0458 41.8777 85.04 43.3987 84.8865 44.8996C84.5649 43.4306 84.5881 41.8487 84.872 40.3768ZM68.902 57.7608C67.1085 57.8767 65.289 57.9404 63.5042 57.6941C64.8631 57.4421 66.2509 57.5377 67.6213 57.5174C68.0646 57.5 68.4992 57.5811 68.902 57.7608ZM38.9639 57.7202C37.101 57.9056 35.2061 57.9259 33.3431 57.7028C35.1916 57.4073 37.1154 57.4565 38.9639 57.7202Z" fill="#010173"/>
<path d="M57.4588 21.6429C49.216 20.8549 40.6515 21.4285 32.9156 24.575C29.5518 25.986 26.3648 27.9765 23.9166 30.7116C24.4989 30.6449 25.1016 30.6044 25.6405 30.3639C26.4865 29.9293 26.9761 28.9963 27.8917 28.6805C28.7087 28.3763 29.433 27.8925 30.0849 27.3217C30.9223 27.3825 31.7654 27.3912 32.5969 27.2956C35.4131 27.0146 38.2554 27.2116 41.0484 27.6317C42.1552 27.878 43.1026 28.553 44.1862 28.8775C45.2756 29.2107 46.0521 30.0915 47.0082 30.6594C48.3584 31.5025 49.2942 32.8208 50.4212 33.9131C50.9167 34.4346 51.6961 34.0667 52.2147 33.7769C53.1708 33.2612 53.3736 32.0646 54.1559 31.3808C54.9614 30.8941 55.903 30.6594 56.6563 30.0857C57.9543 29.1064 59.4696 28.4574 60.9878 27.9127C62.9869 27.6085 64.9629 26.9566 67.0084 27.1855C68.8221 27.1826 70.6417 27.5013 72.4496 27.3275C72.6669 27.6288 72.8813 27.9272 73.0957 28.2285C74.1532 28.2083 75.1818 28.4748 76.2306 28.5473C70.9517 24.236 64.1198 22.3904 57.4588 21.6429Z" fill="#010173"/>
<path d="M72.4487 27.3277C70.6407 27.5015 68.8212 27.1828 67.0075 27.1857C64.962 26.9568 62.986 27.6087 60.9869 27.9129C59.4687 28.4576 57.9534 29.1066 56.6554 30.0859C55.9021 30.6596 54.9604 30.8943 54.155 31.381C53.3727 32.0648 53.1699 33.2614 52.2138 33.7771C51.6951 34.0668 50.9158 34.4348 50.4203 33.9133C49.2933 32.821 48.3574 31.5027 47.0073 30.6596C46.0512 30.0917 45.2747 29.2109 44.1853 28.8777C43.1017 28.5532 42.1543 27.8782 41.0475 27.6319C38.2545 27.2118 35.4122 27.0148 32.596 27.2958C31.7645 27.3914 30.9214 27.3827 30.084 27.3219C29.4321 27.8926 28.7078 28.3765 27.8908 28.6807C26.9752 28.9965 26.4856 29.9295 25.6395 30.3641C25.1006 30.6045 24.498 30.6451 23.9156 30.7117C22.07 32.8094 20.6301 35.2924 19.871 37.9898C19.955 38.5809 20.4591 38.5635 20.914 38.5461C21.2617 40.6293 20.7083 42.8196 21.5138 44.8333C22.7451 46.392 23.8287 48.0783 25.3266 49.4053C26.1379 50.4947 27.4069 51.0191 28.5369 51.6941C29.6031 52.32 30.875 52.3808 32.005 52.8473C33.1059 53.2819 34.2185 53.815 35.4354 53.7252C38.182 53.5948 41.1518 54.1569 43.6812 52.7893C44.4837 52.404 45.4456 52.3663 46.1323 51.7608C47.5056 50.6134 49.2121 49.8341 50.2378 48.313C50.513 47.777 51.3475 47.7886 51.7067 48.2289C52.179 48.7418 52.7874 49.0518 53.3988 49.356C53.5784 49.6979 53.6682 50.0745 53.7841 50.4396C55.6007 50.4338 56.4815 52.3489 58.1562 52.7198C58.9037 52.9168 59.6338 53.1718 60.3871 53.3485C63.5133 53.6556 66.7757 54.1482 69.8266 53.1138C71.0406 52.6937 72.4487 52.6995 73.4395 51.7811C74.5058 50.8684 75.937 50.5207 76.9308 49.5154C78.0173 48.4665 79.0719 47.3713 79.9585 46.1429C81.1754 43.9148 81.5492 41.3043 82.8674 39.1342C81.9316 34.994 79.55 31.1898 76.2297 28.5474C75.1808 28.475 74.1523 28.2084 73.0948 28.2287C72.8804 27.9274 72.666 27.629 72.4487 27.3277ZM43.7594 31.8504C44.8082 32.7601 45.9729 33.5134 47.0855 34.3392C47.3318 35.3243 47.7809 36.2138 48.5487 36.8975C49.2788 37.4799 48.905 38.5664 49.4063 39.2357C50.6695 38.9198 51.9356 38.5229 53.2742 38.633C54.0623 35.4952 56.3888 32.7746 59.4368 31.6418C61.0129 30.8856 62.6036 29.9497 64.4144 29.9845C66.2455 30.0251 68.123 29.8049 69.9048 30.3322C70.9623 30.6509 72.043 30.8885 73.1469 30.9609C73.2309 31.1145 73.315 31.268 73.399 31.4216C73.9321 31.6736 74.4884 31.9373 74.7433 32.5052C75.2562 33.5134 76.305 34.0234 77.009 34.8665C77.3335 35.2895 78.026 35.4691 78.0318 36.0834C78.1187 37.2655 78.42 38.4099 78.6229 39.5746C78.6721 42.6081 77.1018 45.4591 74.9201 47.4843C73.9176 48.1102 72.9702 48.8113 72.0199 49.5125C68.5373 51.3262 64.4463 51.1205 60.6826 50.541C59.1789 49.7124 57.626 48.9736 56.1136 48.1652C55.7775 48.0203 55.6384 47.6669 55.4617 47.3771C54.9517 46.3689 54.0449 45.6098 53.6711 44.5233C53.4306 43.5758 52.3036 43.5411 51.5503 43.2253C51.3938 42.979 51.2345 42.7356 51.0722 42.4894C50.8955 42.5125 50.542 42.5589 50.3653 42.5821C50.2726 42.8863 50.1741 43.1876 50.0755 43.4947C49.5106 43.8801 48.9021 44.2741 48.5979 44.9173C48.0445 45.8068 47.9199 47.041 46.9262 47.5915C45.7817 48.2637 44.6286 48.9243 43.5855 49.75C42.6149 50.1441 41.5835 50.399 40.6129 50.8163C37.6982 51.1755 34.7342 50.8684 31.8659 50.2542C31.834 50.1412 31.7674 49.9152 31.7326 49.8051C30.6519 49.4893 29.409 49.3212 28.6788 48.3564C27.9545 47.4322 27.1722 46.5514 26.1234 45.9806C25.8018 44.7435 24.5009 44.1176 24.3415 42.8081C23.8461 40.3019 23.8896 37.5755 24.9587 35.2142C26.3204 33.4381 28.2384 32.2241 30.1304 31.0884C31.4776 30.309 33.0538 30.1439 34.5662 29.9295C35.7193 29.773 36.8927 29.5644 38.0546 29.7585C40.0421 30.2047 41.9399 30.958 43.7594 31.8504Z" fill="#011081"/>
<path d="M43.7626 31.8502C41.9431 30.9578 40.0453 30.2045 38.0578 29.7583C36.8959 29.5642 35.7225 29.7728 34.5694 29.9292C33.057 30.1436 31.4808 30.3088 30.1336 31.0882C28.2416 32.2239 26.3236 33.4379 24.9619 35.214C23.8928 37.5753 23.8493 40.3017 24.3447 42.8078C24.5041 44.1174 25.805 44.7433 26.1266 45.9804C27.1754 46.5512 27.9577 47.432 28.682 48.3562C29.4122 49.321 30.6551 49.4891 31.7358 49.8049C31.7706 49.915 31.8372 50.141 31.8691 50.254C34.7374 50.8682 37.7014 51.1753 40.6161 50.816C41.5867 50.3988 42.6182 50.1439 43.5888 49.7498C44.6318 48.9241 45.7849 48.2635 46.9294 47.5913C47.9231 47.0408 48.0477 45.8066 48.6011 44.9171C48.9053 44.2739 49.5138 43.8799 50.0788 43.4945C50.1773 43.1874 50.2758 42.8861 50.3685 42.5818C50.5452 42.5587 50.8987 42.5123 51.0754 42.4891C51.2377 42.7354 51.397 42.9788 51.5535 43.2251C52.3068 43.5409 53.4339 43.5756 53.6743 44.5231C54.0481 45.6096 54.9549 46.3687 55.4649 47.3769C55.6416 47.6667 55.7807 48.0201 56.1168 48.165C57.6292 48.9733 59.1821 49.7122 60.6859 50.5408C64.4495 51.1203 68.5405 51.326 72.0231 49.5122C72.9734 48.8111 73.9208 48.1099 74.9233 47.4841C77.105 45.4589 78.6753 42.6079 78.6261 39.5744C78.4233 38.4097 78.1219 37.2653 78.035 36.0832C78.0292 35.4689 77.3368 35.2893 77.0123 34.8663C76.3082 34.0232 75.2594 33.5132 74.7466 32.505C74.4916 31.9371 73.9353 31.6734 73.4022 31.4214C73.3182 31.2678 73.2342 31.1143 73.1501 30.9607C72.0462 30.8883 70.9656 30.6507 69.908 30.332C68.1262 29.8047 66.2487 30.0249 64.4176 29.9843C62.6068 29.9495 61.0161 30.8854 59.44 31.6416C56.392 32.7744 54.0655 35.495 53.2774 38.6328C51.9388 38.5227 50.6727 38.9196 49.4095 39.2354C48.9082 38.5662 49.282 37.4797 48.5519 36.8973C47.7841 36.2135 47.335 35.3241 47.0887 34.339C45.9762 33.5132 44.8114 32.7599 43.7626 31.8502ZM67.793 32.2007C69.3749 32.5021 71.0409 32.7339 72.449 33.5683C73.0922 33.8957 73.237 34.678 73.7615 35.1241C74.7437 35.8427 75.2449 37.0277 75.6331 38.1403C75.694 39.4788 75.7954 40.8377 75.6708 42.1733C75.0276 43.0947 74.5466 44.1087 73.9672 45.0649C73.1936 45.8587 72.1708 46.36 71.4262 47.1857C70.8149 47.8782 69.8617 48.0027 69.0185 48.2316C67.4308 48.6923 65.7649 48.4808 64.1366 48.5909C62.6966 48.7242 61.3435 48.1244 59.9934 47.7217C59.2633 47.5537 59.1329 46.6903 58.5216 46.3629C57.832 45.9254 56.9686 45.6038 56.6267 44.7983C56.2124 43.8393 55.827 42.86 55.5431 41.8546C55.3432 41.1593 55.8473 40.5421 55.9516 39.8786C56.2761 36.1237 59.6023 33.2061 63.1486 32.447C64.6291 31.856 66.2458 32.0791 67.793 32.2007ZM37.3827 32.4586C38.504 32.7454 39.6455 32.9512 40.7986 33.0468C41.0159 33.3162 41.2332 33.5857 41.4476 33.858C42.2705 33.9942 43.1455 34.1825 43.4642 35.0604C43.7278 35.1763 43.9915 35.2922 44.2522 35.411C44.6868 36.3005 45.3358 37.0538 45.84 37.8969C46.6281 39.3137 46.1761 40.9709 46.1703 42.4978C46.1819 44.1087 44.8462 45.1807 43.8234 46.2354C42.8065 47.0061 41.7953 47.9448 40.477 48.1186C39.1385 48.3562 37.7738 48.7502 36.4063 48.4779C35.146 48.249 33.8451 48.2403 32.6079 47.9042C31.8285 46.896 30.6174 46.444 29.6613 45.6559C29.0848 44.8678 28.7805 43.8132 27.752 43.4771C27.442 42.4138 27.0045 41.336 27.1349 40.206C27.245 39.2383 27.2218 38.259 27.3782 37.2971C28.0707 35.8369 29.4353 34.8924 30.7449 34.0348C31.8343 33.3597 32.9817 32.673 34.2883 32.5658C35.314 32.4499 36.3628 32.1834 37.3827 32.4586Z" fill="#012593"/>
<path d="M67.7925 32.2006C66.2453 32.0789 64.6286 31.8558 63.1481 32.4469C59.6018 33.206 56.2756 36.1236 55.9511 39.8785C55.8468 40.542 55.3427 41.1591 55.5426 41.8545C55.8265 42.8599 56.2119 43.8392 56.6262 44.7982C56.9681 45.6036 57.8315 45.9252 58.521 46.3627C59.1324 46.6901 59.2628 47.5535 59.9929 47.7216C61.343 48.1243 62.6961 48.724 64.1361 48.5908C65.7644 48.4807 67.4303 48.6922 69.018 48.2315C69.8612 48.0026 70.8144 47.878 71.4257 47.1856C72.1703 46.3598 73.1931 45.8586 73.9667 45.0647C74.5461 44.1086 75.0271 43.0945 75.6703 42.1732C75.7949 40.8375 75.6935 39.4787 75.6326 38.1401C75.2444 37.0275 74.7432 35.8425 73.761 35.124C73.2365 34.6778 73.0917 33.8955 72.4485 33.5681C71.0404 32.7337 69.3744 32.5019 67.7925 32.2006ZM68.8848 36.2511C70.3624 36.8016 70.7767 38.4675 71.9965 39.3512C71.814 39.3512 71.446 39.3483 71.2606 39.3483C72.0544 40.119 72.7701 41.0722 72.9613 42.1848C72.9063 43.3176 71.6633 44.0999 70.6029 43.6856C70.8607 43.9869 71.2113 44.181 71.5445 44.3838C70.1567 44.8097 69.189 46.1599 67.6911 46.3453C65.3066 46.0382 62.5599 46.5829 60.6071 44.8329C60.5579 44.6649 60.5086 44.4939 60.4565 44.3259C60.1378 44.2419 59.8133 44.1608 59.4917 44.0767C59.8915 44.0333 60.2913 43.9898 60.6882 43.9464C60.7201 43.8276 60.7839 43.5929 60.8157 43.4741C59.6742 43.9116 58.2487 42.8309 58.5906 41.5966C58.9412 40.6202 59.6249 39.7887 60.3695 39.0789C60.3551 38.9108 60.329 38.5747 60.3174 38.4067C60.8911 37.6099 61.6386 36.9667 62.3455 36.2974C62.6613 36.3785 62.9742 36.4626 63.2871 36.5437C64.6315 34.7879 67.1956 35.35 68.8848 36.2511Z" fill="#013BA5"/>
<path d="M37.3787 32.4586C36.3589 32.1834 35.3101 32.4499 34.2844 32.5658C32.9777 32.673 31.8304 33.3597 30.741 34.0348C29.4314 34.8924 28.0668 35.8369 27.3743 37.2971C27.2178 38.2591 27.241 39.2384 27.1309 40.2061C27.0005 41.336 27.438 42.4138 27.748 43.4771C28.7766 43.8132 29.0808 44.8679 29.6574 45.6559C30.6135 46.444 31.8246 46.896 32.604 47.9042C33.8411 48.2403 35.142 48.249 36.4023 48.4779C37.7699 48.7503 39.1345 48.3562 40.4731 48.1186C41.7914 47.9448 42.8025 47.0061 43.8195 46.2354C44.8422 45.1808 46.1779 44.1088 46.1663 42.4978C46.1721 40.971 46.6241 39.3137 45.836 37.8969C45.3319 37.0538 44.6829 36.3005 44.2483 35.411C43.9875 35.2922 43.7239 35.1763 43.4602 35.0604C43.1415 34.1825 42.2665 33.9942 41.4437 33.858C41.2293 33.5857 41.012 33.3162 40.7947 33.0468C39.6415 32.9512 38.5 32.7455 37.3787 32.4586ZM37.2976 35.0749C38.2943 35.327 39.5604 34.988 40.2906 35.8717C41.2554 36.8539 42.3187 37.7781 42.9966 38.9892C43.2748 39.3282 43.1647 39.699 42.8952 40.0061C43.3936 40.5624 43.6978 41.2491 43.9962 41.9242C43.7731 43.0773 42.3245 44.1638 41.3162 43.17C41.1655 43.5872 41.0149 44.0102 40.8642 44.4304C38.6767 45.1025 36.356 45.4676 34.0845 45.0301C33.6412 44.9142 33.4616 44.4477 33.1892 44.129C32.7749 43.9378 32.3519 43.7611 31.9318 43.5785C31.2045 43.99 30.1441 43.7669 29.7501 42.9991C29.1156 41.9908 29.9094 40.8464 30.5295 40.0467C30.4426 39.8584 30.2687 39.4817 30.1847 39.2934C30.8337 37.9143 31.6189 36.3932 33.082 35.7384C34.4061 35.185 35.8577 34.7156 37.2976 35.0749Z" fill="#013EA7"/>
<path d="M37.3012 35.075C35.8613 34.7158 34.4097 35.1851 33.0856 35.7385C31.6225 36.3933 30.8373 37.9144 30.1883 39.2935C30.2723 39.4818 30.4462 39.8585 30.5331 40.0468C32.8683 37.3233 37.0781 36.3354 40.326 37.9144C41.3372 38.3954 42.1658 39.1747 42.8988 40.0063C43.1683 39.6991 43.2784 39.3283 43.0002 38.9893C42.3223 37.7782 41.259 36.854 40.2941 35.8718C39.564 34.9881 38.2979 35.3271 37.3012 35.075Z" fill="#0252B8"/>
<path d="M68.882 36.2512C67.1929 35.3501 64.6288 34.7881 63.2844 36.5438C62.9715 36.4627 62.6586 36.3787 62.3428 36.2976C61.6358 36.9669 60.8883 37.6101 60.3147 38.4068C60.3263 38.5749 60.3523 38.911 60.3668 39.079C63.38 36.315 68.3026 36.6974 71.2579 39.3485C71.4433 39.3485 71.8112 39.3513 71.9938 39.3513C70.774 38.4677 70.3597 36.8017 68.882 36.2512Z" fill="#0254BB"/>
<path d="M5.75618 35.8052C5.42878 37.6276 5.65768 39.4848 5.59683 41.3246C5.62291 42.7819 5.46645 44.2567 5.75039 45.6995C5.89815 44.4421 5.846 43.1731 5.82282 41.9098C5.78805 39.8759 5.98217 37.8362 5.75618 35.8052Z" fill="#191B83"/>
<path d="M96.8611 41.9185C96.8089 40.0643 96.9944 38.1984 96.7249 36.3528C96.4786 39.2849 96.5221 42.2517 96.6814 45.1867C97.0204 44.135 96.8205 43.005 96.8611 41.9185Z" fill="#21227B"/>
<path d="M90.7904 36.4773L90.4775 36.1238C90.4833 39.0037 90.6253 41.8866 90.4659 44.7665L90.7701 44.4333C91.1584 41.7967 90.9845 39.1196 90.7904 36.4773Z" fill="#060556"/>
<path d="M90.4777 36.1238C89.9272 37.2016 90.2517 38.4416 90.2401 39.5948C90.3589 41.1361 90.1185 42.6804 90.2112 44.2218C90.2749 44.358 90.4024 44.6303 90.4661 44.7665C90.6255 41.8866 90.4835 39.0037 90.4777 36.1238Z" fill="#16157F"/>
<path d="M97.9783 36.938L97.8972 37.2509C97.8132 37.5957 97.7321 37.9405 97.6567 38.291C97.7871 40.4003 97.7321 42.5153 97.6944 44.6275C97.7784 44.9549 97.8653 45.2794 97.9523 45.6068C98.1812 42.7268 98.1087 39.8208 97.9783 36.938Z" fill="#010B48"/>
<path d="M71.258 39.3487C68.3027 36.6977 63.3802 36.3153 60.367 39.0793C59.6224 39.7891 58.9386 40.6207 58.588 41.5971C58.2461 42.8313 59.6716 43.912 60.8132 43.4745C61.3173 42.9327 61.7693 42.3504 62.2039 41.7564C63.9857 39.7254 67.4133 40.0557 69.2502 41.8404C69.705 42.4518 70.0788 43.1269 70.6003 43.686C71.6607 44.1004 72.9037 43.3181 72.9587 42.1852C72.7675 41.0726 72.0519 40.1194 71.258 39.3487Z" fill="#01E1FF"/>
<path d="M40.3235 37.9144C37.0756 36.3353 32.8658 37.3233 30.5306 40.0468C29.9105 40.8464 29.1167 41.9909 29.7512 42.9991C30.1452 43.7669 31.2056 43.99 31.9329 43.5786C32.5442 42.7847 33.0425 41.8866 33.8364 41.2521C35.6096 40.1772 38.0056 39.9541 39.7353 41.2376C40.3148 41.8373 40.7842 42.5298 41.3173 43.1701C42.3256 44.1639 43.7742 43.0774 43.9973 41.9242C43.6989 41.2492 43.3947 40.5625 42.8963 40.0062C42.1633 39.1747 41.3347 38.3953 40.3235 37.9144Z" fill="#02E2FF"/>
<path d="M4.72488 38.0534C4.66114 37.8825 4.53366 37.5406 4.46992 37.3696C4.2671 40.1076 4.33954 42.8658 4.44095 45.6067C4.50759 45.4792 4.63507 45.2185 4.69881 45.091C4.77704 42.7471 4.7017 40.3973 4.72488 38.0534Z" fill="#000651"/>
<path d="M5.02348 41.9098C4.95974 40.6263 5.25526 39.2732 4.72505 38.0535C4.70188 40.3974 4.77721 42.7471 4.69898 45.0911C5.2176 44.1118 4.98292 42.9673 5.02348 41.9098Z" fill="#191B80"/>
<path d="M97.6549 38.291C97.3072 40.3713 97.2696 42.5559 97.6926 44.6275C97.7303 42.5153 97.7853 40.4003 97.6549 38.291Z" fill="#191C79"/>
<path d="M96.1864 38.5894L96.1807 38.7661C95.9691 40.8522 96.2994 42.9643 96.0039 45.033C94.7262 47.0611 92.3591 48.1447 90.0181 48.307C90.047 48.165 90.105 47.8753 90.1339 47.7304C89.5023 49.8947 88.7114 52.0213 87.5872 53.9828C88.6418 54.035 89.708 54.1219 90.754 53.9423C93.4195 53.3889 95.6475 51.0391 95.9228 48.3099C96.2473 45.0823 96.4095 41.8286 96.1864 38.5894Z" fill="#A8A7CD"/>
<path d="M89.0278 42.7268C88.3006 44.8853 87.4024 46.9975 86.2087 48.9445C83.0883 54.093 78.1078 57.9262 72.5797 60.1977C66.9734 62.5561 60.8832 63.4948 54.8423 63.8106C48.6102 64.0511 42.3085 63.7295 36.2241 62.2779C31.4436 61.1248 26.7789 59.2271 22.8327 56.2515C18.3969 52.9746 15.1606 48.2404 13.4425 43.0194C13.4599 45.3315 14.1263 47.5827 14.8998 49.7441C16.8497 55.0491 20.6974 59.5718 25.5127 62.5097C32.2954 66.7282 40.4021 68.1305 48.2683 68.4608C56.9023 68.7042 65.8348 67.9364 73.7503 64.2249C79.1943 61.6492 83.9227 57.3815 86.5535 51.92C87.9095 49.0372 88.9003 45.9254 89.0278 42.7268Z" fill="#A8A7CD"/>
<path d="M84.8708 40.3772C84.5869 41.849 84.5637 43.431 84.8853 44.8999C85.0389 43.3991 85.0447 41.878 84.8708 40.3772Z" fill="#21227C"/>
<path d="M69.2522 41.8402C67.4153 40.0554 63.9878 39.7251 62.2059 41.7561C62.6347 42.295 62.9418 42.9759 63.5329 43.3642C64.7671 43.7234 66.2042 43.7785 67.3458 43.1092C68.015 42.7383 68.6293 42.2835 69.2522 41.8402Z" fill="#026BCF"/>
<path d="M39.7354 41.2378C38.0057 39.9543 35.6096 40.1774 33.8364 41.2523C34.7491 42.4779 36.2759 43.1008 37.7884 42.811C38.7647 42.8574 39.1936 41.8607 39.7354 41.2378Z" fill="#026DD2"/>
<path d="M41.3175 43.1701C40.7844 42.5297 40.315 41.8373 39.7356 41.2375C39.1938 41.8605 38.765 42.8571 37.7886 42.8108C36.2762 43.1005 34.7493 42.4776 33.8366 41.252C33.0428 41.8865 32.5444 42.7847 31.9331 43.5786C32.3532 43.7611 32.7762 43.9379 33.1905 44.1291C33.4629 44.4478 33.6425 44.9142 34.0858 45.0301C36.3573 45.4676 38.678 45.1026 40.8655 44.4304C41.0162 44.0103 41.1668 43.5873 41.3175 43.1701Z" fill="#0159C1"/>
<path d="M70.6007 43.686C70.0792 43.1268 69.7055 42.4517 69.2506 41.8404C68.6277 42.2837 68.0134 42.7385 67.3441 43.1094C66.2026 43.7787 64.7655 43.7236 63.5313 43.3644C62.9402 42.9761 62.6331 42.2952 62.2043 41.7563C61.7697 42.3503 61.3177 42.9327 60.8136 43.4745C60.7817 43.5933 60.718 43.8279 60.6861 43.9467C60.2892 43.9902 59.8893 44.0336 59.4895 44.0771C59.8111 44.1611 60.1356 44.2423 60.4543 44.3263C60.5065 44.4943 60.5557 44.6653 60.605 44.8333C62.5578 46.5833 65.3044 46.0386 67.6889 46.3457C69.1868 46.1603 70.1545 44.8101 71.5424 44.3842C71.2092 44.1814 70.8586 43.9873 70.6007 43.686Z" fill="#0151B7"/>
<path d="M9.06683 47.4119C7.96295 46.8615 7.10534 45.9517 6.2767 45.0593C6.32886 46.3834 6.3839 47.7162 6.61859 49.0229C7.18646 51.4479 9.25515 53.4442 11.6918 53.9483C12.7203 54.1077 13.7634 54.0381 14.7977 54.0034C13.7982 52.2592 13.1057 50.3701 12.4625 48.4753C11.3499 48.061 10.1243 47.9856 9.06683 47.4119Z" fill="#A8A6CF"/>
<path d="M90.8665 55.3418C89.5627 55.1738 88.2357 55.1622 86.9406 55.4027C88.2444 55.5012 89.5858 55.6837 90.8665 55.3418Z" fill="#1A1E7A"/>
<path d="M15.44 55.2461C14.1565 55.3272 12.8034 55.0056 11.5663 55.4344C12.8556 55.5706 14.1536 55.4924 15.4458 55.4895L15.44 55.2461Z" fill="#1E227B"/>
<path d="M55.0082 56.3299C54.1448 56.017 53.2321 56.0459 52.3745 56.3675C53.2524 56.3617 54.1303 56.3502 55.0082 56.3299Z" fill="#191A84"/>
<path d="M49.6078 56.3674C49.0457 55.927 48.1765 55.7039 47.6898 56.3819C48.3301 56.4282 48.9704 56.4224 49.6078 56.3674Z" fill="#1A1B83"/>
<path d="M56.7678 57.1353C56.2144 56.8021 55.6437 56.4689 55.0063 56.3298C54.1284 56.3501 53.2505 56.3617 52.3726 56.3675C51.4541 56.466 50.527 56.4515 49.6056 56.3675C48.9682 56.4225 48.3279 56.4283 47.6876 56.382C47.5456 56.5124 47.2559 56.7673 47.1111 56.8977C50.3271 56.5384 53.575 56.6225 56.7678 57.1353Z" fill="#0A0A59"/>
<path d="M2.08463 56.5876C2.03538 56.7122 1.93397 56.9585 1.88472 57.0831C1.87023 57.4945 1.85574 57.9059 1.83836 58.3202C2.47287 62.5822 5.24851 66.1401 8.06181 69.2518C12.1644 73.5602 16.9595 77.1499 21.8994 80.4413C21.4967 78.7695 21.1577 77.0775 21.0128 75.3652C20.8448 73.734 20.8361 72.0883 20.9984 70.46C18.9297 72.1868 15.7484 72.3694 13.5986 70.686C9.51047 67.4845 5.62516 63.9005 2.74522 59.5458C2.06435 58.7056 1.82967 57.6394 2.08463 56.5876Z" fill="#A8A7CF"/>
<path d="M77.5458 64.303C70.1316 68.7388 61.3527 70.1469 52.8346 70.3526C43.2763 70.4627 33.2574 69.3327 24.9044 64.3262C24.6871 64.7202 24.4669 65.1142 24.2438 65.5112L24.2699 65.5256C29.7082 69.014 36.0533 70.8335 42.4303 71.5782C49.013 72.3431 55.7 72.2706 62.248 71.2624C67.8601 70.3845 73.3592 68.562 78.163 65.4967C77.9544 65.0997 77.7515 64.6999 77.5458 64.303Z" fill="#A8A7CF"/>
<path d="M23.1394 69.3474C22.2064 73.2646 22.9887 77.3585 24.0346 81.1743C24.5938 83.1647 25.3153 85.1031 26.0946 87.0182C26.7494 86.7516 27.4158 86.5227 28.1083 86.3779L28.0532 86.2881C26.8827 84.4193 26.1671 82.3158 25.3964 80.2645C24.0839 76.7646 23.3798 73.0705 23.1394 69.3474Z" fill="#A8A7CF"/>
<path d="M80.8048 80.731C80.7352 80.7049 80.5933 80.6499 80.5237 80.6238C79.9964 82.1536 79.6024 83.7297 79.0142 85.245C81.109 87.8526 83.4761 90.3066 86.3097 92.1175C87.6106 92.8765 88.9549 93.7284 90.5021 93.8066C91.8957 93.8993 93.2922 93.3894 94.3179 92.4477C93.1503 92.3058 91.9681 92.1146 90.9077 91.5786C86.8515 89.6084 83.4703 86.2446 81.561 82.1536C81.335 81.6639 81.1206 81.1656 80.8048 80.731Z" fill="#A8A7CF"/>
<path d="M75.5962 88.7304C74.9153 88.4784 74.2287 88.2466 73.5333 88.0351C71.0387 92.4158 67.7676 96.3765 63.8186 99.5259C60.3186 102.304 55.8799 103.944 51.3949 103.901C46.5332 104.014 41.6772 102.197 38.0034 99.0246C34.3238 95.9535 31.2295 92.1898 28.8943 88.0061C28.2047 88.235 27.5151 88.4697 26.8314 88.7189C29.0102 93.2503 31.835 97.5006 35.4248 101.038C37.5891 103.176 39.9765 105.167 42.7811 106.401C49.1668 109.348 57.0562 108.65 62.8132 104.614C68.3963 100.578 72.6351 94.9075 75.5962 88.7304Z" fill="#A8A7CF"/>
<path d="M1.88513 57.083C1.30277 57.0279 1.27959 58.3346 1.83877 58.3201C1.85616 57.9058 1.87065 57.4944 1.88513 57.083Z" fill="#050844"/>
<path d="M68.9009 57.7611C68.4982 57.5814 68.0636 57.5003 67.6203 57.5177C66.2498 57.538 64.862 57.4423 63.5032 57.6944C65.2879 57.9407 67.1074 57.8769 68.9009 57.7611Z" fill="#20217B"/>
<path d="M38.9622 57.7206C37.1137 57.4569 35.1898 57.4077 33.3414 57.7032C35.2043 57.9263 37.0992 57.906 38.9622 57.7206Z" fill="#20207C"/>
<path d="M81.0201 64.5583C80.5711 64.0773 80.0901 63.6196 79.5338 63.2632C79.4527 64.4743 80.29 65.4796 80.6058 66.6067C80.6377 65.9055 80.8115 65.2247 81.0201 64.5583Z" fill="#A2A6CD"/>
<path d="M79.6888 72.0361C79.6888 71.1321 79.5439 70.2369 79.3005 69.3677C79.0659 71.3842 78.9587 73.4268 78.4661 75.4028C77.5679 79.2041 76.2091 82.8982 74.4186 86.3692C75.0676 86.5604 75.7079 86.7777 76.3424 87.0153C78.2546 82.2579 79.8597 77.2223 79.6888 72.0361Z" fill="#A7A7CF"/>
<path d="M21.2775 72.3403C21.2572 71.7087 21.3644 71.0191 21.0022 70.46C20.84 72.0883 20.8486 73.7339 21.0167 75.3651C21.3383 74.3887 21.2514 73.3486 21.2775 72.3403Z" fill="#050454"/>
<path d="M81.4706 71.0078L81.2301 71.1961C81.2098 72.2826 81.204 73.372 81.2127 74.4614C81.2764 74.5454 81.4068 74.7106 81.4706 74.7946C81.6125 73.5372 81.6212 72.2653 81.4706 71.0078Z" fill="#070655"/>
<path d="M81.2275 71.1958C80.6713 72.1548 80.7263 73.476 81.2102 74.4611C81.2015 73.3717 81.2073 72.2823 81.2275 71.1958Z" fill="#161784"/>
<path d="M58.3759 75.6549C55.7683 75.368 53.1375 75.6375 50.5212 75.5621C48.3714 75.6693 46.21 75.3825 44.0689 75.6606C45.335 75.8924 46.6243 75.7997 47.9049 75.7968C50.7066 75.7476 53.5084 75.7852 56.3101 75.8316C57.0025 75.849 57.695 75.7765 58.3759 75.6549Z" fill="#1B1A83"/>
<path d="M62.2368 77.454C57.8619 76.947 53.4493 76.8803 49.0482 76.9064C45.6728 77.0571 42.2656 77.0513 38.9308 77.6713C37.3285 77.9842 35.9668 79.7313 36.5173 81.3712C37.4039 82.7706 37.908 84.367 38.8149 85.7519C40.4577 88.5102 42.9291 90.8541 45.9655 91.987C48.7498 93.0329 51.8412 93.1372 54.7328 92.5143C58.311 91.7523 61.3473 89.2953 63.2972 86.259C64.4011 84.6596 65.0067 82.7938 65.9744 81.1162C66.2612 80.2499 65.7947 79.3749 65.2732 78.7056C64.5199 77.8278 63.332 77.5757 62.2368 77.454Z" fill="#01CFFF"/>
<path d="M67.8838 81.8118C68.0084 81.1773 68.0228 80.5167 67.8693 79.8909C67.5216 80.3805 67.3333 81.4786 67.8838 81.8118Z" fill="#070939"/>
<path d="M65.9731 81.1165C65.0054 82.794 64.3999 84.6599 63.296 86.2592C61.3461 89.2956 58.3097 91.7525 54.7315 92.5145C51.84 93.1375 48.7486 93.0331 45.9642 91.9872C42.9278 90.8544 40.4564 88.5104 38.8136 85.7522C37.9068 84.3673 37.4027 82.7708 36.5161 81.3714C36.4842 82.7129 36.9767 83.9819 37.3389 85.2509C38.5181 88.9132 40.4767 92.5261 43.6956 94.7715C46.6596 96.8895 50.5246 97.4023 54.0536 96.762C57.1682 96.168 59.9525 94.2761 61.8358 91.7496C63.6379 89.3449 64.8026 86.5171 65.553 83.6197C65.7645 82.7998 66.0311 81.9741 65.9731 81.1165Z" fill="#0187D1"/>
<path d="M97.9201 86.8389C97.7173 87.7834 97.7405 88.7482 97.9404 89.6927C98.1461 88.7511 98.1432 87.7747 97.9201 86.8389Z" fill="#000A45"/>
<path d="M92.4467 95.2233C91.3862 94.8293 90.2302 94.7887 89.1611 95.1828C90.2563 95.1973 91.3515 95.2146 92.4467 95.2233Z" fill="#1A1882"/>
<path d="M92.8348 95.3103L92.4466 95.2234C91.3514 95.2147 90.2562 95.1973 89.161 95.1829L88.9872 95.2292L88.7438 95.4697C90.0911 95.6348 91.5455 95.8695 92.8348 95.3103Z" fill="#010657"/>
</svg>
